<svg width="224" height="312" xmlns="http://www.w3.org/2000/svg">

 <metadata id="metadata4428">image/svg+xml</metadata>
 <g>
  <title>background</title>
  <rect fill="none" id="canvas_background" height="314" width="226" y="-1" x="-1"/>
 </g>
 <g>
  <title>Layer 1</title>
  <g id="layer1">
   <g display="inline" id="g8970">
    <g id="g8891">
     <g id="g8795">
      <rect fill="#ffffff" stroke="#000000" stroke-width="0.996733" stroke-miterlimit="4" y="-0.000008" x="-0.000012" height="311.81104" width="223.22835" id="rect6365" rx="10.629921" ry="10.629921"/>
      <g transform="matrix(0.30106207,0,0,0.30106207,5267.5599,-1982.7028) " id="g8612">
       <path fill="#d40000" d="m-17471.25278,6736.308828l0,-104.6518l10.3328,0l0,104.6518l-10.3328,0z" id="path7216"/>
       <path fill="#d40000" d="m-17430.29938,6631.657028c-9.9454,0 -17.9408,8.9238 -17.9408,20.0041l0,64.6435c0,11.0803 7.9954,20.0042 17.9408,20.0042l5.7965,0c9.9453,0 17.9565,-8.9239 17.9565,-20.0042l0,-64.6435c0,-11.0803 -8.0112,-20.0041 -17.9565,-20.0041l-5.7965,0zm2.9927,9.8918c5.8743,0 10.6007,4.4408 10.6007,9.9706l0,65.5097c0,5.5298 -4.7264,9.9864 -10.6007,9.9864c-5.8742,0 -10.6006,-4.4566 -10.6006,-9.9864l0,-65.5097c0,-5.5298 4.7264,-9.9706 10.6006,-9.9706z" id="rect7235"/>
       <g fill="#f60302" display="inline" transform="matrix(-0.50404239,0,0,-0.50404239,7403.6384,312.07817) " id="g7984">
        <path fill="#d40000" d="m47980.28418,-14202.585083l0,-207.625l20.5,0l0,207.625l-20.5,0z" id="path7986"/>
        <path fill="#d40000" d="m48061.53418,-14410.210083c-19.7312,0 -35.5938,17.7045 -35.5938,39.6875l0,128.25c0,21.983 15.8626,39.6875 35.5938,39.6875l11.5,0c19.7312,0 35.625,-17.7045 35.625,-39.6875l0,-128.25c0,-21.983 -15.8938,-39.6875 -35.625,-39.6875l-11.5,0zm5.9375,19.625c11.6542,0 21.0313,8.8104 21.0313,19.7812l0,129.9688c0,10.9708 -9.3771,19.8125 -21.0313,19.8125c-11.6542,0 -21.0313,-8.8417 -21.0313,-19.8125l0,-129.9688c0,-10.9708 9.3771,-19.7812 21.0313,-19.7812z" id="path7988"/>
       </g>
      </g>
     </g>
    </g>
    <path fill="#d40000" id="path8644" d="m8.524377,60.139495c-1.583,-3.47229 -1.7567,-9.4054 2.9711,-10.20801c3.5621,-0.45844 5.0117,1.1983 5.2999,3.74186c0.1422,0.74302 0.5617,0.7885 0.6948,-0.0583c0.2044,-2.60939 2.7872,-4.1326 4.8064,-3.74997c5.5266,0.9454 5.2039,7.02845 3.3985,11.15554c-2.7309,5.47946 -5.6006,8.93761 -8.245,14.45186c-3.0382,-5.74101 -6.5073,-10.4051 -8.9257,-15.33294l0,-0.00004z"/>
    <path fill="#d40000" d="m43.026877,28.323215c7.144,-0.4744 10.8684,5.62741 11.5952,10.43645c0.4334,0.76389 0.6707,0.54864 0.8369,-0.0423c0.3493,-6.17414 5.8749,-11.22017 10.9926,-10.53018c8.328,0.10829 13.3895,9.3754 11.9664,17.21876c-1.7385,9.58159 -6.8997,15.35109 -10.8078,21.29311c-4.4213,6.15238 -10.3727,15.0395 -12.2901,19.31683c0,0 -6.0483,-9.20452 -13.9172,-20.02959c-5.2618,-7.23851 -9.4731,-15.08233 -9.8651,-21.83538c-0.4479,-7.71548 2.7193,-14.63175 11.4891,-15.82765l0,-0.00005z" id="path8568"/>
    <path fill="#d40000" d="m99.210077,60.988505c7.144,-0.4744 10.8684,5.62741 11.5952,10.43645c0.4334,0.76389 0.6707,0.54864 0.8369,-0.0423c0.3493,-6.17414 5.8749,-11.22017 10.9926,-10.53018c8.328,0.10829 13.3895,9.3754 11.9664,17.21876c-1.7385,9.58159 -6.8997,15.35109 -10.8078,21.29311c-4.4213,6.15238 -10.3727,15.0395 -12.2901,19.31683c0,0 -6.0483,-9.20452 -13.9172,-20.02959c-5.2618,-7.23851 -9.4731,-15.08233 -9.8651,-21.83538c-0.4479,-7.71548 2.7193,-14.63175 11.4891,-15.82765l0,-0.00005z" id="path8570"/>
    <path fill="#d40000" d="m154.559677,28.323215c7.144,-0.4744 10.8684,5.62741 11.5952,10.43645c0.4334,0.76389 0.6707,0.54864 0.8369,-0.0423c0.3493,-6.17414 5.8749,-11.22017 10.9926,-10.53018c8.328,0.10829 13.3895,9.3754 11.9664,17.21876c-1.7385,9.58159 -6.8997,15.35109 -10.8078,21.29311c-4.4213,6.15238 -10.3727,15.0395 -12.2901,19.31683c0,0 -6.0483,-9.20452 -13.9172,-20.02959c-5.2618,-7.23851 -9.4731,-15.08233 -9.8651,-21.83538c-0.4479,-7.71548 2.7193,-14.63175 11.4891,-15.82765l0,-0.00005z" id="path8572"/>
    <path fill="#d40000" d="m154.559677,93.653805c7.144,-0.4744 10.8684,5.62741 11.5952,10.43645c0.4334,0.76389 0.6707,0.54864 0.8369,-0.0423c0.3493,-6.17414 5.8749,-11.22017 10.9926,-10.53018c8.328,0.10829 13.3895,9.3754 11.9664,17.21876c-1.7385,9.58159 -6.8997,15.35109 -10.8078,21.29311c-4.4213,6.15238 -10.3727,15.0395 -12.2901,19.31683c0,0 -6.0483,-9.20452 -13.9172,-20.02959c-5.2618,-7.23851 -9.4731,-15.08233 -9.8651,-21.83538c-0.4479,-7.71548 2.7193,-14.63175 11.4891,-15.82765l0,-0.00005z" id="path8574"/>
    <path fill="#d40000" d="m43.026877,93.653805c7.144,-0.4744 10.8684,5.62741 11.5952,10.43645c0.4334,0.76389 0.6707,0.54864 0.8369,-0.0423c0.3493,-6.17414 5.8749,-11.22017 10.9926,-10.53018c8.328,0.10829 13.3895,9.3754 11.9664,17.21876c-1.7385,9.58159 -6.8997,15.35109 -10.8078,21.29311c-4.4213,6.15238 -10.3727,15.0395 -12.2901,19.31683c0,0 -6.0483,-9.20452 -13.9172,-20.02959c-5.2618,-7.23851 -9.4731,-15.08233 -9.8651,-21.83538c-0.4479,-7.71548 2.7193,-14.63175 11.4891,-15.82765l0,-0.00005z" id="path8576"/>
    <path fill="#d40000" d="m154.559677,218.044045c7.144,0.4744 10.8684,-5.62741 11.5952,-10.43645c0.4334,-0.76389 0.6707,-0.54864 0.8369,0.0423c0.3493,6.17414 5.8749,11.22017 10.9926,10.53018c8.328,-0.10829 13.3895,-9.3754 11.9664,-17.21876c-1.7385,-9.58159 -6.8997,-15.35109 -10.8078,-21.29311c-4.4213,-6.15238 -10.3727,-15.0395 -12.2901,-19.31683c0,0 -6.0483,9.20452 -13.9172,20.02959c-5.2618,7.23851 -9.4731,15.08233 -9.8651,21.83538c-0.4479,7.71548 2.7193,14.63175 11.4891,15.82765l0,0.00005z" id="path8596"/>
    <path fill="#d40000" d="m154.559677,283.149485c7.144,0.4744 10.8684,-5.62741 11.5952,-10.43645c0.4334,-0.76389 0.6707,-0.54864 0.8369,0.0423c0.3493,6.17414 5.8749,11.22017 10.9926,10.53018c8.328,-0.10829 13.3895,-9.3754 11.9664,-17.21876c-1.7385,-9.58159 -6.8997,-15.35109 -10.8078,-21.29311c-4.4213,-6.15238 -10.3727,-15.0395 -12.2901,-19.31683c0,0 -6.0483,9.20452 -13.9172,20.02959c-5.2618,7.23851 -9.4731,15.08233 -9.8651,21.83538c-0.4479,7.71548 2.7193,14.63175 11.4891,15.82765l0,0.00005z" id="path8598"/>
    <path fill="#d40000" d="m98.742477,250.596765c7.144,0.4744 10.8684,-5.62741 11.5952,-10.43645c0.4334,-0.76389 0.6707,-0.54864 0.8369,0.0423c0.3493,6.17414 5.8749,11.22017 10.9926,10.53018c8.328,-0.10829 13.3895,-9.3754 11.9664,-17.21876c-1.7385,-9.58159 -6.8997,-15.35109 -10.8078,-21.29311c-4.4213,-6.15238 -10.3727,-15.0395 -12.2901,-19.31683c0,0 -6.0483,9.20452 -13.9172,20.02959c-5.2618,7.23851 -9.4731,15.08233 -9.8651,21.83538c-0.4479,7.71548 2.7193,14.63175 11.4891,15.82765l0,0.00005z" id="path8600"/>
    <path fill="#d40000" d="m43.026877,218.044045c7.144,0.4744 10.8684,-5.62741 11.5952,-10.43645c0.4334,-0.76389 0.6707,-0.54864 0.8369,0.0423c0.3493,6.17414 5.8749,11.22017 10.9926,10.53018c8.328,-0.10829 13.3895,-9.3754 11.9664,-17.21876c-1.7385,-9.58159 -6.8997,-15.35109 -10.8078,-21.29311c-4.4213,-6.15238 -10.3727,-15.0395 -12.2901,-19.31683c0,0 -6.0483,9.20452 -13.9172,20.02959c-5.2618,7.23851 -9.4731,15.08233 -9.8651,21.83538c-0.4479,7.71548 2.7193,14.63175 11.4891,15.82765l0,0.00005z" id="path8602"/>
    <path fill="#d40000" d="m43.026877,283.149485c7.144,0.4744 10.8684,-5.62741 11.5952,-10.43645c0.4334,-0.76389 0.6707,-0.54864 0.8369,0.0423c0.3493,6.17414 5.8749,11.22017 10.9926,10.53018c8.328,-0.10829 13.3895,-9.3754 11.9664,-17.21876c-1.7385,-9.58159 -6.8997,-15.35109 -10.8078,-21.29311c-4.4213,-6.15238 -10.3727,-15.0395 -12.2901,-19.31683c0,0 -6.0483,9.20452 -13.9172,20.02959c-5.2618,7.23851 -9.4731,15.08233 -9.8651,21.83538c-0.4479,7.71548 2.7193,14.63175 11.4891,15.82765l0,0.00005z" id="path8604"/>
    <path fill="#d40000" d="m197.339577,250.997175c-1.583,3.47229 -1.7567,9.4054 2.9711,10.20801c3.5621,0.45844 5.0117,-1.1983 5.2999,-3.74186c0.1422,-0.74302 0.5617,-0.7885 0.6948,0.0583c0.2044,2.60939 2.7872,4.1326 4.8064,3.74997c5.5266,-0.9454 5.2039,-7.02845 3.3985,-11.15554c-2.7309,-5.47946 -5.6006,-8.93761 -8.245,-14.45186c-3.0382,5.74101 -6.5073,10.4051 -8.9257,15.33294l0,0.00004z" id="path8660"/>
   </g>
  </g>
 </g>
</svg>