<?xml version="1.0" standalone="no"?><!-- Generator: Gravit.io --><svg xmlns="http://www.w3.org/2000/svg" xmlns:xlink="http://www.w3.org/1999/xlink" style="isolation:isolate" viewBox="0 0 224 312" width="224" height="312"><defs><clipPath id="_clipPath_MWjLtNpXzfFLvuYEJWPaEI5sWNznr6zP"><rect width="224" height="312"/></clipPath></defs><g clip-path="url(#_clipPath_MWjLtNpXzfFLvuYEJWPaEI5sWNznr6zP)"><g id="layer1"><g id="g3839"><g id="g3720"><path d="M 10.63 0 L 212.598 0 C 218.465 0 223.228 4.763 223.228 10.63 L 223.228 301.181 C 223.228 307.048 218.465 311.811 212.598 311.811 L 10.63 311.811 C 4.763 311.811 0 307.048 0 301.181 L 0 10.63 C 0 4.763 4.763 0 10.63 0 Z" style="stroke:none;fill:#FFFFFF;stroke-miterlimit:10;"/><path d="M 10.63 0 L 212.598 0 C 218.465 0 223.228 4.763 223.228 10.63 L 223.228 301.181 C 223.228 307.048 218.465 311.811 212.598 311.811 L 10.63 311.811 C 4.763 311.811 0 307.048 0 301.181 L 0 10.63 C 0 4.763 4.763 0 10.63 0 Z" style="fill:none;stroke:#000000;stroke-width:0.99673343;"/></g><g id="g3870"><g id="g3887"><g id="g3134"><path d=" M 140.26 26.421 C 140.26 26.421 165.554 62.981 174.132 69.47 C 174.763 69.766 185.339 67.746 185.339 67.746 C 179.918 54.769 176.431 41.343 179.949 26.291 L 140.26 26.421 Z  M 154.315 84.242 C 136.877 89.164 119.473 93.792 100.569 85.769 L 79.924 105.715 C 79.753 106.229 106.677 117.827 107.1 116.558 L 100.473 137.712 L 115.752 141.075 L 122.765 118.573 C 122.765 118.573 143.859 116.549 153.648 113.19 C 161.092 110.636 168.79 108.784 175.436 103.236 C 161.708 94.985 154.301 84.144 154.315 84.242 Z  M 49.433 90.14 C 42.824 86.084 37.659 94.431 42.498 98.599 C 41.929 101.034 41.736 104.658 44.092 106.25 C 46.256 107.618 50.294 106.199 50.876 106.214 C 50.918 106.215 50.981 110.596 50.645 110.585 C 50.019 110.564 47.655 108.551 46.198 108.114 C 41.272 106.637 34.343 105.909 34.466 106.163 C 34.671 106.589 33.239 107.599 38.735 111.051 C 40.777 112.333 47.228 110.889 52.365 112.509 C 55.495 113.497 58.572 115.138 60.272 114.321 C 62.42 113.423 64.926 110.588 65.735 108.278 C 65.962 105.756 52.845 111.213 53.642 111.302 L 53.601 106.218 C 58.887 106.8 63.658 102.969 58.463 96.401 C 62.332 92.556 56.92 83.391 49.433 90.14 L 49.433 90.14 Z  M 71.456 113.39 C 58.455 126.495 31.882 151.09 31.882 151.09 L 32.166 169.445 L 58.127 192.676 C 60.183 168.015 74.198 144.999 87.542 133.486 C 88.767 129.984 74.282 114.619 71.456 113.39 L 71.456 113.39 Z  M 164.081 117.924 C 162.122 133.087 160.342 153.766 134.617 176.752 C 139.075 184.343 144.749 192.07 152.914 195.757 C 153.494 197.062 176.516 171.935 190.679 160.055 L 190.604 143.963 L 164.081 117.924 Z  M 48.139 121.179 C 48.086 121.509 47.136 125.492 46.891 125.387 C 46.91 125.604 49.525 124.415 49.821 123.323 C 50.08 122.366 50.68 121.068 50.719 120.885 C 50.129 116.785 49.014 119.697 48.139 121.179 L 48.139 121.179 Z  M 38.509 131.78 C 37.574 134.037 36.7 138.182 37.022 140.88 C 41.628 143.185 42.88 133.596 41.641 132.679 C 40.899 132.366 39.141 131.758 38.509 131.78 L 38.509 131.78 Z  M 180.746 175.748 C 180.318 177.661 180.409 178.228 181.26 178.601 C 182.75 179.255 183.421 178.466 184.618 175.351 C 185.33 173.497 185.965 170.708 185.391 169.599 C 182.566 167.628 181.073 174.304 180.746 175.748 Z  M 111.092 171.255 C 110.188 171.263 109.318 171.337 108.513 171.521 C 100.911 173.26 101.486 186.544 100.196 191.84 C 76.315 195.248 69.999 196.87 63.455 199.559 C 53.281 203.738 50.059 206.289 47.366 208.393 C 49.058 208.194 67.314 225.217 68.256 227.62 C 67.094 224.326 103.574 216.306 123.003 224.36 C 125.386 225.214 143.538 206.744 142.965 204.683 C 145.321 200.558 120.085 195.924 116.903 193.347 C 114.291 179.293 134.532 171.595 120.515 172.004 C 117.964 172.078 114.32 171.229 111.092 171.255 L 111.092 171.255 Z  M 174.605 187.044 C 174.156 187.575 173.703 187.857 173.118 188.479 L 171.785 190.237 L 172.756 191.807 L 175.243 189.063 L 174.605 187.044 Z  M 156.799 204.719 C 159.419 203.537 168.719 199.028 169.119 200.071 L 168.922 204.584 C 167.499 204.118 158.316 205.636 163.627 215.115 C 160.282 222.645 167.735 226.529 172.956 221.55 C 183.899 225.304 182.434 214.355 180.176 212.586 C 181.956 209.822 179.719 203.937 178.606 203.917 C 178.606 203.917 188.155 206.069 187.221 204.369 C 186.795 203.593 186.262 202.255 184.14 200.839 C 181.694 199.206 177.397 199.798 173.92 199.071 C 170.202 198.293 167.808 196.963 164.684 196.776 C 159.968 197.206 155.566 201.345 156.799 204.719 L 156.799 204.719 Z  M 50.385 240.255 L 37.228 243.772 C 37.228 243.772 41.484 253.648 42.957 262.454 C 44.758 273.225 43.319 284.937 43.319 284.937 L 81.504 285.13 L 50.385 240.255 Z " fill="rgb(226,207,0)"/><path d=" M 205.713 301.217 C 200.686 299.471 200.583 296.308 200.411 292.276 C 200.113 286.16 200.167 279.724 201.044 274.742 C 201.38 273.227 201.561 272.452 200.049 271.917 C 199.214 271.629 198.38 271.745 197.546 271.617 L 197.546 267.847 C 199.13 267.762 200.601 267.766 201.939 268.557 C 202.542 268.924 203.212 269.33 203.212 269.33 C 205.182 267.468 210.356 267.19 212.814 269.491 C 214.445 271.134 214.971 272.509 215.077 276.211 C 215.155 278.941 215.077 279.127 215.077 279.127 L 217.913 279.111 L 217.913 282.779 L 215.077 282.779 C 215.077 282.779 215.14 284.602 215.077 288.554 C 215.028 291.63 214.968 293.641 214.754 295.104 C 213.788 300.209 209.242 302.368 205.713 301.217 L 205.713 301.217 Z  M 211.154 294.901 C 212.142 292.268 211.729 282.092 211.729 282.092 C 207.495 280.465 205.7 277.915 203.976 276.102 C 203.976 276.102 203.257 287.398 204.115 293.482 C 204.896 298.528 209.45 299.28 211.154 294.901 L 211.154 294.901 Z  M 211.178 277.788 C 211.408 277.822 211.672 277.837 211.707 277.739 C 212.031 276.825 211.467 272.999 210.511 272.232 C 207.936 270.165 205.582 272.232 205.658 272.325 C 206.873 273.976 208.3 275.79 210.14 277.221 C 210.488 277.513 210.784 277.729 211.178 277.788 L 211.178 277.788 Z  M 84.673 284.996 C 67.918 261.083 52.394 238.336 31.782 213.265 C 31.782 213.265 31.799 203.576 31.872 193.965 L 95.192 284.76 L 84.673 284.996 Z  M 143.327 253.752 C 151.628 244.743 157.915 235.142 163.497 225.334 C 169.858 236.631 177.221 245.834 185.351 253.433 C 177.38 261.49 170.149 270.709 164.424 282.296 C 159.77 273.442 153.734 264.204 143.327 253.752 L 143.327 253.752 Z  M 198.421 250.855 C 201.962 247.145 205.01 242.99 207.874 238.603 C 211.056 243.116 212.975 246.492 217.25 251.252 C 213.579 255.142 210.491 259.049 207.976 263.301 C 204.947 258.475 201.79 253.985 198.421 250.855 L 198.421 250.855 Z  M 118.591 246.386 C 118.052 241.844 117.127 236.409 115.796 231.731 L 127.358 220.83 C 126.11 230.571 124.195 238.044 118.591 246.386 L 118.591 246.386 Z  M 173.846 212.028 C 176.434 215.465 172.067 217.373 170.419 215.843 C 167.076 212.742 171.972 209.539 173.846 212.028 Z  M 59.211 190.386 C 57.293 191.615 62.659 160.418 77.388 144.295 C 86.347 169.957 70.54 184.345 59.211 190.386 Z  M 131.877 190.271 L 122.095 187.63 L 126.966 173.949 C 126.966 173.949 136.151 176.101 135.367 178.942 C 132.817 188.19 131.877 190.271 131.877 190.271 L 131.877 190.271 Z  M 86.592 185.012 C 89.241 180.657 91.252 175.855 93.103 170.942 L 107.013 169.015 L 98.951 184.65 L 86.592 185.012 Z  M 145.55 165.813 C 137.979 150.739 146.898 126.878 163.372 120.311 C 162.778 135.598 158.035 151.083 145.55 165.813 Z  M 94.664 161.53 C 94.997 156.176 94.384 150.565 93.643 145.592 L 128.077 150.182 L 129.28 164.614 L 94.664 161.53 Z  M 119.862 138.601 C 121.029 134.01 122.066 130.189 124.319 126.468 C 126.826 126.548 136.995 124.876 135.698 126.851 C 132.934 130.387 131.611 136.128 129.801 139.739 C 127.901 139.537 119.293 141.02 119.862 138.601 Z  M 97.054 135.97 C 93.572 134.742 88.81 134.398 86.959 131.705 L 90.581 120.227 L 101.309 123.518 L 97.054 135.97 Z  M 127.162 26.448 L 135.57 26.368 C 135.57 26.368 175.968 78.058 191.109 98.174 C 190.605 100.221 191.278 117.573 191.278 117.573 C 169.832 87.391 127.162 26.448 127.162 26.448 L 127.162 26.448 Z  M 49.692 98.571 C 47.433 96.146 51.026 93.997 52.52 96.164 C 53.835 98.073 50.884 99.85 49.692 98.571 Z  M 95.021 90.096 C 95.152 78.117 103.646 63.901 103.558 64.265 C 103.46 64.241 104.769 75.975 106.401 79.667 C 105.961 80.318 95.423 90.847 95.021 90.096 L 95.021 90.096 Z  M 58.838 86.121 C 52.252 73.531 44.338 63.99 37.446 57.307 C 46.03 49.188 52.466 39.16 59.07 29.28 C 64.521 39.643 71.608 49.114 79.556 58.116 C 71.584 65.945 64.05 77.037 58.838 86.121 L 58.838 86.121 Z  M 5.863 60.563 C 9.72 56.715 15.42 47.963 15.364 47.952 C 18.077 52.382 20.936 56.968 24.872 60.629 C 24.83 60.59 18.771 67.102 15.642 73.225 C 12.85 68.123 9.164 63.681 5.863 60.563 L 5.863 60.563 Z  M 5.315 32.716 L 5.315 29.006 L 8.09 29.006 C 8.09 29.006 8.058 29.308 8.08 24.25 C 8.111 17.174 8.464 15.001 9.879 13.194 C 13.689 8.327 20.679 9.82 22.515 15.893 C 22.655 16.355 22.97 17.525 23.002 19.073 C 23.084 23.099 23.091 29.781 22.958 33.953 C 23.025 35.588 22.442 37.721 22.022 38.086 C 22.224 39.571 24.562 39.871 26.028 39.755 L 26.028 43.636 C 26.035 43.615 24.541 43.778 22.779 43.636 C 22.037 43.576 20.324 42.164 20.324 42.164 C 20.324 42.164 17.614 44.027 15.179 43.976 C 7.212 43.812 8.096 33.867 8.12 32.731 L 5.315 32.716 Z  M 11.697 33.694 C 11.697 33.694 11.704 35.091 11.789 36.025 C 12.07 39.108 14.081 40.706 16.087 40.157 C 17.087 39.846 17.675 39.243 17.675 39.243 C 15.969 36.712 13.941 34.585 11.697 33.694 L 11.697 33.694 Z  M 19.101 18.262 C 18.249 13.612 13.87 12.9 12.22 16.834 C 11.923 17.543 11.674 23.148 11.674 23.148 L 11.709 29.769 C 15.262 30.55 17.222 32.829 19.441 35.416 C 19.441 35.416 19.887 23.516 19.101 18.262 L 19.101 18.262 Z " fill="rgb(212,0,0)"/><path d=" M 30.21 24.254 L 29.894 286.334 L 192.962 286.365 L 192.907 24.678 L 30.21 24.254 Z  M 179.232 26.305 C 177.908 40.806 177.676 52.17 185.2 67.21 C 183.841 68.635 173.602 69.039 170.376 70.727 C 170.317 71.132 171.204 71.833 171.204 71.833 C 174.58 70.266 187.742 68.837 187.742 68.837 C 182.23 59.229 177.695 40.749 181.109 26.576 L 190.609 26.606 L 190.549 96.435 C 190.549 96.435 191.296 109.914 191.578 117.508 C 186.519 110.971 179.812 101.841 175.431 95.064 C 170.117 87.588 164.201 78.818 158.126 70.591 C 156.335 67.998 153.781 64.635 151.697 61.607 C 148.426 56.93 145.72 53.301 142.327 48.267 C 138.704 43.054 135.23 38.323 130.924 32.27 C 127.273 27.118 127.103 26.508 127.103 26.508 L 179.232 26.305 Z  M 116.84 26.576 C 122.998 37.278 134.022 40.902 136.795 41.624 L 138.408 43.98 C 125.411 41.433 118.451 33.09 115.183 27.93 C 114.929 27.529 114.957 26.606 114.957 26.606 L 116.84 26.576 Z  M 110.744 26.576 C 109.041 30.617 106.657 32.939 104.397 35.387 L 104.475 32.787 C 104.545 32.95 107.858 29.274 108.999 26.576 L 110.744 26.576 Z  M 113.726 26.576 C 113.726 26.576 113.776 27.266 113.57 27.834 C 112.265 32.047 104.162 40.045 104.395 38.847 L 104.313 36.784 C 104.277 36.872 110.4 30.954 112.003 26.576 L 113.726 26.576 Z  M 107.834 26.576 C 107.202 27.752 104.846 31.305 104.633 30.321 L 104.843 26.576 L 107.834 26.576 Z  M 126.346 26.576 C 127.367 28.054 128.294 29.135 129.368 30.646 C 129.568 30.934 129.689 31.275 129.638 31.404 C 129.475 31.824 128.99 31.512 127.649 30.324 C 125.449 28.374 123.952 26.576 123.952 26.576 L 126.346 26.576 Z  M 118.151 26.576 L 120.141 26.581 C 124.263 33.426 131.658 37.068 134.217 37.865 C 134.9 38.617 135.636 39.994 135.922 40.298 C 129.02 38.429 121.288 32.593 118.151 26.576 L 118.151 26.576 Z  M 122.99 26.547 C 125.186 29.714 128.625 31.935 130.563 33.451 C 131.605 34.268 132.98 35.935 132.852 36.267 C 128.537 34.903 123.49 30.12 121.174 26.576 L 122.99 26.547 Z  M 114.531 28.507 L 115.73 30.416 C 112.825 35.207 109.181 39.524 104.321 42.926 L 104.294 40.424 C 109.809 36.452 112.192 32.461 114.531 28.507 L 114.531 28.507 Z  M 116.476 31.274 C 119.941 35.941 127.407 43.163 139.38 45.322 C 139.38 45.322 140.06 45.936 141.052 47.286 C 142.31 48.999 142.33 49.067 142.496 51.875 C 142.608 57.013 144.277 63.986 145.935 68.374 C 145.73 69.464 145.538 70.02 143.482 72.798 C 134.911 84.373 116.653 95.322 107.658 80.379 C 104.658 75.591 104.366 66.413 104.176 60.689 C 104.176 60.689 104.232 60.287 104.255 60.178 C 104.472 59.139 104.768 59.302 106.392 59.747 C 108.039 60.454 109.753 59.883 111.495 59.409 C 113.478 58.608 113.643 59.226 111.73 61.011 C 111.069 61.629 110.259 62.572 110.344 62.527 C 110.429 62.482 111.542 62.027 112.034 61.653 C 113.563 60.489 113.924 60.935 113.357 62.216 C 110.954 67.648 110.528 67.864 113.908 69.373 C 114.613 69.688 115.094 70.039 115.489 70.384 C 117.8 72.559 116.97 71.388 116.324 70.389 C 115.33 68.826 116.229 68 117.907 68.968 C 119.029 69.614 120.502 70.136 121.304 69.889 C 122.859 69.383 123.334 67.679 122.872 65.804 C 122.503 64.767 120.378 62.936 120.868 64.853 C 122.145 64.795 123.248 66.607 122.138 67.833 C 121.301 68.962 119.807 68.352 117.516 66.838 C 116.25 65.886 114.713 66.373 114.773 67.543 C 114.813 68.329 113.7 68.148 112.977 67.147 C 112.575 66.591 112.848 64.99 113.602 63.474 C 118.352 53.925 114.347 44.666 106.122 47.277 C 105.218 47.564 104.402 47.797 104.402 47.797 L 104.358 44.144 C 109.08 40.853 114.09 35.605 116.476 31.274 L 116.476 31.274 Z  M 121.278 48.416 C 120.038 49.913 120.478 51.246 123.201 49.904 C 125.418 48.811 125.725 48.683 128.142 48.595 C 131.571 48.471 134.649 49.562 138.458 51.899 C 140.983 53.448 141.351 53.565 140.666 52.594 C 138.626 48.692 126.573 42.767 121.278 48.416 Z  M 109.632 48.863 C 112.012 49.463 114.296 51.035 113.898 51.686 C 113.755 51.921 113.617 51.965 113.314 51.807 C 111.573 50.947 108.797 49.54 104.784 51.256 C 104.342 51.446 104.096 51.152 104.098 50.619 C 104.102 49.584 105.845 48.757 107.686 48.69 C 108.342 48.689 109.056 48.723 109.632 48.863 Z  M 123.459 51.89 C 122.04 52.628 121.553 53.02 120.95 52.691 C 119.51 51.904 119.814 52.521 120.709 54.106 C 121.34 55.224 121.333 55.454 121.24 56.139 C 121.138 56.884 121.153 56.913 121.877 57.709 C 123.231 59.489 124.579 61.205 126.606 62.555 C 127.238 62.976 128.083 63.455 128.147 63.457 C 128.348 63.463 128.271 63.302 127.91 62.95 C 125.313 60.452 123.266 58.214 125.91 59.165 C 128.988 60.168 131.916 58.918 134.317 58.101 C 135.296 57.799 136.325 57.545 136.58 57.545 C 138.797 57.547 139.321 56.624 137.903 55.217 C 133.106 49.838 129.126 48.572 123.459 51.89 Z  M 134.841 52.899 C 135.833 53.814 136.355 54.312 136.256 54.55 C 136.15 54.806 135.386 54.373 134.107 53.691 C 131.533 52.318 128.615 51.996 124.968 53.048 C 122.138 53.866 122.973 52.568 126.128 51.348 C 128.653 50.184 132.138 50.532 134.841 52.899 Z  M 108.408 51.046 C 110.57 51.011 112.822 51.721 114.328 53.019 C 115.379 53.925 114.611 54.136 112.903 53.43 C 110.321 52.362 108.145 52.192 106.026 53.184 C 105.36 53.495 104.593 53.866 104.383 53.845 C 104.029 53.606 103.879 52.909 104.185 52.416 C 105.037 51.58 106.726 51.073 108.408 51.046 Z  M 144.047 51.788 C 144.205 51.795 144.445 52.047 144.8 52.546 C 145.447 53.454 145.471 53.902 144.935 55.492 C 144.281 57.433 144.018 57.119 143.853 54.41 C 143.747 52.653 143.744 51.775 144.047 51.788 Z  M 146.191 54.715 C 146.438 54.68 146.726 55.115 147.186 56.014 C 147.507 56.641 147.431 56.829 146.428 59.767 C 146.008 60.996 145.613 61.975 145.602 61.984 C 145.293 62.227 145.333 62.205 145.201 62.037 C 144.485 61.122 144.537 59.339 145.153 57.202 C 145.62 55.582 145.874 54.76 146.191 54.715 L 146.191 54.715 Z  M 126.707 54.937 C 126.785 54.93 127.265 55.035 127.265 55.035 C 127.215 59.386 130.58 58.51 131.025 55.42 C 131.025 55.42 131.855 55.334 131.982 55.54 C 132.381 56.187 131.455 58.049 130.07 58.658 C 129.059 59.109 127.686 58.999 126.865 58.244 C 126.635 57.818 125.94 56.201 126.07 55.531 C 126.231 55.139 126.473 54.957 126.707 54.937 L 126.707 54.937 Z  M 124.702 55.445 C 124.737 55.443 124.769 55.443 124.804 55.445 C 125.134 55.462 125.374 55.551 125.505 55.951 L 126.225 58.161 C 125.695 58.795 123.679 57.511 123.683 56.546 C 123.686 55.881 124.186 55.471 124.702 55.445 Z  M 111.021 55.441 C 111.529 55.391 111.709 55.448 111.768 55.923 C 111.94 57.359 110.503 58.92 108.64 59.004 C 106.837 59.206 105.864 57.807 105.919 56.444 C 105.924 55.407 106.815 55.277 106.914 56.097 C 107.2 58.463 109.222 58.599 110.146 57.292 C 110.495 56.78 110.415 55.519 111.021 55.441 Z  M 133.16 55.922 C 133.304 55.916 133.495 55.97 133.778 56.067 C 135.638 56.661 135.688 56.948 134.097 57.521 C 132.2 58.204 132.077 58.294 132.522 56.97 C 132.771 56.232 132.844 55.935 133.16 55.922 Z  M 113.448 56.131 C 114.826 56.216 114.942 57.383 113.729 57.772 C 111.924 58.569 111.316 58.517 112.015 57.341 C 112.394 56.509 112.734 56.147 113.448 56.131 L 113.448 56.131 Z  M 104.823 56.55 C 104.988 56.548 105.176 56.612 105.378 56.763 C 105.586 57.388 105.937 57.869 106.214 58.516 C 105.931 58.797 105.256 58.792 104.825 58.451 C 103.962 57.766 104.11 56.557 104.823 56.55 L 104.823 56.55 Z  M 148.167 57.898 C 148.702 57.901 149.246 58.749 149.424 59.381 C 147.553 61.784 147.848 66.27 147.413 67.625 C 147.036 68.727 146.914 67.775 145.873 64.921 C 145.453 63.768 147.571 58.039 148.06 57.912 C 148.095 57.903 148.131 57.897 148.167 57.898 L 148.167 57.898 Z  M 150.079 60.361 C 150.496 60.598 151.061 61.144 151.161 62.003 C 151.219 62.501 150.972 63.164 150.813 63.819 C 150.436 65.377 149.925 68.32 149.741 71.04 C 149.663 72.197 149.667 73.238 149.615 73.339 C 149.053 74.442 147.866 71.474 147.968 69.112 C 148.336 67.226 148.542 60.62 150.079 60.361 Z  M 152.721 63.751 C 152.985 64.119 153.153 64.4 153.234 64.716 C 153.376 65.267 153.257 65.924 152.934 67.326 C 152.075 71.04 152.2 75.044 152.76 79.154 C 152.878 80.019 152.277 79.586 151.369 78.096 C 150.865 77.27 150.543 76.139 150.388 74.802 C 150.072 71.881 150.682 67.92 151.201 64.795 C 151.431 63.412 151.591 62.194 152.721 63.751 L 152.721 63.751 Z  M 154.146 66.012 L 155.648 67.823 C 155.648 67.823 155.007 71.987 155.01 74.208 C 154.906 75.04 155.757 84.088 156.034 84.819 C 155.111 83.785 154.68 83.177 153.668 81.878 C 153.553 81.897 152.676 72.964 153.281 69.547 C 153.647 67.481 154.146 66.012 154.146 66.012 L 154.146 66.012 Z  M 156.503 69.61 C 156.755 69.601 157.076 69.885 157.479 70.45 C 157.842 70.961 158.019 71.38 158.039 72.015 C 158.053 72.479 157.824 72.836 157.817 73.662 C 157.774 78.584 158.439 83.229 159.276 87.707 C 159.572 89.309 158.997 88.655 158.047 87.642 C 157.176 86.714 157.16 86.361 156.695 85.041 C 156.602 84.778 155.675 75.702 155.683 75.016 C 155.715 72.196 155.796 70.625 156.121 69.948 C 156.228 69.727 156.352 69.616 156.503 69.61 L 156.503 69.61 Z  M 151.044 79.499 C 151.044 79.499 149.295 80.399 148.837 80.083 C 148.099 78.07 145.434 72.679 145.388 71.724 C 145.436 71.41 146.48 69.992 146.48 69.992 C 147.953 73.185 149.278 76.453 151.044 79.499 Z  M 118.133 73.025 C 117.605 73.644 116.977 73.386 115.705 72.827 C 115.053 72.627 115.154 72.895 114.077 73.455 C 113.242 73.889 112.948 73.9 112.395 73.895 C 111.665 73.889 111.402 73.633 111.4 74.147 C 111.399 74.43 111.356 75.714 111.184 76.377 C 110.949 77.28 110.744 77.678 110.873 77.835 C 111.245 78.175 111.556 77.967 112.339 77.211 C 113.637 75.957 114.513 76.316 115.959 76.783 C 117.604 77.313 117.945 77.509 119.449 76.983 C 121.581 76.238 122.864 76.237 123.713 76.778 C 125.175 77.709 125.617 77.654 125.014 75.108 C 124.82 74.287 124.806 73.013 124.687 72.793 C 124.551 72.543 124.179 73.256 123.79 73.518 C 123.046 74.018 122.661 74.009 120.984 73.46 C 119.99 73.134 118.876 72.069 118.133 73.025 L 118.133 73.025 Z  M 145.11 73.357 C 145.759 74.886 148.343 79.998 148.265 80.569 C 147.761 81.021 147.088 81.35 146.689 80.946 C 145.397 78.589 145.01 77.318 143.96 74.673 C 143.647 74.041 144.584 72.429 145.11 73.357 Z  M 158.986 73.169 C 159.169 73.144 159.551 73.524 159.836 73.904 C 160.72 75.087 160.774 75.234 160.802 76.502 C 160.903 81.101 161.481 86.514 162.777 90.688 C 163.032 91.509 163.515 92.508 163.463 92.644 C 163.028 93.277 161.014 91.581 160.405 89.002 C 159.567 85.727 159.076 82.31 158.809 80.085 C 158.472 76.173 158.474 73.373 158.986 73.169 L 158.986 73.169 Z  M 143.486 75.705 C 144.231 77.141 145.168 79.617 145.8 81.103 C 146.087 81.748 144.616 82.257 144.277 82.037 C 143.689 81.598 143.411 80.363 143.025 79.622 C 141.797 76.937 141.576 76.881 142.257 76.044 C 142.676 75.463 143.176 74.75 143.486 75.705 Z  M 161.903 77.352 C 162.011 77.352 162.151 77.458 162.328 77.686 C 163.104 78.603 163.632 79.305 163.835 79.985 C 163.982 80.478 163.864 80.848 163.917 81.743 C 164.056 84.085 164.671 87.283 166.414 93.827 C 166.584 94.465 166.815 95.221 166.786 95.426 C 166.617 96.627 164.855 94.68 164.342 92.668 C 163.747 90.384 162.662 87.468 162.342 84.771 C 161.684 80.491 161.319 77.352 161.903 77.352 L 161.903 77.352 Z  M 141.934 79.083 C 143.4 82.502 143.515 82.496 142.593 82.767 C 141.617 83.053 141.559 82.959 140.413 80.631 C 139.577 78.931 139.412 78.718 140.115 78.106 C 141.188 76.841 141.47 78.047 141.934 79.083 L 141.934 79.083 Z  M 121.525 78.267 C 121.358 78.27 120.867 78.643 120.374 78.838 C 119.163 79.317 117.013 79.35 115.703 78.955 C 113.381 78.023 114.035 79.234 116.089 79.97 C 117.683 80.506 120.84 80.091 121.329 79.097 C 121.63 78.78 121.739 78.263 121.525 78.267 L 121.525 78.267 Z  M 139.181 80.065 C 140.489 82.087 140.882 82.894 140.661 83.052 C 140.452 83.261 139.416 83.652 138.99 83.443 C 138.455 83.181 137.989 81.933 137.755 80.954 C 137.918 80.476 138.778 79.618 139.181 80.065 Z  M 106.412 80.917 C 106.997 80.919 108.517 82.963 108.209 83.332 C 108.123 83.521 107.553 83.341 106.221 82.972 C 105.776 82.808 104.771 82.677 105.089 82.032 C 105.247 81.739 106.179 80.916 106.412 80.917 L 106.412 80.917 Z  M 137.777 83.718 C 137.647 84.068 136.66 84.15 136.241 84.124 C 135.881 83.374 135.786 83.017 135.686 82.52 C 135.822 82.223 136.498 81.451 136.831 81.603 C 137.031 81.781 137.676 83.349 137.777 83.718 L 137.777 83.718 Z  M 164.994 81.748 C 165.203 81.755 165.564 82.121 166.1 82.887 C 167.114 84.337 166.976 84.231 167.703 87.693 C 168.529 91.619 169.517 94.415 170.514 98.425 C 170.528 99.091 170.259 98.914 169.52 98.464 C 168.312 97.729 167.915 96.912 167.534 94.784 C 166.885 91.268 165.515 88.016 164.989 83.863 C 164.711 82.49 164.689 81.737 164.994 81.748 L 164.994 81.748 Z  M 134.57 83.15 C 135.282 83.126 135.186 84.224 134.982 84.402 C 134.461 84.856 133.025 84.721 132.779 84.746 C 132.227 83.881 134.105 83.18 134.57 83.15 L 134.57 83.15 Z  M 168.616 86.887 C 168.826 86.916 169.389 87.71 170.442 89.191 C 171.454 90.613 171.232 90.38 171.838 92.721 C 172.695 95.956 174.113 98.289 174.943 101.265 C 174.942 101.606 174.531 101.562 174.137 101.401 C 173.37 101.079 172.685 100.536 172.036 100.005 C 171.592 99.525 171.595 98.915 170.283 94.402 C 169.809 92.774 169.686 92.35 169.094 89.876 C 168.6 87.808 168.379 86.854 168.616 86.887 L 168.616 86.887 Z  M 58.899 96.55 C 62.34 102.882 61.066 105.69 53.665 106.567 C 53.13 106.492 53.635 109.81 53.62 111.294 C 57.328 109.172 61.812 108.677 65.945 107.345 C 64.82 110.948 62.844 115.031 56.862 114.403 C 50.609 109.571 43.249 112.474 38.256 110.512 C 35.54 109.5 34.503 106.484 34.471 105.966 C 37.728 106.293 41.405 106.99 44.561 106.762 C 41.114 104.106 42.122 100.431 42.608 98.751 C 38.574 93.664 41.942 87.942 47.801 89.273 C 48.407 89.41 49.602 89.999 49.602 89.999 C 55.255 84.939 61.806 89.693 58.899 96.55 L 58.899 96.55 Z  M 173.258 93.47 C 173.492 93.448 174.009 94.059 175.045 95.508 C 178.118 99.808 180.78 103.808 180.739 104.033 C 180.607 104.773 177.404 103.476 176.595 102.415 C 175.675 101.206 173.085 94.985 173.089 93.996 C 173.09 93.666 173.135 93.481 173.258 93.47 Z  M 48.086 111.886 C 49.685 112.121 50.131 112.256 50.115 112.881 C 50.251 113.412 46.235 113.483 45.69 113.089 C 45.256 112.774 45.816 112.085 46.246 111.92 C 46.868 111.733 47.484 111.798 48.086 111.886 Z  M 158.807 112.456 C 136.367 123.055 127.187 151.244 138.513 172.847 L 136.954 173.973 C 125.849 151.133 134.11 126.658 152.153 114.297 C 152.884 113.778 154.5 113.377 155.251 112.879 C 155.251 112.879 147.891 114.558 145.399 115.533 C 144.894 115.516 143.409 116.039 141.814 117.769 C 140.419 119.061 136.059 125.072 136.199 125.281 L 124.614 125.747 L 124.624 126.175 L 135.994 125.913 C 124.285 145.191 127.162 163.534 134.392 176.371 L 134.57 176.491 C 134.991 176.774 136.097 175.965 138.391 173.791 C 139.336 172.896 140.526 171.784 141.038 171.318 C 142.455 170.019 144.475 167.778 145.863 166.16 C 137.989 150.113 145.756 128.978 164.18 119.454 C 164.211 118.947 163.983 117.399 163.983 117.399 C 163.983 117.399 163.287 116.773 162.876 116.838 C 142.35 125.879 134.127 148.331 142.472 168.748 L 141.096 170.246 C 130.609 149.103 141.866 122.676 161.492 115.189 C 161.483 114.712 161.058 114.102 160.53 114.469 C 139.342 124.306 130.108 149.427 140.487 170.84 L 139.179 171.995 C 127.371 148.55 139.813 122.278 159.319 113.301 C 159.894 113.168 158.807 112.456 158.807 112.456 L 158.807 112.456 Z  M 44.597 112.675 C 44.597 112.675 44.448 113.923 44.889 114.349 C 45.091 115.24 44.767 115.144 44.01 114.963 C 42.144 114.518 43.599 115.579 45.125 116.436 C 46.629 117.28 46.427 117.251 45.116 118.083 C 44.234 118.642 44.326 118.852 44.444 119.276 C 44.62 119.906 44.741 119.486 45.106 119.15 C 45.873 118.445 46.487 118.269 47.168 118.271 C 48.193 118.275 48.296 119.095 48.115 119.735 C 47.708 121.077 46.326 121.006 45.193 120.672 C 43.34 120.126 40.312 116.911 40.359 115.018 C 40.23 113.323 42.55 112.597 44.597 112.675 Z  M 52.93 113.089 C 53.649 113.353 54.553 113.706 55.548 114.122 C 56.922 114.559 58.315 115.27 59.212 115.868 C 61.946 117.691 61.779 121.336 61.582 121.698 L 47.457 135.085 C 47.457 135.085 46.659 134.695 45.908 134.311 C 43.533 133.1 42.962 132.461 44.28 131.79 C 44.92 131.465 45.126 130.765 45.217 130.08 C 45.34 129.163 45.292 129.32 45.84 128.902 C 46.795 128.175 46.84 127.874 46.845 126.666 C 46.848 125.866 46.93 125.497 47.222 124.995 C 47.453 124.596 47.696 123.763 47.859 122.807 C 47.886 122.65 47.894 122.257 47.924 122.119 C 48.091 121.371 48.328 121.151 48.487 120.981 C 48.645 120.812 48.899 120.235 49.076 119.735 C 49.47 118.62 49.396 118.785 50.033 118.909 C 50.957 119.088 50.824 119.628 50.723 120.483 C 50.674 120.899 50.397 121.19 50.491 121.097 C 50.618 120.972 51.185 120.703 51.303 120.677 C 51.599 120.609 51.893 120.711 51.969 121.174 C 52.012 121.432 51.899 121.908 51.907 122.275 C 51.925 123.228 51.964 124.369 52.182 125.12 C 53.23 128.74 53.022 128.238 52.665 125.226 C 52.579 124.505 52.479 123.447 52.583 122.565 C 52.656 121.944 52.834 121.174 53.075 120.754 C 53.695 119.674 53.729 119.46 52.385 118.928 C 51.885 118.731 51.034 118.385 50.858 118.04 C 50.643 117.617 50.002 117.043 49.168 116.847 C 47.139 116.369 45.958 114.409 46.251 114.118 C 46.443 113.927 47.26 114.177 47.777 114.195 C 49.629 114.261 50.023 114.166 50.844 113.461 C 51.281 113.085 51.477 112.752 51.825 112.727 C 52.192 112.72 52.66 112.993 52.93 113.089 L 52.93 113.089 Z  M 149.076 115.258 C 130.1 130.61 126.774 155.444 136.241 174.608 L 134.603 175.895 C 122.706 153.416 130.697 129.167 145.313 115.906 L 149.076 115.258 Z  M 39.523 117.088 C 39.858 117.057 40.224 117.548 41.556 118.972 C 42.453 119.931 43.388 120.764 43.879 121.044 C 44.994 121.577 44.75 121.355 43.821 122.237 C 42.872 123.326 43.396 124.222 42.261 123.676 C 39.309 122.29 37.235 118.207 39.156 117.223 C 39.3 117.149 39.411 117.098 39.523 117.088 Z  M 38.054 121.382 C 38.126 121.376 38.204 121.387 38.281 121.406 C 38.646 121.495 39.087 122.179 39.561 122.657 C 40.874 123.978 41.483 124.564 42.532 125.028 C 43.563 125.484 43.591 125.595 42.865 126.4 C 42.601 126.693 42.444 127.045 42.382 127.24 C 42.32 127.436 42.304 127.686 42.083 127.728 C 40.933 127.949 37.113 125.632 36.963 124.033 C 37.086 122.538 37.464 121.427 38.054 121.382 Z  M 46.149 121.826 C 46.812 121.809 47.201 122.4 47.197 123.357 C 47.195 124.021 46.821 124.29 46.062 124.574 C 44.44 125.182 43.44 124.021 44.575 122.739 C 45.052 122.2 45.696 121.838 46.149 121.826 Z  M 45.159 125.724 C 46.383 125.729 46.738 126.761 45.84 127.651 C 44.997 128.487 43.296 128.491 43.3 127.574 C 43.302 126.854 44.38 125.721 45.159 125.724 Z  M 37.571 126.959 C 38.399 127.203 40.414 128.655 41.301 128.826 C 41.347 129.316 40.758 129.449 41.595 130.37 C 41.975 130.788 42.007 131.073 41.677 131.249 C 40.666 131.788 37.164 130.085 36.929 128.332 C 36.815 127.476 37.099 126.989 37.571 126.959 L 37.571 126.959 Z  M 42.14 129.057 C 43.345 129.107 44.709 129.142 44.565 129.718 C 44.461 130.136 44.03 131.238 43.478 131.032 C 43.21 130.932 42.95 130.665 42.764 130.486 C 42.121 129.869 41.95 129.049 42.14 129.057 Z  M 87.708 134.045 C 91.218 137.223 103.97 170.419 77.396 194.603 L 71.757 196.293 C 97.271 176.259 93.026 147.818 86.142 135.548 C 86.143 135.188 86.042 135.229 85.407 135.804 C 84.851 136.307 84.792 136.416 85.016 136.509 C 92.797 148.482 95.705 182.299 65.049 198.617 C 64.534 199.151 65.575 199.07 65.575 199.07 C 65.63 198.63 79.379 195.29 78.409 195.205 C 91.223 183.878 102.381 156.863 88.492 133.317 C 88.156 133.096 87.708 134.045 87.708 134.045 L 87.708 134.045 Z  M 83.282 137.803 L 83.103 138.552 C 94.225 160.388 83.608 187.141 62.933 197.042 C 63.274 197.292 63.651 197.464 64.031 197.642 C 87.486 185.013 94.249 158.283 84.017 137.58 L 83.282 137.803 Z  M 81.422 139.352 L 81.293 140.144 C 90.5 158.729 83.19 184.518 61.214 194.98 C 61.006 196.105 61.218 195.776 62.246 195.723 C 87.673 182.086 90.064 156.155 82.108 139.315 L 81.422 139.352 Z  M 79.843 141.58 C 79.125 142.53 77.81 143.021 77.373 144.243 C 84.76 163.767 75.213 182.561 59.05 190.482 C 59.037 191.465 58.332 193.896 60.043 193.508 C 80.012 184.462 88.699 160.419 79.969 141.493 C 79.969 141.493 79.855 141.576 79.843 141.58 L 79.843 141.58 Z  M 180.142 179.329 C 180.877 179.38 181.536 179.603 182.218 179.692 C 184.698 180.013 186.308 181.822 185.199 182.922 C 184.835 183.283 184.326 183.075 182.715 182.287 C 181.974 181.925 181.856 181.585 181.703 180.769 C 181.519 179.79 181.323 179.691 181.075 180.45 C 180.823 181.218 180.552 181.694 179.706 181.5 C 177.328 180.947 178.227 179.31 180.142 179.329 L 180.142 179.329 Z  M 153.61 195.951 C 147.654 192.571 140.299 186.476 136.094 179.551 C 134.004 183.473 131.548 190.611 131.548 190.611 L 122.199 188 L 122.089 188.195 L 131.329 190.857 L 130.428 193.94 C 130.331 194.274 128.9 197.783 128.9 197.783 L 143.332 204.517 C 142.438 205.917 141.462 206.821 140.223 208.126 C 139.522 208.862 139.502 209.816 139.502 209.816 L 159.512 190.73 C 159.512 190.73 162.093 194.558 163.053 195.426 C 163.954 196.24 164.233 196.437 163.183 196.68 C 158.482 197.369 154.833 200.929 156.105 205.704 C 156.31 206.235 156.725 206.039 157.616 205.479 C 160.738 202.652 168.367 200.035 168.628 200.7 L 168.658 203.74 C 160.444 203.859 161.286 209.898 161.887 213.136 C 161.887 213.206 159.512 215.283 159.512 215.283 C 160.352 215.723 161.174 216.179 161.951 216.722 C 161.229 220.75 164.661 226.589 171.403 223.6 C 171.986 224.198 172.537 224.799 173.179 225.549 C 173.869 224.75 174.665 222.869 174.665 222.869 C 178.014 224.384 184.963 220.992 181.408 213.222 L 183.368 211.354 L 181.486 210.167 C 181.437 208.192 181.131 206.427 179.951 204.706 C 179.951 204.706 183.113 205.512 185.453 205.647 L 185.453 205.647 C 186.897 205.778 188.115 205.815 187.994 204.941 C 187.958 204.684 187.742 203.427 187.601 203.015 C 186.903 200.98 183.284 199.486 179.769 199.288 C 179.195 199.256 178.578 199.274 178.455 199.125 C 178.225 198.846 178.637 198.45 179.015 198.515 C 180.94 198.85 182.792 197.427 183.125 195.617 C 183.192 195.3 183.585 194.719 184.149 194.101 C 185.151 193.004 185.23 193.033 185.211 191.449 C 185.198 190.349 185.391 190.105 185.898 189.368 C 186.553 188.316 186.857 186.945 186.528 185.526 C 186.423 185.076 185.997 184.44 186.36 183.32 C 186.95 181.497 185.654 179.83 183.953 178.881 C 183.817 178.842 183.858 178.975 183.745 179.11 C 182.202 179.59 180.323 178.485 180.323 178.485 C 179.936 178.294 181.637 168.407 185.163 169.291 C 185.749 169.646 185.997 171.364 185.952 171.395 C 186.115 171.391 186.202 170.384 185.974 169.711 C 185.735 169.007 185.188 168.335 184.137 168.533 C 183.321 168.687 182.38 169.77 181.954 170.312 C 180.307 172.411 180.289 173.751 179.739 175.984 C 179.474 177.039 179.445 176.978 177.985 175.837 C 176.936 175.017 176.428 174.756 176.793 174.275 C 176.957 174.059 177.636 173.377 177.636 173.377 L 190.398 161.097 L 190.398 284.072 L 118.23 284.072 L 118.735 268.269 C 120.089 257.157 117.707 233.822 115.904 231.627 C 117.294 230.065 121.608 226.299 121.371 226.13 L 120.799 225.791 L 118.518 227.889 L 112.885 226.183 C 110.482 224.524 108.03 222.99 105.486 222.337 C 101.333 221.27 93.333 224.668 93.326 224.703 C 80.546 225.649 70.311 230.839 70.454 230.799 C 69.898 230.288 69.161 228.657 69.142 228.666 C 62.554 219.498 56.077 214.363 47.229 208.097 L 58.437 201.906 L 31.879 174.158 L 31.645 151.627 L 70.117 114.847 C 70.344 114.212 82.391 123.356 86.877 130.797 C 87.737 127.159 89.339 123.856 90.673 120.285 C 90.813 119.958 98.327 123.063 100.556 123.195 C 100.89 123.214 101.159 122.863 101.159 122.863 L 91.241 119.638 L 93.27 113.829 C 93.27 113.829 93.976 112.251 93.179 111.989 C 88.658 110.527 84.415 107.949 80.092 105.753 C 80.092 105.753 82.111 103.508 82.142 103.409 C 82.17 103.315 82.989 102.11 82.794 101.695 C 80.594 103.829 62.645 120.475 62.645 120.475 C 62.134 117.618 61.332 116.619 59.587 114.856 C 60.538 114.811 62.026 113.871 62.886 113.245 C 65.516 111.328 66.948 107.909 66.604 105.911 C 64.079 106.714 61.798 107.656 58.635 108.23 C 56.858 108.553 55.172 109.356 54.15 110.217 L 53.993 107.029 C 53.999 107.065 58.248 107.774 60.216 104.922 C 61.912 102.465 61.217 99.652 60.827 98.218 C 60.871 97.899 60.777 97.935 61.508 97.261 C 62.048 96.764 62.89 96.121 62.89 96.121 C 62.926 95.941 60.695 95.114 60.319 94.359 C 60.912 88.451 56.192 86.17 52.196 87.22 C 51.45 87.445 51.093 87.585 50.205 86.596 C 50.073 86.449 49.007 85.323 49.007 85.323 C 49.007 85.323 48.537 86.408 48.296 86.883 C 47.513 88.428 47.298 87.963 45.608 88.046 C 41.329 88.256 39.42 91.711 40.402 95.952 C 40.632 96.948 40.529 96.794 39.875 98.053 C 39.541 98.696 38.996 99.517 38.996 99.517 C 38.996 99.517 39.781 99.952 40.31 100.188 C 41.093 100.538 41.134 100.948 41.131 101.729 C 41.24 103.45 41.618 104.603 42.608 106.081 C 39.256 106.158 36.684 105.845 33.648 104.837 C 34.113 109.505 37.554 111.243 41.768 111.927 C 41.768 111.927 41.326 112.34 40.861 112.524 C 39.875 112.809 39.258 113.675 39.267 114.451 C 39.125 115.192 38.646 115.935 38.204 116.331 C 37.548 116.899 37.009 117.699 37.267 119.247 C 37.201 120.369 36.93 120.693 36.601 121.121 C 35.939 121.981 35.716 122.836 35.881 123.966 C 35.958 124.492 36.12 125.618 36.011 126.782 C 35.83 128.722 36.525 129.449 37.407 130.815 C 37.979 131.699 37.858 131.723 37.726 132.365 C 37.409 133.907 37.078 134.699 36.736 135.872 C 35.969 138.495 35.94 140.484 36.567 140.996 C 37.512 141.768 38.581 141.535 39.079 141.382 C 42.807 140.231 42.162 136.57 42.358 134.113 C 42.464 133.481 42.68 133.178 42.89 133.207 C 43.944 134.441 45.058 135.155 46.493 135.932 C 41.531 140.982 38.29 144.072 32.018 149.581 L 32.188 26.576 L 103.745 26.576 C 103.745 26.576 103.82 27.486 103.649 31.937 C 103.34 40.983 102.959 50.458 103.553 59.68 C 103.652 62.871 103.587 66.022 104.045 69.18 C 104.492 72.256 104.689 75.574 106.127 78.439 C 106.705 79.992 106.723 79.873 104.522 81.907 C 103.442 82.905 102.525 83.967 102.565 84.154 C 102.578 84.217 102.517 84.451 102.683 84.318 C 102.793 84.23 103.591 83.441 103.679 83.336 C 104.275 82.633 105.273 83.536 108.677 84.496 C 109.345 84.684 110.285 85.313 111.005 85.834 C 116.094 90.122 123.253 88.785 128.605 86.446 C 130.124 85.782 130.497 85.714 132.938 85.424 C 141.977 84.353 151.636 80.403 151.616 80.415 L 152.795 82.349 C 152.795 82.349 153.24 82.267 153.556 82.753 C 158.755 92.573 175.73 103.793 175.428 103.273 L 164.333 109.416 C 172.41 119.396 190.882 136.328 190.882 136.328 L 190.457 160.663 C 185.498 164.63 181.136 169.176 176.776 173.616 C 175.522 174.857 174.637 175.566 175.113 175.589 C 176.245 175.417 177.222 176.533 178.143 177.307 C 178.727 177.958 178.586 177.899 177.913 178.787 C 177.44 179.411 177.267 179.592 177.265 180.043 C 177.281 180.916 177.275 181.501 176.498 182.156 C 176.016 182.762 175.74 183.15 175.653 183.868 C 175.565 184.585 175.572 185.045 175.079 185.679 C 174.243 185.857 174.164 187.074 174.311 187.618 C 175.186 188.486 174.787 189.425 174.868 189.228 C 173.197 191.042 171.442 192.614 172.562 190.078 C 173.067 189.133 173.243 188.351 173.243 188.351 C 173.243 188.351 172.439 189.185 172.018 189.578 C 171.373 190.175 171.138 189.823 171.118 187.972 C 171.036 186.57 170.445 184.615 170.21 184.242 C 170.079 184.033 170.057 184.394 170.118 185.744 C 170.199 187.519 170.411 188.033 169.786 189.806 C 168.941 192.199 168.341 192.538 169.712 192.456 C 171.011 192.378 172.109 192.364 172.678 193.139 C 172.869 193.4 173.116 193.848 173.64 194.112 C 174.709 194.696 175.559 195.344 176.153 195.989 C 178.074 198.079 177.523 199.946 173.809 198.68 C 171.853 198.013 173.134 197.173 175.236 197.368 C 176.527 197.489 176.744 197.011 175.627 196.669 C 173.548 196.285 173.213 196.05 171.842 197.681 C 166.085 197.111 162.853 193.893 161.299 191.271 C 160.649 190.174 160.451 189.964 160.903 189.343 C 161.081 189.099 160.973 189.174 160.666 189.512 C 160.36 189.851 159.523 190.135 159.247 190.379 C 157.313 192.308 155.352 194.381 153.61 195.951 L 153.61 195.951 Z  M 178.667 182.437 C 179.645 182.557 179.625 183.378 178.753 184.167 C 177.933 184.787 177.372 184.907 176.909 184.441 C 176.099 183.625 177.145 182.431 178.667 182.437 L 178.667 182.437 Z  M 181.513 183.005 C 182.3 183.002 183.305 183.364 184.499 184.356 C 185.923 185.54 186.249 188.407 184.941 188.903 C 184.393 189.111 184.308 188.908 183.14 187.798 C 182.352 187.05 181.498 186.372 180.657 185.972 C 178.94 185.155 178.72 184.846 179.88 184.289 C 180.125 184.164 180.441 183.869 180.585 183.637 C 180.883 183.16 180.974 183.008 181.513 183.005 L 181.513 183.005 Z  M 179.658 186.822 C 179.886 186.829 180.191 186.968 180.667 187.223 C 183.562 188.804 184.977 191.282 183.997 192.681 C 183.355 193.598 182.309 193.248 181.512 191.947 C 181.063 191.214 179.871 190.276 178.518 189.59 C 176.968 188.804 176.935 188.692 178.054 188.155 C 178.513 187.935 178.858 187.624 179.083 187.228 C 179.343 186.769 179.365 186.813 179.658 186.822 L 179.658 186.822 Z  M 180.585 192.727 C 182.772 194.907 182.522 196.088 181.101 196.975 C 180.132 197.581 178.576 197.732 178.066 197.231 C 177.242 196.51 177.263 195.685 178.175 195.419 C 179.024 195.238 178.706 194.897 177.912 194.696 C 175.077 193.891 173.334 192.386 176.416 192.713 C 177.3 192.806 178.156 192.119 178.619 191.57 C 179.288 190.758 180.191 192.334 180.585 192.727 L 180.585 192.727 Z  M 31.467 193.567 L 95.285 284.93 L 43.692 284.829 C 43.692 284.829 43.498 284.158 43.918 278.682 C 44.539 271.252 43.585 264.808 41.827 257.556 C 42.049 257.531 39.356 248.752 37.262 244.462 C 36.881 243.564 36.944 243.477 38.18 243.317 C 41.832 242.731 45.766 241.847 49.414 240.304 C 51.11 240.154 53.6 240.816 53.466 240.608 C 53.406 240.509 51.259 238.542 51.259 238.542 C 45.302 240.922 39.805 241.793 34.63 242.384 C 41.499 254.074 43.95 269.988 41.891 284.284 L 32.005 284.253 L 31.975 213.901 L 31.467 193.567 Z  M 42.873 207.098 C 43.774 207.063 46.02 208.648 46.294 209.84 C 46.35 210.085 46.934 211.551 47.589 212.913 C 47.602 213.165 49.814 217.16 48.842 216.812 C 46.908 214.184 43.452 209.709 42.583 207.528 C 42.585 207.238 42.621 207.108 42.873 207.098 Z  M 49.767 211.094 C 49.888 211.755 50.557 213.481 51.085 214.618 C 52.463 217.583 54.596 222.23 54.162 223.554 C 53.87 224.445 54.17 224.399 53.389 223.298 C 53.008 222.759 51.816 221.097 51.53 220.714 C 50.832 219.777 51.301 220.636 50.903 219.112 C 49.953 214.801 48.418 212.536 47.421 210.017 C 47.065 208.834 49.31 210.618 49.767 211.094 Z  M 50.994 211.752 C 51.179 211.882 53.708 213.661 53.964 213.916 C 54.861 217.104 58.445 227.318 57.517 229.143 C 57.194 228.89 55.828 227.242 55.638 226.394 C 55.225 221.51 53.675 217.997 52.013 214.357 C 51.545 213.26 51.178 212.163 50.994 211.752 L 50.994 211.752 Z  M 55.751 215.338 C 56.552 215.729 57.381 216.624 57.85 217.423 C 58.164 217.965 58.325 218.603 58.62 219.946 C 59.537 224.113 61.285 228.337 60.499 232.784 C 60.009 233.449 58.942 231.941 58.789 230.456 C 58.284 225.531 57.85 223.172 56.118 217.381 C 55.782 216.257 55.528 215.377 55.751 215.338 L 55.751 215.338 Z  M 59.813 219.158 C 59.984 219.166 60.335 219.484 60.919 220.033 C 62.056 221.1 62.216 221.493 62.223 223.264 C 62.26 225.866 63.127 228.837 63.262 231.465 C 63.339 232.981 63.617 236.903 63.382 237.135 C 63.051 237.592 61.583 235.93 61.697 233.382 C 61.884 230.32 61.732 228.016 60.426 222.718 C 59.823 220.27 59.518 219.224 59.779 219.163 C 59.789 219.161 59.802 219.158 59.813 219.158 L 59.813 219.158 Z  M 177.638 203.692 C 182.198 206.619 180.59 212.021 179.614 212.685 C 185.911 220.641 176.123 224.714 173.017 221.854 C 168.419 226.423 160.529 222.594 163.567 215.063 C 163.564 215.063 157.792 204.033 169.181 204.77 C 169.181 204.77 169.377 200.313 169.056 200.109 C 164.99 199.836 159.464 203.75 157.899 204.833 C 157.03 205.358 156.84 205.107 156.84 205.107 C 156.623 202.794 156.618 201.734 157.558 200.445 C 159.199 198.194 161.911 197.433 165.473 196.65 C 169.882 198.008 174.08 200.139 178.165 199.807 C 180.415 199.82 182.715 200.184 184.896 201.354 C 186.367 202.048 187.133 204.652 187.133 204.652 C 184.824 205.859 177.638 203.692 177.638 203.692 Z  M 175.47 187.334 C 175.489 186.544 176.381 185.664 177.259 185.766 C 178.466 185.853 178.624 187.283 177.551 187.809 C 177.241 188.06 176.24 187.69 176.185 187.967 C 176.258 188.454 175.768 188.249 175.673 188.073 C 175.507 187.867 175.469 187.571 175.47 187.334 Z  M 174.738 190.449 C 175.181 190.138 175.551 190.111 175.997 190.053 C 176.682 189.969 177.558 190.073 177.752 190.79 C 177.943 191.495 176.592 191.909 175.499 191.928 C 174.943 191.937 174.299 192.046 174.132 191.655 C 173.975 191.289 174.514 190.614 174.738 190.449 L 174.738 190.449 Z  M 36.726 140.141 C 37.606 137.083 37.057 135.371 38.523 131.602 L 42.092 132.79 C 42.092 132.79 42.244 136.487 41.524 138.547 C 40.804 140.605 38.437 142.246 36.726 140.141 Z  M 63.315 222.844 C 63.736 222.894 64.77 224.367 65.237 225.713 C 65.665 226.96 65.524 228.546 65.836 229.89 C 66.537 234.499 66.495 239.116 66.309 240.511 C 66.217 241.206 65.768 240.923 65.155 240.26 C 64.263 239.296 64.386 239.276 64.397 236.599 C 64.406 234.305 63.897 228.637 63.663 227.485 C 63.229 225.355 63.049 223.323 63.151 222.974 C 63.179 222.876 63.237 222.834 63.315 222.844 L 63.315 222.844 Z  M 105.062 223.395 C 109.659 224.127 113.333 227.265 115.439 232.431 C 117.472 237.684 117.972 244.851 118.288 251.44 C 118.266 253.017 117.616 252.619 115.914 251.639 C 114.053 250.73 113.658 250.994 110.942 251.615 C 109.248 252.003 109.401 250.851 112.189 248.94 C 113.138 248.32 114.242 247.493 113.879 247.37 C 113.695 247.307 112.846 247.535 112.232 248.032 C 109.497 250.242 108.756 250.779 109.544 248.63 C 109.743 248.087 110.377 246.58 110.642 245.859 C 111.632 243.159 110.491 242.003 107.127 240.294 C 106.285 239.866 105.731 239.153 106.571 240.647 C 107.258 241.868 105.838 242.854 104.079 241.424 C 102.857 240.431 100.4 241.093 99.607 242.332 C 98.839 243.533 99.25 245.773 100.764 246.499 C 102.098 247.074 102.596 246.66 101.305 245.765 C 99.646 244.615 99.969 242.673 101.832 242.68 C 102.293 242.682 103.106 243.195 105.161 244.312 C 106.632 245.108 107.679 244.772 107.68 243.584 C 107.682 242.789 108.136 242.854 109.103 243.332 C 110.406 243.975 110.263 244.559 109.575 246.358 C 109.111 247.615 108.88 249.044 108.455 250.358 C 107.357 254.78 107.211 259.788 108.425 261.349 C 111.652 265.5 115.079 265.06 118.013 262.317 L 117.888 266.863 C 114.896 269.265 111.4 270.902 106.004 279.804 C 104.122 277.44 96.046 267.776 83.098 265.593 L 80.184 261.606 C 80.234 261.359 78.007 246.779 76.551 241.815 C 76.551 241.815 78.153 239.383 79.608 237.59 C 85.421 230.427 95.248 222.23 105.062 223.395 L 105.062 223.395 Z  M 88.175 227.533 C 87.677 227.691 87.515 226.698 87.786 226.509 C 88.385 226.459 88.596 226.478 89.196 226.522 C 89.649 226.55 89.639 227.069 88.175 227.533 L 88.175 227.533 Z  M 66.324 226.79 C 66.97 227.25 67.759 228.49 68.531 229.62 C 68.958 230.245 68.716 231.282 68.782 232.305 C 68.876 233.756 69.037 236.148 69.14 237.618 C 69.339 240.485 69.071 242.882 68.652 243.747 C 68.224 244.782 67.355 244.067 67.14 242.651 C 67.088 242.311 67.372 238.795 67.372 236.865 C 67.372 233.544 66.523 229.447 66.324 226.79 L 66.324 226.79 Z  M 85.924 226.769 C 86.152 226.756 86.326 226.764 86.477 226.958 C 87.174 227.851 87.457 228.391 86.822 228.881 C 85.98 229.584 85.214 229.407 84.747 228.072 C 84.446 227.121 85.156 226.821 85.924 226.769 Z  M 83.328 227.556 C 84.079 228.06 84.825 229.386 84.903 230.343 C 84.855 230.605 84.624 230.828 84.119 231.236 C 83.619 231.694 83.461 231.664 82.903 230.784 C 82.027 229.416 81.617 228.515 81.789 228.043 C 82.227 227.588 82.796 227.407 83.328 227.556 Z  M 113.935 227.73 C 115.19 227.836 116.429 228.409 117.65 228.698 L 115.788 230.499 C 115.234 229.576 114.603 228.653 113.935 227.73 Z  M 80.543 228.668 C 81.231 229.564 82.431 231.907 82.367 232.777 C 82.191 233.074 81.919 233.338 81.631 233.504 C 81.402 233.566 81.196 233.165 80.42 231.792 C 79.07 229.404 78.674 228.731 79.375 228.444 C 79.743 228.403 80.304 228.421 80.543 228.668 L 80.543 228.668 Z  M 77.821 229.224 C 78.572 229.892 80.373 233.45 80.425 234.451 C 80.405 234.732 80.321 234.976 80.154 235.166 C 79.021 236.384 79.308 236.188 77.622 232.717 C 76.198 229.862 75.822 229.581 76.764 229.259 C 76.972 229.188 77.493 229.094 77.821 229.224 Z  M 75.114 230.152 C 75.608 230.145 75.747 230.972 76.711 232.854 C 78.324 236.413 78.929 236.908 78.564 237.288 C 78.114 237.856 77.851 238.255 77.423 237.565 C 76.451 235.983 75.486 233.965 74.58 232.194 C 73.855 230.872 73.79 230.711 74.256 230.388 C 74.523 230.202 74.921 230.155 75.114 230.152 Z  M 103.905 231.163 C 103.299 231.334 100.862 232.105 102.355 232.245 C 102.657 232.273 103.421 232.082 103.958 232.045 C 105.467 231.941 108.606 232.225 108.494 231.936 C 108.207 230.852 104.728 230.952 103.905 231.163 Z  M 73.004 231.496 C 73.004 231.556 73.395 232.25 73.785 232.929 C 76.077 237.359 77.352 238.972 76.945 239.672 C 76.61 240.094 76.092 240.626 75.785 240.5 C 75.292 240.297 74.635 238.847 72.995 235.566 C 71.299 232.174 71.123 231.92 71.994 231.48 C 72.351 231.315 72.784 231.192 73.004 231.496 L 73.004 231.496 Z  M 70.714 233.059 C 71.768 234.771 71.629 234.546 71.617 240.12 C 71.61 243.589 71.164 245.802 70.584 246.655 C 70.28 247.102 69.744 246.839 69.478 245.964 C 69.356 245.564 69.703 244.97 69.768 244.337 C 70.178 240.163 69.891 235.991 69.901 232.041 C 70.219 232.008 70.544 232.78 70.714 233.059 L 70.714 233.059 Z  M 97.892 234.426 C 98.383 235.126 98.263 235.691 98.259 236.633 C 98.254 237.965 98.35 238.064 99.27 237.391 C 100.086 236.794 100.151 236.756 101.606 237.743 C 102.469 238.329 103.558 238.396 104.263 237.748 C 104.759 237.292 104.931 237.498 105.596 237.671 C 106.319 238.073 106.525 238.135 108.078 237.381 C 109.127 236.917 109.169 236.851 109.793 237.179 C 110.89 238.146 111.052 237.796 110.904 236.532 C 110.907 236.09 111.035 235.266 111.165 234.73 C 111.71 232.481 110.826 232.456 109.658 233.89 C 109.205 234.445 108.196 234.685 107.243 234.237 C 105.877 233.596 103.746 233.855 102.17 234.12 C 100.306 234.434 99.443 233.92 98.694 233.281 C 98.269 232.919 97.3 232.596 97.192 232.873 C 97.085 233.15 97.305 233.587 97.892 234.426 Z  M 72.892 237.58 C 73.126 237.529 73.484 238.221 74.008 239.685 C 74.685 241.576 73.502 248.148 72.791 249.225 C 72.415 249.789 72.173 250.136 71.4 249.089 C 71.093 248.629 71.332 248.483 71.637 247.191 C 72.101 245.225 72.491 242.044 72.516 240.565 C 72.522 238.644 72.628 237.637 72.892 237.58 L 72.892 237.58 Z  M 75.269 243.955 C 75.437 243.967 75.633 244.346 75.902 245.095 C 76.282 246.124 76.097 248.107 75.597 249.625 C 75.308 250.51 75.033 251.452 74.539 252.243 C 74.372 252.687 73.511 252.532 73.274 251.548 C 73.124 250.925 73.642 250.153 73.892 249.162 C 74.144 248.166 74.431 246.901 74.573 246.264 C 74.836 244.709 75.023 243.938 75.269 243.955 Z  M 93.661 246.868 C 93.64 246.865 93.621 246.868 93.608 246.872 C 93.612 246.866 93.598 246.882 93.593 246.887 C 93.554 246.926 95.386 248.922 95.878 249.481 C 96.135 249.698 98.342 252.382 96.97 251.765 C 93.506 250.329 89.453 251.034 86.957 253.441 C 86.644 253.743 86.386 253.434 85.441 253.364 C 83.502 253.219 82.798 253.988 83.977 254.943 C 84.158 255.089 84.534 255.155 84.704 255.39 C 84.861 255.605 84.814 255.991 84.895 256.099 C 88.644 261.075 95.586 262.043 99.945 258.793 C 100.493 258.384 100.801 258.24 101.312 258.392 C 102.325 258.693 102.415 257.844 101.519 256.658 C 101.129 256.14 100.648 255.544 100.928 255.372 C 101.482 254.896 101.755 254.118 100.793 253.826 C 100.129 253.625 99.385 252.887 99.013 251.857 C 98.577 250.653 94.308 246.955 93.661 246.868 L 93.661 246.868 Z  M 76.645 249.046 C 77.46 249.027 77.498 253.84 76.597 255.301 C 76.134 255.854 75.076 254.825 75.235 253.769 C 75.356 252.967 76.221 249.349 76.418 249.162 C 76.498 249.086 76.576 249.047 76.645 249.046 L 76.645 249.046 Z  M 93.255 252.05 C 93.939 252.043 94.875 252.349 95.619 253.022 C 96.022 253.385 96.726 254.959 96.433 255.576 C 96.352 255.889 95.507 255.871 95.43 255.641 C 94.966 252.465 92.39 252.004 91.573 254.969 C 91.573 254.969 91.043 255.419 90.975 254.551 C 91.158 252.868 91.95 252.063 93.255 252.05 L 93.255 252.05 Z  M 113.99 252.325 C 114.808 252.31 115.589 252.721 115.99 253.596 C 116.269 254.205 116.3 254.718 116.189 254.985 C 116.106 255.185 115.83 255.099 115.83 255.099 C 114.523 251.514 112.745 253.172 112.101 255.153 C 112.101 255.153 111.428 255.361 111.344 255.148 C 111.26 254.933 111.313 254.53 111.58 253.972 C 112.091 252.907 113.063 252.343 113.99 252.325 L 113.99 252.325 Z  M 96.506 252.548 C 96.969 252.523 97.761 252.899 98.353 253.496 C 98.955 254.103 99.014 254.465 98.528 254.914 C 98.236 255.185 97.198 255.452 96.996 254.982 L 96.122 252.94 C 96.039 252.745 96.296 252.559 96.506 252.548 Z  M 90.208 252.644 C 90.726 252.646 90.835 252.763 90.022 254.656 C 89.848 255.061 87.76 254.473 88.158 253.692 C 88.755 253.071 89.689 252.643 90.208 252.644 L 90.208 252.644 Z  M 111.116 252.794 C 111.325 252.784 111.494 252.814 111.566 252.91 C 111.379 252.977 110.59 254.972 110.59 254.972 C 109.845 254.882 108.954 254.987 108.793 254.378 C 108.641 253.802 108.942 253.452 109.991 253.05 C 110.309 252.934 110.769 252.81 111.116 252.794 Z  M 117.225 253.306 C 118.016 253.596 118.201 254.265 118.099 254.61 C 118.023 254.871 117.649 254.874 117.385 254.673 C 117.133 254.38 116.762 253.882 116.791 253.547 C 116.873 253.214 116.973 253.21 117.225 253.306 Z  M 77.848 255.149 C 78.091 255.607 78.53 258.198 78.017 258.131 C 77.52 258.003 77.288 257.221 77.201 256.518 C 77.183 256.373 77.626 255.166 77.848 255.149 L 77.848 255.149 Z  M 86.547 256.532 C 86.777 256.499 87.357 256.702 88.218 257.189 C 91.052 258.558 93.957 258.752 97.044 258.063 C 98.824 257.601 99.278 257.33 99.529 257.636 C 99.956 258.155 99.282 258.674 96.769 259.518 C 94.012 260.445 91.153 260.288 87.392 257.635 C 86.382 256.922 86.251 256.574 86.547 256.532 L 86.547 256.532 Z  M 117.998 257.247 C 118.465 258.117 116.876 258.943 116.072 259.175 C 114.362 259.67 111.771 259.439 110.308 258.56 C 110.185 258.486 110.067 258.408 109.956 258.324 C 108.766 257.438 109.258 256.805 110.583 257.489 C 112.008 258.223 114.909 258.358 116.447 257.617 C 117.217 257.245 117.747 256.778 117.998 257.247 L 117.998 257.247 Z  M 82.803 258.87 C 82.645 258.905 82.913 259.305 83.465 259.903 C 87.342 264.255 96.592 266.616 101.792 262.131 C 103.42 260.603 103.172 259.915 100.604 261.136 C 97.764 262.071 93.727 262.193 90.237 261.676 C 88.52 261.444 85.724 260.786 84.306 259.749 C 83.412 259.096 82.943 258.839 82.803 258.87 Z  M 109.537 259 C 109.774 259.019 110.189 259.107 111.089 259.575 C 112.402 260.258 115.385 260.024 116.362 259.664 C 118.42 258.904 118.843 259.869 116.893 260.947 C 114.72 262.262 111.722 261.748 109.972 260.053 C 109.43 259.568 109.137 258.963 109.375 258.915 C 109.398 258.91 109.503 258.998 109.537 259 L 109.537 259 Z  M 83.833 266.697 C 91.469 267.395 102.991 274.971 107.484 284.072 L 104.898 284.072 C 100.384 276.91 93.439 271.145 85.197 268.995 C 84.871 268.744 83.659 267.015 83.833 266.697 Z  M 117.724 268.365 L 117.371 270.881 C 116.092 271.929 111.402 275.815 107.923 281.899 C 107.199 281.865 106.847 280.992 106.968 280.397 C 109.753 274.906 113.083 271.874 117.724 268.365 L 117.724 268.365 Z  M 86.866 270.334 C 88.617 270.213 100.014 276.334 103.852 284.072 L 101.751 284.072 C 97.434 278.451 92.636 274.783 88.377 273.311 C 87.342 272.219 86.208 270.382 86.866 270.334 L 86.866 270.334 Z  M 117.371 272.085 L 117.352 275.485 C 114.625 278.139 112.632 280.809 111.072 284.072 L 108.954 284.072 C 108.954 284.072 108.484 283.14 108.648 282.559 C 111.054 278.228 113.359 275.075 117.371 272.085 L 117.371 272.085 Z  M 100.058 284.072 L 98.009 284.072 C 96.28 281.628 93.711 279.275 91.352 277.876 C 90.386 276.678 89.303 275.2 89.739 274.96 C 89.765 274.076 98.834 280.204 100.058 284.072 L 100.058 284.072 Z  M 117.415 277.156 L 117.371 279.122 C 115.984 280.895 114.822 282.382 113.712 284.072 L 111.966 284.072 C 113.558 280.635 117.558 276.227 117.415 277.156 Z  M 93.899 280.963 C 94.531 281.129 96.84 283.334 96.766 284.072 L 95.727 284.042 C 95.144 283.306 94.453 282.54 94.043 281.787 C 93.786 281.31 93.621 280.869 93.899 280.963 Z  M 117.014 281.57 C 117.021 281.568 117.024 281.569 117.028 281.57 C 117.031 281.572 117.008 284.072 117.008 284.072 L 115.255 284.072 C 115.067 284.038 116.104 282.183 117.014 281.57 L 117.014 281.57 Z " fill="rgb(19,31,103)"/><path d=" M 153.479 25.972 C 144.889 25.971 136.202 26.02 126.538 26.122 L 191.787 118.699 L 191.839 98.133 L 170.901 71.112 C 175.666 69.643 181.485 68.627 186.067 68.219 C 180.182 55.174 177.239 42.923 179.831 26.131 C 170.562 26.025 162.069 25.973 153.479 25.972 Z  M 178.745 26.561 C 178.234 32.489 177.563 39.1 178.638 46.441 C 175.243 45.201 174.446 47.319 173.883 47.542 C 173.244 46.118 170.878 43.653 168.198 46.55 C 166.805 48.056 167.482 50.888 170.716 52.166 C 167.013 52.45 165.088 49.285 164.438 46.021 C 162.437 44.74 160.333 43.473 160.133 38.981 L 161.159 39.153 C 160.818 42.287 164.074 43.883 165.98 42.387 C 167.212 41.443 167.344 39.986 166.858 37.723 C 167.848 37.52 170.166 36.55 169.553 33.572 C 168.707 29.46 164.484 29.943 162.555 32.647 C 160.951 30.662 158.011 30.293 156.831 33.376 C 156.174 35.093 157.671 37.022 159.372 37.395 C 155.595 38.119 153.691 32.911 153.479 29.387 L 151.915 26.609 C 162.125 26.55 166.591 26.562 178.745 26.561 Z  M 127.601 26.663 L 135.179 26.667 L 190.486 98.237 L 190.602 116.054 L 127.601 26.663 Z  M 146.761 26.667 L 147.968 26.682 C 148.915 32.981 152.538 37.542 158.734 39.761 C 159.056 44.908 161.538 51.899 170.954 54.261 C 170.676 60.072 174.41 65.625 178.407 68.287 C 178.407 68.287 177.328 68.554 176.484 68.634 C 171.111 64.374 169.786 58.101 169.254 55.512 C 169.072 55.138 168.56 55.047 168.153 54.956 C 163.554 53.332 159.683 49.554 158.102 44.944 L 157.107 40.418 C 157.109 39.837 156.991 40.11 155.624 39.607 C 152.077 38.301 148.797 34.463 147.326 29.879 C 146.553 27.469 146.761 26.667 146.761 26.667 L 146.761 26.667 Z  M 141.888 26.682 L 146.133 26.687 C 146.133 26.687 146.158 27.436 146.22 27.923 C 146.791 32.436 150.844 38.1 154.977 39.979 C 155.561 40.244 156.375 40.618 156.566 40.795 C 157.721 48.193 161.075 52.649 168.153 55.7 C 168.265 55.817 168.584 55.891 168.679 56.038 C 169.644 60.613 171.753 65.916 175.765 68.832 L 174.031 69.011 L 141.888 26.682 Z  M 162.626 34.446 C 163.586 34.446 164.365 35.225 164.365 36.185 C 164.365 37.145 163.586 37.919 162.626 37.919 C 161.667 37.919 160.888 37.145 160.888 36.185 C 160.888 35.225 161.667 34.446 162.626 34.446 Z  M 104.031 43.934 C 104.131 44.185 80.285 64.356 82.605 102.309 L 81.915 103.081 L 82.103 103.352 C 81.316 104.246 80.557 104.963 79.698 105.834 C 84.643 108.986 93.262 112.426 93.289 112.335 L 91.642 116.151 L 101.944 119.479 L 100.563 123.106 C 100.563 123.106 93.396 120.73 90.425 119.74 C 88.959 122.989 88.072 126.421 87.005 129.8 C 86.905 130.073 86.671 129.942 86.305 129.414 C 80.954 120.287 69.962 113.702 70.333 114.354 L 31.355 151.337 L 31.09 174.192 L 58.065 201.993 C 58.065 201.993 50.258 205.834 46.565 208.354 C 49.437 210.698 52.688 212.503 55.543 214.72 C 61.45 218.885 65.437 225.009 69.265 229.156 C 87.32 220.205 105.503 220.703 121.206 226.138 C 119.376 228.063 117.335 229.73 115.449 231.818 C 120.013 243.794 118.552 267.579 118.323 268.225 C 127.826 258.518 141.962 237.702 140.076 208.393 L 144.076 204.384 C 144.003 204.178 134.072 198.862 129.934 197.705 L 131.078 194.062 L 121.167 190.966 L 122.273 188.073 L 132.146 190.932 C 134.015 186.343 135.995 179.915 135.995 179.915 C 139.938 185.814 144.283 191.178 153.228 196.637 L 191.983 159.557 L 191.732 135.717 L 165.346 109.331 L 176.33 103.608 C 175.274 102.757 173.744 101.949 172.659 101.096 C 172.582 101.035 172.877 100.852 172.799 100.792 C 172.523 100.58 172.322 100.408 172.041 100.212 C 171.978 100.168 171.78 100.454 171.717 100.41 C 167.99 97.797 164.262 95.225 161.328 92.098 C 161.255 92.019 161.363 91.694 161.289 91.615 C 159.765 89.986 158.247 88.471 156.696 86.867 C 155.977 86.141 154.788 84.419 154.788 84.419 L 154.721 83.849 L 153.054 81.752 C 147.688 84.917 124.811 92.861 102.674 84.066 L 106.881 79.859 C 105.761 77.157 105.034 74.142 104.746 71.672 C 103.588 61.769 104.031 43.934 104.031 43.934 Z  M 173.813 49.542 C 174.826 49.542 175.649 50.364 175.649 51.377 C 175.649 52.39 174.826 53.213 173.813 53.213 C 172.8 53.213 171.983 52.39 171.983 51.377 C 171.983 50.364 172.8 49.542 173.813 49.542 Z  M 179.554 51.725 C 180.488 56.286 182.542 62.91 184.589 67.375 L 182.151 67.645 C 180.166 66.356 178.068 64.474 177.847 61.804 C 172.479 61.846 170.91 53.426 172.87 54.437 C 172.62 57.313 174.684 58.447 176.708 58.164 C 178.451 57.921 179.958 55.514 177.884 52.858 C 178.806 52.499 179.256 52.228 179.554 51.725 L 179.554 51.725 Z  M 103.48 65.215 C 103.836 71.048 104.981 75.303 106.05 79.709 L 95.443 89.717 C 96.271 80.582 98.954 72.419 103.48 65.215 Z  M 154.349 84.428 L 155.696 86.36 C 140.368 95.361 114.207 95.997 98.269 88.408 L 100.384 86.394 C 114.399 92.722 137.217 93.193 154.349 84.428 Z  M 54.8 87.432 C 53.255 87.413 51.473 88.002 49.583 89.442 C 42.552 86.238 37.946 93.727 42.295 98.686 C 41.651 102.256 41.164 102.921 43.85 106.535 C 40.997 106.898 37.395 106.151 34.331 105.68 C 34.848 110.966 42.418 112.197 45.57 111.616 C 48.972 110.878 52.182 112.562 52.322 112.601 C 54.322 113.16 55.565 114.123 57.538 114.586 C 60.792 115.36 65.556 111.547 66.247 107.926 C 66.312 107.439 66.462 106.999 66.193 106.926 C 63.969 107.495 61.526 108.297 59.359 108.771 C 57.237 109.292 55.638 109.805 54.022 111.07 L 53.887 106.704 C 64.902 107.228 60.108 96.755 59.485 96.305 C 61.531 92.173 59.069 87.485 54.8 87.432 L 54.8 87.432 Z  M 154.924 87.761 L 157.319 93.523 L 150.953 95.682 L 149.326 90.041 L 154.924 87.761 Z  M 54.341 87.935 C 58.085 87.971 61.434 91.914 57.838 96.329 C 64.808 102.477 55.875 109.065 51.622 104.492 C 45.959 109.677 39.943 104.261 43.106 98.614 C 37.067 93.209 44.515 85.961 49.603 90.63 C 50.852 88.709 52.639 87.918 54.341 87.935 Z  M 97.81 90.045 C 98.706 90.045 99.433 90.772 99.433 91.668 C 99.433 92.565 98.706 93.291 97.81 93.291 C 96.914 93.291 96.187 92.565 96.187 91.668 C 96.187 90.772 96.914 90.045 97.81 90.045 Z  M 56.336 90.166 C 56.243 90.167 56.132 90.209 56.012 90.316 C 55.83 90.333 55.436 91.01 54.447 92.156 C 52.728 94.149 52.542 94.167 52.542 94.167 C 50.711 93.568 49.486 93.892 48.279 94.655 C 48.279 94.655 46.903 94.394 45.005 92.808 C 44.139 92.084 43.673 91.927 43.522 92.315 C 43.361 92.729 43.754 93.137 45.415 94.267 C 47.714 95.831 47.571 95.711 47.571 95.711 C 47.429 97.086 47.652 98.203 48.172 99.243 C 48.172 99.243 47.767 100.22 46.135 102.357 C 45.673 102.961 45.295 103.618 45.294 103.815 C 45.291 104.647 46.017 104.088 47.685 101.98 C 48.339 101.154 49.236 99.971 49.236 99.971 C 51.196 100.65 51.883 100.237 53.111 99.8 C 53.111 99.8 53.532 100.113 54.601 100.965 C 56.556 102.524 56.979 102.69 57.219 102.492 C 57.543 102.226 57.5 102.139 56.761 101.603 C 54.555 100.007 53.797 99.084 53.797 99.084 C 54.245 97.337 53.754 95.892 53.274 94.981 C 53.274 94.981 53.309 94.759 54.553 93.368 C 55.468 92.347 56.719 90.736 56.64 90.504 C 56.661 90.36 56.539 90.164 56.336 90.166 L 56.336 90.166 Z  M 101.471 90.519 L 107.204 92.301 L 105.939 98.261 L 99.829 96.29 L 101.471 90.519 Z  M 142.96 91.982 L 144.559 97.797 L 138.594 99.382 L 137.618 93.209 L 142.96 91.982 Z  M 147.147 92.079 C 148.044 92.079 148.77 92.805 148.77 93.702 C 148.77 94.598 148.044 95.324 147.147 95.324 C 146.251 95.324 145.525 94.598 145.525 93.702 C 145.525 92.805 146.251 92.079 147.147 92.079 Z  M 160.705 92.286 L 165.718 96.749 L 160.154 99.56 L 157.474 93.745 L 160.705 92.286 Z  M 113.43 93.576 L 119.255 94.262 L 119.018 100.521 L 112.333 99.628 L 113.43 93.576 Z  M 93.222 93.644 L 99.703 96.488 L 97.366 103.019 L 90.729 100.169 L 93.222 93.644 Z  M 109.928 94.151 C 112.317 94.525 111.674 97.343 109.928 97.397 C 109.032 97.397 108.305 96.67 108.305 95.774 C 108.305 94.877 109.032 94.151 109.928 94.151 Z  M 130.885 94.156 L 131.682 100.42 L 125.635 100.787 L 125.505 94.421 L 130.885 94.156 Z  M 135.044 94.87 C 135.94 94.87 136.667 95.597 136.667 96.493 C 136.667 97.39 135.94 98.116 135.044 98.116 C 134.147 98.116 133.421 97.39 133.421 96.493 C 133.421 95.597 134.147 94.87 135.044 94.87 Z  M 50.859 95.458 C 51.784 95.458 52.535 96.205 52.535 97.129 C 52.535 98.054 51.784 98.805 50.859 98.805 C 49.935 98.805 49.188 98.054 49.188 97.129 C 49.188 96.205 49.935 95.458 50.859 95.458 Z  M 122.467 95.397 C 123.363 95.397 124.089 96.124 124.089 97.02 C 124.089 97.916 123.363 98.643 122.467 98.643 C 121.57 98.643 120.844 97.916 120.844 97.02 C 120.844 96.124 121.57 95.397 122.467 95.397 Z  M 150.949 95.798 L 153.306 102.236 L 146.698 104.366 L 144.829 97.754 L 150.949 95.798 Z  M 155.585 95.972 C 156.482 95.972 157.208 96.698 157.208 97.595 C 157.208 98.491 156.482 99.217 155.585 99.217 C 154.689 99.217 153.962 98.491 153.962 97.595 C 153.962 96.698 154.689 95.972 155.585 95.972 Z  M 167.008 97.797 L 171.278 100.816 L 169.162 101.995 C 168.608 100.668 167.629 99.094 167.008 97.797 Z  M 105.977 98.382 L 112.28 99.749 L 111.319 106.351 L 104.441 104.979 L 105.977 98.382 Z  M 87.232 98.744 L 90.58 100.319 L 88.372 105.82 L 82.958 102.936 L 87.232 98.744 Z  M 102.195 99.101 C 103.092 99.101 103.818 99.828 103.818 100.724 C 103.818 101.621 103.092 102.347 102.195 102.347 C 101.299 102.347 100.573 101.621 100.573 100.724 C 100.573 99.828 101.299 99.101 102.195 99.101 Z  M 138.598 99.464 L 139.724 106.066 L 132.614 107.066 L 132.175 100.333 L 138.598 99.464 Z  M 165.216 99.589 C 166.112 99.589 166.839 100.316 166.839 101.212 C 166.839 102.108 166.112 102.835 165.216 102.835 C 164.32 102.835 163.593 102.108 163.593 101.212 C 163.593 100.316 164.32 99.589 165.216 99.589 Z  M 160.174 99.638 L 162.526 105.458 L 155.571 108.365 L 153.513 102.54 L 160.174 99.638 Z  M 142.438 100.058 C 143.335 100.058 144.061 100.784 144.061 101.681 C 144.061 102.577 143.335 103.303 142.438 103.303 C 141.542 103.303 140.815 102.577 140.815 101.681 C 140.815 100.784 141.542 100.058 142.438 100.058 Z  M 118.95 100.719 L 125.606 100.84 L 125.529 107.515 L 118.24 107.312 L 118.95 100.719 Z  M 172.181 101.183 L 174.799 102.999 C 147.857 120.324 110.011 122.471 80.475 105.419 C 80.475 105.419 81.682 104.216 82.369 103.511 C 108.994 119.445 147.865 117.209 172.181 101.183 Z  M 115.342 101.937 C 116.239 101.937 116.965 102.663 116.965 103.559 C 116.965 104.456 116.239 105.182 115.342 105.182 C 114.446 105.182 113.72 104.456 113.72 103.559 C 113.72 102.663 114.446 101.937 115.342 101.937 Z  M 129.006 102.304 C 129.903 102.304 130.629 103.03 130.629 103.927 C 130.629 104.823 129.903 105.549 129.006 105.549 C 128.11 105.549 127.383 104.823 127.383 103.927 C 127.383 103.03 128.11 102.304 129.006 102.304 Z  M 97.308 103.197 L 104.258 105.206 L 103.075 110.693 L 95.453 108.5 L 97.308 103.197 Z  M 92.71 103.236 C 93.606 103.236 94.332 103.962 94.332 104.859 C 94.332 105.755 93.606 106.482 92.71 106.482 C 91.813 106.482 91.087 105.755 91.087 104.859 C 91.087 103.962 91.813 103.236 92.71 103.236 Z  M 146.693 104.405 L 148.355 110.563 L 140.671 112.205 L 139.743 106.148 L 146.693 104.405 Z  M 151.108 105.298 C 152.004 105.298 152.731 106.025 152.731 106.921 C 152.731 107.817 152.004 108.544 151.108 108.544 C 150.212 108.544 149.485 107.817 149.485 106.921 C 149.485 106.025 150.212 105.298 151.108 105.298 Z  M 50.718 106.255 L 50.704 110.572 C 49.429 109.522 47.99 108.404 46.516 107.274 C 48.019 107.353 49.416 106.939 50.718 106.255 L 50.718 106.255 Z  M 34.891 106.361 C 35.241 106.357 36.062 106.644 37.04 106.641 C 40.169 106.631 46.014 107.607 47.743 109.027 C 48.319 109.498 49.182 109.917 49.651 110.679 C 49.649 111.042 49.136 111.051 48.381 110.582 C 46.932 109.682 44.521 108.88 41.295 108.433 C 40.712 108.352 40.64 108.376 40.638 108.65 C 40.637 108.989 41.176 109.188 42.875 109.466 C 45.073 109.827 45.541 110.043 46.029 110.176 C 47.334 110.534 46.5 111.012 45.156 111.14 C 39.67 111.654 35.563 109.294 34.736 106.597 C 34.67 106.421 34.731 106.362 34.891 106.361 Z  M 111.314 106.457 L 118.216 107.351 L 117.902 113.128 L 110.348 112.263 L 111.314 106.457 Z  M 52.621 106.96 C 53.827 107.906 52.998 110.776 52.341 111.621 C 51.916 112.095 50.921 111.843 50.926 111.176 C 51.076 110.577 50.864 107.723 50.994 106.839 C 51.474 106.565 52.182 106.643 52.621 106.96 L 52.621 106.96 Z  M 132.605 107.216 L 132.962 113.171 L 125.432 113.514 L 125.49 107.665 L 132.605 107.216 Z  M 107.199 107.617 C 108.096 107.617 108.822 108.343 108.822 109.239 C 108.822 110.136 108.096 110.862 107.199 110.862 C 106.303 110.862 105.576 110.136 105.576 109.239 C 105.576 108.343 106.303 107.617 107.199 107.617 Z  M 65.242 107.699 C 65.52 112.069 58.808 115.034 56.297 113.693 C 55.185 113.099 55.648 112.733 57.852 112.287 C 60.705 111.532 62.584 110.796 62.585 110.263 C 62.587 109.936 62.154 109.976 60.992 110.408 C 59.201 111.01 57.34 111.268 55.63 112.036 C 54.353 112.616 53.855 112.819 53.568 112.471 C 52.966 111.739 55.806 109.894 58.751 109.404 C 60.96 109.036 63.188 107.858 65.242 107.699 L 65.242 107.699 Z  M 136.758 108.244 C 137.655 108.244 138.381 108.971 138.381 109.867 C 138.381 110.764 137.655 111.49 136.758 111.49 C 135.862 111.49 135.135 110.764 135.135 109.867 C 135.135 108.971 135.862 108.244 136.758 108.244 Z  M 121.665 109.433 C 122.561 109.433 123.288 110.159 123.288 111.055 C 123.288 111.952 122.561 112.678 121.665 112.678 C 120.768 112.678 120.042 111.952 120.042 111.055 C 120.042 110.159 120.768 109.433 121.665 109.433 Z  M 157.826 112.191 C 168.688 122.533 180.593 134.439 190.414 144.232 C 190.4 149.356 190.37 159.606 190.37 159.606 L 152.871 195.246 C 146.08 191.1 140.332 185.918 135.039 176.713 C 135.636 176.198 136.161 175.871 136.613 175.308 L 134.657 176.477 C 127.74 165.413 124.806 143.37 136.555 125.7 L 124.684 126.134 L 126.62 122.092 L 139.545 121.387 L 144.771 115.779 C 144.771 115.779 146.427 115.473 147.799 115.156 C 149.161 114.842 151.939 114.047 153.977 113.388 C 156.014 112.73 157.748 112.19 157.826 112.191 L 157.826 112.191 Z  M 70.159 115.055 C 70.159 115.055 81.32 121.121 87.517 133.268 C 67.484 150.501 59.933 170.568 58.229 191.454 C 47.325 181.256 41.815 175.614 31.964 165.711 L 32.321 150.931 L 70.159 115.055 Z  M 112.295 116.982 C 109.407 123.156 106.923 129.919 104.697 137.166 L 101.592 136.248 C 101.592 136.248 103.601 135.408 104.495 134.877 L 102.881 132.278 L 105.939 131.022 L 104.132 128.82 L 107.233 127.023 L 105.683 125.077 L 108.523 123.657 L 106.76 121.628 L 109.74 119.967 L 108.185 118.025 L 112.295 116.982 Z  M 113.246 116.996 C 113.246 116.996 113.646 117.072 114.116 117.165 C 114.228 117.122 113.556 118.783 113.628 118.841 C 114.713 119.065 114.776 119.004 115.101 119.102 L 115.927 117.392 L 117.284 117.648 C 114.546 123.827 111.619 130.587 109.938 137.905 L 108.339 137.572 C 108.339 137.572 108.806 136.029 108.808 135.823 C 108.62 135.784 107.72 135.405 107.441 135.292 C 107.345 135.533 106.774 137.32 106.774 137.32 L 105.509 137.287 C 107.58 129.297 111.191 120.437 113.246 116.996 Z  M 118.448 117.233 L 121.283 119.58 L 118.067 120.831 L 119.733 123.048 L 116.323 124.28 L 118.279 126.584 L 114.903 127.83 L 116.917 130.617 L 113.406 131.8 L 115.623 134.249 L 112.454 135.731 L 114.352 137.61 C 114.352 137.61 112.375 138.262 112.261 138.291 C 111.943 138.373 110.614 138.045 110.614 138.045 C 112.617 130.914 115.092 123.687 118.448 117.233 L 118.448 117.233 Z  M 49.472 118.421 C 48.689 118.929 49.136 120.036 48.154 120.981 C 47.997 121.15 47.983 121.54 47.922 121.879 C 47.875 122.137 47.099 125.223 47.099 125.223 C 47.099 125.223 47.295 124.987 47.606 124.003 C 47.871 123.163 48.101 121.569 48.245 121.303 C 48.969 121.082 49.079 118.72 49.813 119.044 C 50.237 119.231 50.156 119.616 49.917 120.522 C 49.394 122.332 49.189 123.094 50.086 121.86 C 51.425 120.247 51.556 118.792 50.047 118.484 C 49.888 118.453 49.565 118.424 49.472 118.421 L 49.472 118.421 Z  M 69.729 119.092 L 34.688 151.994 L 34.582 164.271 L 46.777 176.631 L 55.432 185.021 C 58.574 166.231 65.782 148.307 83.528 132.795 C 80.809 128.423 76.151 122.915 69.729 119.092 L 69.729 119.092 Z  M 164.182 119.431 C 143.593 129.107 138.859 148.953 145.235 166.918 C 155.046 154.299 162.747 142.444 164.182 119.431 Z  M 90.903 120.435 L 100.254 123.444 L 96.733 135.451 L 88.314 132.896 L 87.455 130.771 L 90.903 120.435 Z  M 163.149 120.749 C 162.254 136.806 156.199 152.488 145.665 164.793 C 140.338 151.652 143.542 130.642 163.149 120.749 Z  M 112.787 120.836 L 112.198 122.328 L 113.493 122.696 L 114.043 121.179 L 112.787 120.836 Z  M 111.493 124.362 L 110.962 125.878 L 112.29 126.328 L 112.787 124.787 L 111.493 124.362 Z  M 166.651 124.637 C 163.769 146.909 151.736 167.178 139.024 177.505 C 143.074 184.076 147.838 188.303 152.678 191.831 L 188.487 157.529 L 188.346 146.087 L 166.651 124.637 Z  M 72.023 130.549 C 71.803 131.363 71.725 131.777 71.725 131.777 C 71.725 131.777 72.138 131.396 73.226 130.801 C 80.262 127.291 77.992 132.628 74.677 134.602 C 73.936 134.996 73.174 135.465 73.174 135.465 C 73.174 135.465 73.878 135.624 74.641 135.766 C 78.911 136.653 78.002 139.151 73.549 138.762 C 72.89 138.704 72.117 138.58 72.116 138.617 C 72.116 138.653 72.383 139.591 72.692 140.368 C 74.193 144.149 71.392 144.443 69.55 142.039 C 69.294 141.705 68.712 140.781 68.712 140.781 C 68.712 140.781 68.531 141.48 68.42 142.155 C 66.829 148.082 62.902 147.932 64.368 141.919 C 64.551 141.297 64.774 140.185 64.774 140.185 C 64.774 140.185 63.892 140.718 62.931 141.147 C 57.846 143.418 57.02 141.081 61.64 137.665 C 62.954 136.693 63.399 136.311 63.399 136.311 C 62.581 136.248 61.827 136.123 61.161 135.956 C 57.476 135.031 56.493 132.828 62.398 132.931 C 63.27 132.949 64.158 133.007 64.158 133.007 C 64.158 133.007 63.867 131.74 63.56 130.786 C 62.135 126.368 65.006 125.843 67.427 129.8 C 67.943 130.642 68.09 130.647 68.09 130.647 C 68.016 130.65 68.242 129.14 68.829 127.744 C 71.761 122.314 72.909 127.27 72.023 130.549 L 72.023 130.549 Z  M 135.353 126.154 C 132.893 130.499 130.749 134.82 129.726 139.325 L 120.158 139.161 C 120.82 135.166 122.51 131.011 124.529 126.617 C 128.424 126.511 131.937 126.34 135.353 126.154 Z  M 110.092 128.081 L 109.542 129.68 L 110.928 130.105 L 111.43 128.549 L 110.092 128.081 Z  M 38.542 131.08 C 37.517 133.744 37.174 136.71 36.605 139.088 C 36.365 140.466 36.61 141.041 37.436 141.349 C 38.612 141.787 40.308 141.19 41.257 139.832 C 41.792 139.066 42.18 137.485 42.261 134.693 L 42.353 132.206 C 40.899 131.935 39.906 131.546 38.542 131.08 Z  M 108.798 131.428 L 108.339 132.896 L 109.677 133.394 L 110.189 131.911 L 108.798 131.428 Z  M 170.766 131.979 C 172.393 132.019 172.696 132.165 174.171 133.036 L 177.016 135.963 C 176.27 136.677 175.803 137.68 175.803 138.794 C 175.803 140.959 177.56 142.716 179.725 142.716 C 180.798 142.716 182.478 141.585 182.478 141.585 L 186.987 146.255 C 184.359 147.406 181.785 144.757 180.817 143.709 C 180.59 143.463 180.531 143.295 180.531 143.295 C 180.531 143.295 180.572 143.423 180.477 143.942 C 180.1 146.021 178.049 152.156 176.088 151.83 C 173.88 151.461 176.128 142.69 176.152 142.892 C 174.634 144.497 167.236 146.206 167.754 144.414 C 168.784 140.854 174.317 139.482 175.045 138.864 C 172.103 137.094 168.373 132.185 170.766 131.979 L 170.766 131.979 Z  M 38.9 132.094 C 39.837 132.16 40.48 132.273 41.117 132.539 C 41.413 132.618 41.427 132.866 41.459 133.099 C 41.465 134.15 41.729 137.236 40.754 137.267 C 39.672 137.245 38.656 137.477 37.943 138.021 C 37.37 138.458 37.18 138.142 37.335 137.021 C 37.485 135.935 38.025 133.652 38.257 132.727 C 38.294 132.346 38.597 132.077 38.9 132.094 L 38.9 132.094 Z  M 68.135 132.133 C 65.97 132.133 64.213 133.89 64.213 136.055 C 64.213 138.22 65.97 139.977 68.135 139.977 C 70.3 139.977 72.057 138.22 72.057 136.055 C 72.057 133.89 70.3 132.133 68.135 132.133 Z  M 68.135 133.505 C 69.542 133.505 70.685 134.648 70.685 136.055 C 70.685 137.463 69.542 138.6 68.135 138.6 C 66.728 138.6 65.585 137.463 65.585 136.055 C 65.585 134.648 66.728 133.505 68.135 133.505 Z  M 88.371 133.552 C 97.36 149.069 96.319 170.368 85.721 185.861 L 97.114 185.064 L 95.617 187.981 L 83.47 189.165 C 81.614 190.863 79.925 192.805 78.099 194.622 L 78.08 195.265 C 73.915 196.232 69.747 197.345 65.503 198.875 C 63.262 196.675 59.048 192.276 59.075 192.166 L 59.346 190.742 C 88.235 176.003 79.784 146.444 77.75 144.014 C 80.849 140.293 84.549 136.791 88.371 133.552 L 88.371 133.552 Z  M 168.549 136.374 C 169.719 136.374 170.664 137.324 170.664 138.494 C 170.664 139.664 169.719 140.614 168.549 140.614 C 167.379 140.614 166.428 139.664 166.428 138.494 C 166.428 137.324 167.379 136.374 168.549 136.374 Z  M 177.967 136.944 L 181.517 140.6 C 181.056 141.055 180.424 141.339 179.725 141.339 C 178.318 141.339 177.175 140.201 177.175 138.794 C 177.175 138.068 177.479 137.408 177.967 136.944 Z  M 56.036 137.398 C 57.206 137.398 58.152 138.343 58.152 139.513 C 58.152 140.683 57.206 141.634 56.036 141.634 C 54.866 141.634 53.916 140.683 53.916 139.513 C 53.916 138.343 54.866 137.398 56.036 137.398 Z  M 40.271 138.286 C 41.263 138.618 41.032 139.545 39.75 140.361 C 38.921 140.889 38.161 141.005 37.431 140.614 C 36.049 139.874 38.918 137.803 40.271 138.286 Z  M 56.65 143.474 L 43.884 155.824 C 44.687 153.772 44.717 151.725 44.778 149.675 C 48.619 150.071 50.227 148.123 49.665 144.111 C 52.147 144.259 54.718 143.998 56.65 143.474 Z  M 77.104 144.884 C 83.023 161.761 77.882 179.622 59.369 189.966 C 60.131 173.794 66.919 158.332 77.104 144.884 L 77.104 144.884 Z  M 93.965 146.362 C 104.125 149.021 115.69 150.261 127.697 150.269 C 127.788 154.838 128.007 159.67 128.943 164.334 C 118.715 161.659 107.291 160.415 94.811 160.634 C 95.328 155.805 94.5 150.328 93.965 146.362 Z  M 169.302 148.859 L 158.483 161.509 L 158.937 154.602 C 162.581 155.066 163.879 153.144 163.342 149.347 C 165.33 149.593 167.315 149.245 169.302 148.859 Z  M 64.174 149.559 L 63.32 154.612 C 61.16 154.67 59.041 155.437 59.069 160.258 L 52.617 160.18 L 64.174 149.559 Z  M 183.241 150.492 C 184.411 150.492 185.357 151.442 185.357 152.612 C 185.357 153.782 184.411 154.732 183.241 154.732 C 182.071 154.732 181.121 153.782 181.121 152.612 C 181.121 151.442 182.071 150.492 183.241 150.492 Z  M 54.36 151.134 C 55.53 151.134 56.48 152.084 56.48 153.254 C 56.48 154.424 55.53 155.37 54.36 155.37 C 53.19 155.37 52.24 154.424 52.24 153.254 C 52.24 152.084 53.19 151.134 54.36 151.134 Z  M 178.513 153.307 L 177.383 160.958 C 174.435 160.699 171.975 161.153 172.731 166.339 C 170.237 166.095 166.774 166.684 164.453 166.884 L 178.513 153.307 Z  M 167.95 154.694 C 169.12 154.694 170.07 155.644 170.07 156.814 C 170.07 157.984 169.12 158.929 167.95 158.929 C 166.78 158.929 165.829 157.984 165.829 156.814 C 165.829 155.644 166.78 154.694 167.95 154.694 Z  M 38.827 156.336 C 39.997 156.336 40.947 157.286 40.947 158.456 C 40.947 159.626 39.997 160.572 38.827 160.572 C 37.657 160.572 36.712 159.626 36.712 158.456 C 36.712 157.286 37.657 156.336 38.827 156.336 Z  M 45.855 158.843 C 48.561 159.45 47.309 165.758 46.7 167.474 C 46.654 167.52 54.25 163.494 54.703 165.271 C 55 168.834 48.415 171.318 48.415 171.318 C 48.415 171.318 52.853 175.174 52.979 177.597 C 52.99 179.165 51.123 178.874 48.699 176.887 C 47.664 175.869 46.862 175.107 46.149 174.4 C 46.982 173.68 47.507 172.615 47.507 171.429 C 47.507 169.264 45.75 167.507 43.585 167.507 C 42.389 167.507 41.319 168.044 40.6 168.889 C 40.038 168.347 39.402 167.716 38.547 166.908 C 37.147 165.599 36.165 164.559 36.306 164.088 C 38.153 162.787 41.827 166.281 42.155 166.599 C 41.88 165.918 43.912 159.205 45.855 158.843 L 45.855 158.843 Z  M 42.155 166.599 C 42.17 166.636 42.189 166.657 42.218 166.657 C 42.218 166.657 42.17 166.614 42.155 166.599 Z  M 157.522 163.769 C 158.809 163.751 158.729 166.681 158.271 168.203 C 157.957 169.363 157.648 170.314 157.648 170.314 C 157.648 170.314 158.732 169.466 159.213 169.241 C 162.716 167.601 164.021 169.458 162.255 171.613 C 161.407 172.721 160.249 172.967 159.309 173.897 C 160.648 173.958 162.186 174.255 163.342 174.936 C 164.241 175.473 164.947 176.125 164.946 176.53 C 164.942 177.435 162.718 177.923 160.637 177.689 C 159.752 177.708 158.087 177.235 158.087 177.235 C 158.087 177.235 158.777 178.396 159.029 179.089 C 159.806 181.245 159.533 183.769 158.411 183.765 C 156.532 183.263 155.615 181.174 154.88 179.674 C 154.277 181.346 153.692 183.135 152.349 184.378 C 151.017 185.611 150.334 184.587 150.403 182.499 C 150.43 181.669 151.04 179.191 151.04 179.191 C 143.149 181.855 143.735 178.251 149.894 175.095 C 146.101 173.286 143.796 171.658 150.248 171.289 C 150.077 171.135 148.951 167.679 150.156 166.87 C 151.277 166.118 153.664 168.701 153.779 168.826 C 153.731 168.571 154.408 166.547 155.542 165.15 C 156.411 164.166 157.056 163.775 157.522 163.769 L 157.522 163.769 Z  M 150.248 171.289 C 150.256 171.296 150.264 171.297 150.268 171.289 C 150.268 171.289 150.25 171.289 150.248 171.289 Z  M 184.792 169.007 C 183.418 169.132 182.563 170.351 181.928 171.415 C 181.799 171.63 181.561 171.707 181.472 171.992 C 180.903 173.825 180.406 176.021 180.101 178.755 C 180.972 179.113 182.936 179.717 183.805 179.392 C 184.049 179.29 183.973 178.658 184.056 178.45 C 185.426 175 186.103 172.421 186.103 170.837 C 186.103 169.559 185.664 168.927 184.792 169.007 Z  M 43.594 168.85 C 45.002 168.85 46.144 169.993 46.144 171.4 C 46.144 172.209 45.767 172.929 45.178 173.395 C 43.536 171.757 42.695 170.899 41.595 169.821 C 42.062 169.23 42.783 168.85 43.594 168.85 Z  M 185.278 170.064 C 185.623 170.901 184.516 171.809 183.082 171.804 C 182.23 171.8 181.953 171.921 182.332 171.182 C 182.784 170.283 184.619 168.463 185.278 170.064 Z  M 166.052 169.473 C 167.222 169.473 168.172 170.424 168.172 171.593 C 168.172 172.764 167.222 173.709 166.052 173.709 C 164.882 173.709 163.931 172.764 163.931 171.593 C 163.931 170.423 164.882 169.473 166.052 169.473 Z  M 54.283 169.623 C 55.453 169.623 56.403 170.568 56.403 171.738 C 56.403 172.908 55.453 173.859 54.283 173.859 C 53.113 173.859 52.167 172.908 52.167 171.738 C 52.167 170.568 53.113 169.623 54.283 169.623 Z  M 154.523 170.483 C 152.357 170.483 150.601 172.239 150.601 174.405 C 150.601 176.57 152.357 178.326 154.523 178.326 C 156.688 178.326 158.445 176.57 158.445 174.405 C 158.445 172.239 156.688 170.483 154.523 170.483 Z  M 102.109 171.009 C 101.077 175.528 99.491 179.848 97.486 184.122 C 93.706 184.35 89.619 184.527 86.923 184.91 C 91.413 177.047 91.521 175.198 93.183 171.033 L 102.109 171.009 Z  M 108.605 171.647 C 109.667 171.772 110.83 171.933 111.879 172.134 C 109.95 178.927 107.398 185.901 104.103 192.613 L 102.109 192.304 L 101.162 191.135 L 104.33 189.87 L 101.862 187.349 L 105.953 186.112 L 103.437 183.63 L 107.479 182.62 L 105.316 179.993 L 108.943 178.578 L 106.639 175.602 L 110.503 174.54 L 108.605 171.647 Z  M 154.523 171.854 C 155.93 171.854 157.073 172.997 157.073 174.405 C 157.073 175.812 155.93 176.95 154.523 176.95 C 153.115 176.95 151.972 175.812 151.972 174.405 C 151.972 172.997 153.115 171.854 154.523 171.854 Z  M 112.604 172.241 L 113.951 172.458 L 113.536 173.902 L 115.072 174.231 L 115.57 172.671 C 115.57 172.671 116.805 172.785 116.936 172.883 C 115.328 179.44 109.639 193.164 109.566 193.091 L 108.102 192.874 L 108.489 191.488 L 107.127 191.295 L 107.127 191.28 L 106.47 192.787 L 105.016 192.666 C 108.538 184.629 110.936 178.458 112.604 172.241 L 112.604 172.241 Z  M 184.193 172.762 C 185.273 172.758 185.207 173.314 184.425 175.351 C 183.689 177.265 183.414 178.032 183.056 178.279 C 182.205 178.884 180.372 178.377 180.52 177.496 C 181.002 174.637 181.174 173.418 181.912 173.029 C 182.681 172.878 183.43 172.766 184.193 172.762 Z  M 118.023 172.999 L 121.539 173.68 L 118.598 175.428 L 120.467 177.612 L 116.854 179.152 L 119.047 181.422 L 115.56 182.847 L 117.68 185.344 L 114.063 186.87 L 116.526 189.005 L 112.459 190.29 L 114 192.657 L 112.469 193.512 L 110.58 193.217 C 113.715 185.904 115.73 179.889 118.023 172.999 L 118.023 172.999 Z  M 126.664 174.747 L 133.551 176.621 L 134.928 179.08 L 131.697 189.991 L 122.52 187.296 L 126.664 174.747 Z  M 112.976 175.8 L 112.319 177.592 L 113.836 177.906 L 114.42 176.061 L 112.976 175.8 Z  M 111.643 179.915 L 110.986 181.707 L 112.411 181.987 L 113.082 180.176 L 111.643 179.915 Z  M 110.3 183.533 L 109.629 185.315 L 111.015 185.6 L 111.677 183.813 L 110.3 183.533 Z  M 175.009 186.812 C 175.011 186.813 174.306 187.322 174.121 187.548 C 174.274 187.957 174.719 188.585 174.653 188.998 C 174.592 189.308 174.246 189.558 173.726 190.111 C 172.43 191.621 171.974 191.456 172.727 189.846 C 172.974 189.339 173.084 188.87 173.084 188.87 C 172.784 189.29 172.558 189.788 172.355 190.182 C 171.927 191.005 171.528 191.784 171.528 191.784 C 172.354 192.069 172.903 192.683 173.436 193.081 C 173.436 193.081 173.708 192.35 173.895 191.652 C 174.157 190.678 174.673 190.277 175.306 189.942 C 175.705 189.731 176.086 189.346 176.086 189.346 C 175.389 188.636 175.31 187.62 175.009 186.812 L 175.009 186.812 Z  M 108.866 187.252 L 108.156 189.15 L 109.537 189.488 L 110.305 187.551 L 108.866 187.252 Z  M 30.94 192.024 C 30.814 199.582 31.064 204.559 30.8 212.71 L 51.264 239.231 L 48.072 240.304 C 48.072 240.304 48.037 240.672 47.864 240.719 C 43.491 241.922 36.398 243.12 36.398 243.12 C 41.673 255.165 45.095 270.228 42.735 285.275 L 95.699 285.135 L 30.94 192.024 Z  M 142.955 204.833 L 141.129 206.663 C 114.194 192.085 77.095 192.143 50.023 209.793 L 47.816 208.175 C 77.363 189.245 113.714 189.364 142.955 204.833 Z  M 31.93 194.676 L 94.27 284.227 L 86.947 284.333 L 31.983 212.43 L 31.93 194.676 Z  M 165.714 196.294 C 165.714 196.294 163.913 196.761 162.4 197.245 C 158.069 198.632 156.042 201.137 156.44 204.616 C 156.558 205.643 156.824 205.629 158.589 204.514 C 162.72 201.907 162.978 201.791 168.124 200.283 C 168.522 200.167 169.099 200.254 169.099 200.254 L 168.872 204.316 C 160.296 204.284 160.764 211.096 163.231 214.638 C 162.367 216.275 160.478 221.992 166.699 224.167 C 169.802 224.785 173.089 222.264 172.987 222.134 C 178.711 224.841 185.354 220.302 180.174 212.44 C 182.122 209.011 180.749 206.466 178.89 204.277 C 178.89 204.277 179.204 204.304 181.913 204.804 C 186.023 205.562 187.593 205.427 187.593 205.427 C 187.598 201.728 184.535 200.076 178.146 199.573 C 173.621 200.212 165.714 196.262 165.714 196.294 L 165.714 196.294 Z  M 96.704 196.723 C 97.013 196.722 97.319 196.722 97.626 196.728 L 97.327 203.046 L 90.367 203.365 L 89.913 197.071 C 92.31 196.906 94.538 196.731 96.704 196.723 L 96.704 196.723 Z  M 105.045 196.878 L 112.512 197.786 L 111.382 203.693 L 104.504 202.954 L 105.045 196.878 Z  M 165.453 196.946 C 166.22 196.929 166.053 197.726 165.153 197.902 C 163.811 198.165 160.369 200.169 160.367 200.689 C 160.365 201.024 160.536 200.976 161.797 200.302 C 162.426 199.966 163.741 199.392 164.714 199.023 C 165.687 198.652 166.799 198.207 167.187 198.032 C 168.344 197.51 168.917 197.871 168.5 198.858 C 168.225 199.511 168.116 199.562 165.433 200.414 C 163.006 201.183 162.561 201.383 161.019 202.37 C 160.444 202.738 159.425 203.326 158.754 203.674 C 157.168 204.495 156.846 204.498 156.851 203.394 C 156.764 200.121 160.383 197.666 165.289 196.96 C 165.348 196.951 165.401 196.947 165.453 196.946 L 165.453 196.946 Z  M 100.983 197.714 C 101.917 197.714 102.674 198.471 102.674 199.404 C 102.674 200.338 101.917 201.095 100.983 201.095 C 100.05 201.095 99.293 200.338 99.293 199.404 C 99.293 198.471 100.05 197.714 100.983 197.714 Z  M 82.509 198.163 L 83.064 203.896 L 76.22 205.654 L 74.655 199.733 C 77.274 199.091 79.89 198.64 82.509 198.163 L 82.509 198.163 Z  M 170.674 198.597 C 172.55 198.883 172.401 203.18 171.442 203.925 C 169.965 204.988 169.059 202.764 169.718 199.815 C 169.903 198.928 170.245 198.618 170.674 198.597 Z  M 86.392 198.829 C 87.326 198.829 88.083 199.586 88.083 200.52 C 88.083 201.454 87.326 202.21 86.392 202.21 C 85.459 202.21 84.702 201.454 84.702 200.52 C 84.702 199.586 85.459 198.829 86.392 198.829 Z  M 119.825 199.322 L 127.562 201.433 L 125.669 207.422 L 118.409 205.379 L 119.825 199.322 Z  M 115.613 199.438 C 116.547 199.438 117.303 200.195 117.303 201.128 C 117.303 202.062 116.547 202.819 115.613 202.819 C 114.679 202.819 113.923 202.062 113.923 201.128 C 113.923 200.195 114.679 199.438 115.613 199.438 Z  M 178.909 199.94 C 182.242 199.975 186.638 201.647 186.646 204.224 C 186.579 204.957 179.663 203.984 176.47 202.698 C 175.337 202.242 173.956 200.853 173.958 200.273 C 173.96 199.929 174.634 199.953 174.91 200.288 C 175.359 200.834 176.951 201.405 180.609 202.326 C 183.419 203.034 183.698 203.062 183.7 202.635 C 183.702 202.247 182.041 201.712 180.242 201.413 C 179.337 201.265 178.493 200.992 177.102 200.872 C 176.454 200.87 176.296 200.463 176.837 200.187 C 177.426 200.012 178.14 199.932 178.909 199.94 L 178.909 199.94 Z  M 173.021 201.273 C 173.862 201.668 174.166 202.453 174.63 202.867 C 174.053 203.14 173.795 203.416 172.862 203.485 C 172.879 202.869 172.71 202.132 173.021 201.273 L 173.021 201.273 Z  M 71.695 201.737 C 72.628 201.737 73.385 202.494 73.385 203.427 C 73.385 204.361 72.628 205.118 71.695 205.118 C 70.761 205.118 70.004 204.361 70.004 203.427 C 70.004 202.494 70.761 201.737 71.695 201.737 Z  M 67.145 202.215 L 68.971 208.069 L 62.431 210.914 L 60.113 205.113 C 62.373 203.925 64.846 203.061 67.145 202.215 Z  M 97.385 203.171 C 97.385 203.171 102.595 203.179 104.393 203.2 L 103.973 209.808 L 97.472 209.856 L 97.385 203.171 Z  M 90.425 203.534 L 90.787 210.131 L 84.528 210.972 L 83.291 204.335 L 90.425 203.534 Z  M 130.001 203.592 C 130.935 203.592 131.692 204.349 131.692 205.282 C 131.692 206.216 130.935 206.973 130.001 206.973 C 129.068 206.973 128.311 206.216 128.311 205.282 C 128.311 204.349 129.068 203.592 130.001 203.592 Z  M 175.291 203.746 C 179.103 203.763 182.738 208.147 178.972 212.739 C 185.149 217.492 178.433 225.48 172.973 220.825 C 165.165 228.493 160.802 218.08 164.033 215.319 C 159.261 207.478 165.124 202.524 171.171 205.982 C 172.285 204.403 173.8 203.74 175.291 203.746 Z  M 111.493 203.935 L 118.361 205.461 L 116.98 211.986 L 110.271 210.624 L 111.493 203.935 Z  M 134.223 204.094 L 140.501 207.214 L 135.633 211.899 L 132.015 210.097 L 134.223 204.094 Z  M 93.965 204.833 C 94.899 204.833 95.656 205.59 95.656 206.523 C 95.656 207.457 94.899 208.214 93.965 208.214 C 93.032 208.214 92.275 207.457 92.275 206.523 C 92.275 205.59 93.032 204.833 93.965 204.833 Z  M 107.533 205.045 C 108.466 205.045 109.223 205.802 109.223 206.736 C 109.223 207.67 108.466 208.426 107.533 208.426 C 105.045 208.037 105.714 205.101 107.533 205.045 Z  M 76.259 205.997 L 77.79 212.522 L 71.429 214.671 L 69.154 208.315 L 76.259 205.997 Z  M 80.63 206.461 C 81.563 206.461 82.32 207.217 82.32 208.151 C 82.32 209.085 81.563 209.841 80.63 209.841 C 79.696 209.841 78.94 209.085 78.94 208.151 C 78.94 207.217 79.696 206.461 80.63 206.461 Z  M 174.789 209.47 C 174.31 210.064 173.682 210.765 173.682 210.765 C 172.099 210.112 170.565 210.373 169.539 211.077 C 169.539 211.077 168.448 210.207 167.452 209.402 C 165.726 208.007 165.151 207.689 165.148 208.272 C 165.148 208.393 165.734 208.989 166.448 209.6 C 168.394 211.265 168.792 211.866 168.792 211.866 C 168.324 213.377 168.329 214.561 169.223 215.832 C 169.223 215.832 169.26 215.997 168.577 216.718 C 167.336 218.026 166.058 220.046 166.352 220.343 C 166.718 220.712 167.754 219.827 169.055 218.071 C 169.981 216.818 170.26 216.791 170.26 216.791 C 171.841 217.218 172.717 217.604 174.297 216.299 C 174.297 216.299 174.894 216.48 176.085 217.463 C 177.941 218.995 178.607 219.325 178.809 218.806 C 178.973 218.382 178.729 218.099 177.157 216.903 C 176.133 216.124 174.995 215.212 174.995 215.212 C 175.329 214.663 175.567 212.712 174.422 211.377 C 174.422 211.377 174.467 211.465 176.159 209.272 C 177.285 207.813 177.481 207.628 177.107 207.315 C 176.61 206.664 174.956 209.262 174.789 209.47 L 174.789 209.47 Z  M 125.732 207.6 L 131.928 210.204 L 129.711 216.681 L 123.727 214.237 L 125.732 207.6 Z  M 57.548 208.035 C 58.482 208.035 59.238 208.792 59.238 209.726 C 59.238 210.659 58.482 211.416 57.548 211.416 C 56.614 211.416 55.857 210.659 55.857 209.726 C 55.857 208.792 56.614 208.035 57.548 208.035 Z  M 120.94 208.209 C 121.874 208.209 122.631 208.966 122.631 209.899 C 122.631 210.833 121.874 211.59 120.94 211.59 C 120.007 211.59 119.25 210.833 119.25 209.899 C 119.25 208.966 120.007 208.209 120.94 208.209 Z  M 53.22 208.673 L 55.249 213.696 L 50.636 210.257 L 53.22 208.673 Z  M 104.074 209.967 L 110.247 210.696 L 109.271 216.579 L 103.949 216.096 L 104.074 209.967 Z  M 97.337 209.982 L 97.274 216.029 L 91.41 216.28 L 90.913 210.242 L 97.337 209.982 Z  M 67.169 211.083 C 68.102 211.083 68.86 211.84 68.86 212.773 C 68.86 213.707 68.102 214.464 67.169 214.464 C 66.235 214.464 65.479 213.707 65.479 212.773 C 65.479 211.84 66.235 211.083 67.169 211.083 Z  M 62.494 211.204 L 64.88 217.28 L 61.18 219.067 L 56.22 214.372 L 62.494 211.204 Z  M 84.562 211.281 L 85.518 217.062 L 79.403 218.574 L 77.92 212.691 L 84.562 211.281 Z  M 171.959 211.339 C 173.289 211.339 174.369 212.418 174.369 213.749 C 174.369 215.08 173.289 216.159 171.959 216.159 C 170.628 216.159 169.549 215.08 169.549 213.749 C 169.549 212.418 170.628 211.339 171.959 211.339 Z  M 100.413 211.522 C 101.347 211.522 102.104 212.279 102.104 213.213 C 102.104 214.146 101.347 214.903 100.413 214.903 C 99.48 214.903 98.723 214.146 98.723 213.213 C 98.723 212.279 99.48 211.522 100.413 211.522 Z  M 117.067 212.145 L 123.587 214.256 L 121.394 219.477 L 115.763 217.951 L 117.067 212.145 Z  M 88.169 212.363 C 89.103 212.363 89.86 213.12 89.86 214.053 C 89.86 214.987 89.103 215.744 88.169 215.744 C 87.236 215.744 86.479 214.987 86.479 214.053 C 86.479 213.12 87.236 212.363 88.169 212.363 Z  M 112.961 212.986 C 113.895 212.986 114.652 213.743 114.652 214.676 C 114.652 215.61 113.895 216.367 112.961 216.367 C 112.028 216.367 111.271 215.61 111.271 214.676 C 111.271 213.743 112.028 212.986 112.961 212.986 Z  M 71.559 214.966 L 73.805 220.134 L 67.671 222.786 L 65 217.516 L 71.559 214.966 Z  M 75.906 215.275 C 76.84 215.275 77.597 216.032 77.597 216.966 C 77.597 217.9 76.84 218.656 75.906 218.656 C 74.973 218.656 74.216 217.9 74.216 216.966 C 74.216 216.032 74.973 215.275 75.906 215.275 Z  M 98.505 216.835 C 108.576 216.814 117.666 218.92 124.964 221.94 L 122.79 223.979 C 99.121 215.845 83.642 219.509 67.768 226.471 L 66.164 224.491 C 77.384 219.002 88.435 216.856 98.505 216.835 Z  M 125.282 216.898 C 126.216 216.898 126.973 217.655 126.973 218.589 C 126.973 219.522 126.216 220.279 125.282 220.279 C 124.349 220.279 123.592 219.522 123.592 218.589 C 123.592 217.655 124.349 216.898 125.282 216.898 Z  M 63.6 220.607 C 64.958 220.687 65.088 223.222 64.455 222.491 L 62.943 220.743 C 63.188 220.637 63.406 220.596 63.6 220.607 Z  M 126.876 221.655 C 126.826 223.577 125.006 236.457 118.863 245.312 C 118.491 240.833 117.41 235.479 116.202 231.905 C 116.202 231.905 122.812 225.797 126.876 221.655 Z  M 48.299 241.173 L 80.263 284.275 L 76.906 284.251 C 76.205 281.086 75.19 277.848 73.197 275.427 C 71.578 273.461 70.129 271.98 67.227 270.66 C 65.481 269.866 65.256 270.035 65.145 268.694 C 64.618 261.155 58.514 256.414 53.839 254.61 C 53.387 250.053 51.33 245.57 46.173 241.796 L 48.299 241.173 Z  M 45.186 242.205 C 48.107 244.212 51.308 245.953 53.032 253.867 C 53.162 255.521 53.263 255.345 54.563 255.832 C 59.657 257.325 64.089 263.448 64.484 268.8 C 64.479 270.414 65.006 270.558 66.995 271.394 C 69.438 272.42 71.974 274.59 73.409 276.726 C 75.544 279.797 76.298 284.448 76.114 284.227 L 74.356 284.237 C 73.102 276.352 68.141 273.206 62.894 271.733 C 63.302 260.601 54.647 257.127 51.624 256.604 C 51.802 248.587 46.614 245.279 43.266 242.588 C 43.89 242.343 45.186 242.205 45.186 242.205 Z  M 40.016 243.311 C 42.63 244.165 44.612 247.809 44.411 249.485 C 47.859 249.92 51.482 253.254 50.687 256.726 C 50.432 256.873 50.029 256.903 49.631 256.504 C 50.555 249.768 40.498 253.103 44.517 257.976 L 42.72 259.15 C 41.275 252.408 39.496 248.589 37.565 243.719 C 38.269 243.533 40.016 243.311 40.016 243.311 L 40.016 243.311 Z  M 48.342 257.435 C 49.235 257.435 49.955 258.16 49.955 259.053 C 49.955 259.947 49.235 260.671 48.342 260.671 C 47.449 260.671 46.724 259.947 46.724 259.053 C 46.724 258.16 47.449 257.435 48.342 257.435 Z  M 56.975 264.707 C 60.816 265.793 62.058 269.68 61.932 271.094 L 61.093 271.075 C 59.742 264.917 52.723 268.267 55.653 273.179 C 51.901 274.565 52.197 278.029 53.302 279.398 C 54.827 281.289 58.715 281.229 59.9 278.32 C 63.548 283.039 68.581 277.744 64.141 273.345 C 67.778 274.685 68.361 279.557 67.814 281.079 C 69.502 281.655 71.447 284.334 71.188 284.319 L 43.937 284.323 C 43.937 284.323 45.256 273.327 43.855 265.028 C 45.668 265.464 46.884 265.902 48.97 263.453 C 52.346 266.249 54.772 264.139 54.597 261.724 C 54.337 260.036 53.465 259.197 52.018 258.305 C 54.972 257.578 57.207 262.689 56.975 264.707 L 56.975 264.707 Z  M 60.016 272.454 C 60.936 272.454 61.682 273.2 61.682 274.12 C 61.682 275.04 60.936 275.786 60.016 275.786 C 59.096 275.786 58.35 275.04 58.35 274.12 C 58.35 273.2 59.096 272.454 60.016 272.454 Z " fill="rgb(0,0,0)"/></g></g></g></g></g></g></svg>