<?xml version="1.0" standalone="no"?><!-- Generator: Gravit.io --><svg xmlns="http://www.w3.org/2000/svg" xmlns:xlink="http://www.w3.org/1999/xlink" style="isolation:isolate" viewBox="0 0 224 312" width="224" height="312"><defs><clipPath id="_clipPath_l8j1STdkPXHqbzT68AWhV7m3FkoOHBtE"><rect width="224" height="312"/></clipPath></defs><g clip-path="url(#_clipPath_l8j1STdkPXHqbzT68AWhV7m3FkoOHBtE)"><g id="layer1"><g id="g3850"><g id="g3731"><path d="M 10.63 0 L 212.598 0 C 218.465 0 223.228 4.763 223.228 10.63 L 223.228 301.181 C 223.228 307.048 218.465 311.811 212.598 311.811 L 10.63 311.811 C 4.763 311.811 0 307.048 0 301.181 L 0 10.63 C 0 4.763 4.763 0 10.63 0 Z" style="stroke:none;fill:#FFFFFF;stroke-miterlimit:10;"/><path d="M 10.63 0 L 212.598 0 C 218.465 0 223.228 4.763 223.228 10.63 L 223.228 301.181 C 223.228 307.048 218.465 311.811 212.598 311.811 L 10.63 311.811 C 4.763 311.811 0 307.048 0 301.181 L 0 10.63 C 0 4.763 4.763 0 10.63 0 Z" style="fill:none;stroke:#000000;stroke-width:0.99673343;"/></g><g id="g4012"><g id="g3023"><g id="g2993"><path d=" M 29.102 24.837 C 29.187 103.963 30.028 201.203 30.086 287.382 L 193.802 287.343 L 192.712 25.218 L 29.102 24.837 Z  M 77.495 26.516 C 105.741 27.283 134.161 26.454 162.616 26.676 C 162.616 26.676 152.278 44.683 149.145 50.351 C 148.459 51.598 148.389 52.479 148.759 52.996 C 149.331 53.796 149.283 55.149 148.643 55.931 C 148.368 56.266 148.243 56.483 148.223 56.684 C 148.202 56.884 148.382 57.104 148.527 57.466 C 149.033 59.192 147.727 60.387 146.36 60.941 C 145.443 61.313 143.401 61.558 141.895 61.487 C 132.452 61.039 113.933 53.058 106.302 52.436 C 101.007 50.958 94.165 51.475 88.525 51.794 C 87.46 51.858 87.646 49.376 87.646 49.376 C 86.757 41.178 80.951 34.041 77.495 26.516 L 77.495 26.516 Z  M 164.151 27.265 L 190.844 27.293 L 190.964 31.604 L 179.732 43.116 C 178.675 44.192 177.84 45.085 177.84 45.085 L 177.773 55.472 C 170.116 51.359 168.59 46.443 167.192 41.035 C 154.394 50.478 153.794 71.141 167.767 81.779 C 167.881 77.158 171.402 68.078 177.642 67.404 L 177.729 103.398 L 170.054 95.902 L 153.368 96.119 C 156.119 91.656 156.181 88.111 154.401 83.927 C 151.401 77.091 146.772 61.487 147.127 61.54 C 147.127 61.54 147.26 61.204 147.639 61.12 C 149.022 60.812 149.902 59.476 149.507 57.871 C 149.432 57.355 149.434 57.476 149.787 56.805 C 151.144 54.488 149.526 51.973 149.526 51.973 L 164.151 27.265 Z  M 75.622 27.482 L 85.638 45.587 C 85.638 45.587 85.508 46.417 85.561 46.905 C 85.64 47.606 85.874 48.23 86.275 48.884 C 86.541 49.316 86.737 49.907 86.797 50.453 C 86.895 51.351 86.896 51.352 88.211 52.538 C 88.487 52.787 88.54 52.94 88.438 53.199 C 88.002 54.299 88.257 56.548 89.118 59.233 C 90.206 62.624 90.486 62.579 88.462 67.115 C 88.039 68.062 87.529 69.326 86.98 70.489 C 84.48 75.622 84.095 77.015 88.385 79.751 C 89.592 80.522 89.946 81.19 89.644 82.725 C 89.407 83.932 89.359 84.704 89.939 85.384 C 90.315 85.826 90.656 85.898 90.561 86.239 C 90.497 86.47 90.217 87.475 90.31 88.319 C 90.563 90.594 87.935 93.946 85.537 95.12 C 85.057 95.46 84.92 95.045 84.649 94.57 C 82.164 90.219 75.98 91.982 75.569 97.171 C 75.461 98.544 75.503 99.139 75.149 99.43 C 75.029 99.529 74.667 99.734 74.667 99.734 C 74.667 99.734 65.412 105.754 59.525 108.847 C 59.141 109.049 58.797 109.382 58.526 109.436 C 58.213 109.499 57.981 109.443 57.787 109.248 C 55.615 105.115 56.819 100.234 57.005 98.504 C 56.959 97.891 56.434 97.779 55.644 97.77 C 54.306 97.754 52.38 99.112 51.961 100.376 C 51.605 101.452 51.377 102.148 51.054 102.143 C 50.729 102.138 50.571 101.705 49.765 100.154 C 48.088 96.929 47.829 96.52 46.261 94.647 C 45.01 93.153 43.944 92.955 42.718 94.068 C 41.866 94.842 41.894 94.169 41.169 93.778 C 39.917 92.926 38.034 93.689 37.988 94.888 C 37.949 95.895 37.94 96.651 36.921 96.718 C 35.786 96.792 35.293 98.257 35.613 100.347 C 35.781 101.447 35.814 101.624 35.478 102.027 C 34.38 103.342 34.237 104.25 34.841 106.087 C 36.562 111.32 39.056 114.843 41.4 119.602 C 41.4 119.602 35.445 122.981 31.911 124.945 L 31.819 27.573 L 75.622 27.482 Z  M 191.346 32.656 L 191.486 117.241 L 178.704 104.677 C 178.704 104.677 178.455 88.468 178.468 81.841 C 178.48 75.215 178.576 68.588 178.55 67.356 C 178.523 66.124 178.616 60.88 178.656 55.497 C 178.74 44.219 177.708 45.613 179.805 43.449 L 191.346 32.656 Z  M 166.367 42.797 L 167.071 44.839 C 161.715 47.909 155.163 65.01 167.192 77.565 L 166.951 80.152 C 154.342 68.715 156.675 52.314 166.367 42.797 L 166.367 42.797 Z  M 167.284 45.211 C 169.122 49.004 171.214 52.364 174.066 54.42 C 172.53 58.086 171.869 62.13 174.471 67.583 C 172.646 68.584 170.111 71.242 167.487 76.686 C 157.994 67.097 160.107 53.194 167.284 45.211 Z  M 96.663 52.378 C 101.927 52.387 107.418 53.246 112.451 54.763 C 115.626 70.811 121.201 81.601 121.178 87.885 C 121.178 87.885 120.739 87.811 119.802 87.136 C 117.509 85.481 114.498 86.405 112.886 88.512 C 111.357 90.51 112.896 93.289 112.113 94.454 C 110.631 96.627 106.815 100.644 106.176 100.512 C 105.711 100.415 105.786 100.212 107.422 97.702 C 109.125 95.089 110.431 92.721 109.869 92.142 C 109.63 91.896 109.504 92.415 108.232 94.623 C 105.249 99.805 102.625 103.008 101.586 102.592 C 101.099 102.397 101.351 101.968 103.56 99.049 C 106.055 95.753 106.747 93.691 106.5 92.779 C 106.309 92.078 105.923 93.211 104.887 95.236 C 103.784 97.379 101.789 99.767 100.177 102.061 C 99.665 102.891 99.009 103.372 98.169 103.75 C 97.546 104.02 96.553 104.461 95.977 104.388 C 95.681 104.35 95.885 104.176 96.291 103.779 C 99.474 100.502 102.21 96.847 103.763 93.339 C 104.003 92.879 103.659 92.224 103.266 92.707 C 100.884 96.897 97.569 102.125 93.969 104.431 C 93.197 104.925 92.034 105.344 90.986 105.256 C 89.214 105.206 89.841 104.811 91.454 103.775 C 94.909 101.555 99.756 95.176 100.539 92.919 C 100.724 92.386 100.518 92.081 100.177 92.118 C 97.335 96.664 93.58 101.667 89.215 103.76 C 86.863 104.888 83.897 105.11 82.438 104.397 C 81.369 103.874 81.637 103.695 83.534 103.572 C 88.098 103.122 93.445 98.838 96.093 94.304 C 97.643 91.794 96.555 92.371 94.785 94.792 C 91.763 98.924 85.763 102.886 82.042 102.573 C 78.279 102.35 76.114 99.434 76.597 96.935 C 76.89 95.423 77.964 93.882 80.068 93.44 C 83.672 92.684 86.031 98.392 82.732 99.469 C 81.609 99.836 81.182 99.558 81.588 99.107 C 84.035 98.036 82.947 95.097 80.884 94.797 C 79.585 94.608 78.08 95.482 78.017 97.495 C 78.054 98.995 79.289 100.462 81.767 100.497 C 84.705 100.539 89.212 98.424 91.947 94.531 C 93.888 91.556 92.1 92.56 90.653 94.546 C 89.376 96.297 85.253 98.748 84.938 98.658 L 85.078 96.64 C 85.141 96.989 91.427 92.685 91.059 89.482 C 90.823 87.157 91.163 86.446 93.583 86.475 C 95.393 86.497 97.693 87.132 98.362 87.962 C 99.051 88.783 99.823 89.042 99.481 87.658 C 98.927 85.411 99.591 85.04 98.289 85.466 C 97.391 85.761 96.593 85.039 95.692 84.4 C 94.701 83.696 93.448 83.395 91.952 83.449 C 90.834 83.489 90.33 83.422 90.508 82.368 C 90.634 81.624 90.777 80.948 90.561 80.461 C 90.211 79.669 88.812 78.85 87.231 77.686 C 85.364 76.311 85.71 76.23 89.688 67.062 C 91.358 63.212 91.365 62.422 90.364 59.58 C 88.781 55.089 88.532 53.29 91.498 52.663 C 93.177 52.471 94.908 52.376 96.663 52.378 L 96.663 52.378 Z  M 113.503 54.98 L 115.043 55.419 C 115.055 55.421 119.851 71.834 122.597 79.848 C 123.435 82.293 124.073 85.597 124.233 88.7 C 124.158 92.973 121.752 96.04 118.818 96.375 C 116.741 96.612 114.487 95.535 113.455 93.223 C 112.585 91.025 113.241 88.432 115.748 87.537 C 120.088 85.988 123.267 91.527 119.011 93.233 C 116.809 94.115 114.718 92.525 115.709 90.675 C 116.404 89.377 118.36 89.518 118.823 90.858 C 119.199 92.284 119.823 91.611 119.556 90.646 C 118.749 87.568 114.796 88.293 114.478 91.128 C 114.478 94.641 118.324 95.466 120.618 93.493 C 122.396 91.917 122.582 89.068 122.139 86.596 C 121.528 81.461 118.622 74.802 116.559 67.202 C 115.529 63.407 114.036 58.882 113.503 54.98 L 113.503 54.98 Z  M 174.77 55.164 L 177.662 56.308 L 177.594 65.836 L 175.142 66.68 C 171.933 61.778 174.602 55.168 174.77 55.164 Z  M 116.168 55.781 L 118.287 56.597 C 119.447 63.323 124.919 76.18 126.85 85.775 C 127.387 91.542 127.474 93.235 123.567 96.307 L 123.567 96.264 L 121.453 96.264 C 121.453 96.264 121.446 96.135 122.37 95.443 C 127.486 91.617 124.433 83.186 122.501 76.706 C 119.134 66.356 116.126 55.768 116.168 55.781 L 116.168 55.781 Z  M 96.363 56.452 C 96.095 56.456 95.822 56.467 95.548 56.481 C 92.352 56.653 91.827 56.858 91.816 57.553 C 91.797 58.862 92.334 59.443 95.306 59.122 C 97.879 58.843 101.605 59.243 104.173 60.348 C 107.102 61.608 107.798 61.905 108.85 62.447 C 111.493 63.808 111.032 62.454 108.643 60.883 C 103.763 57.674 100.39 56.404 96.363 56.452 Z  M 119.421 56.916 L 121.41 57.674 C 121.41 57.674 121.936 59.224 122.124 60.111 C 124.059 68.697 129.323 78.353 129.939 88.396 C 130.078 91.688 129.513 94.756 127.101 96.24 L 125.281 96.24 C 127.226 94.305 128.523 93.746 127.979 87.021 C 127.118 78.383 121.42 67.59 119.421 56.916 Z  M 122.949 58.311 L 124.784 58.986 C 126.896 70.581 137.367 87.905 130.701 96.264 L 129.036 96.264 C 130.523 93.945 131.137 91.907 130.914 88.778 C 130.266 78.242 124.891 68.017 122.949 58.311 Z  M 126.024 59.377 L 127.998 59.981 C 130.679 71.728 140.978 90.979 133.636 96.303 L 132.188 96.264 C 137.72 85.923 129.334 75.222 126.024 59.377 Z  M 129.466 60.473 C 130.072 60.81 130.938 60.972 131.599 61.163 C 133.677 70.046 137.474 78.781 139.201 87.054 C 139.783 91.584 138.789 94.975 135.943 96.264 L 135.335 96.264 C 137.889 92.409 137.407 87.546 136.045 82.29 C 134.212 75.223 130.652 67.448 129.466 60.473 Z  M 98.362 60.628 C 97.445 60.619 96.485 60.758 95.47 61.081 C 94.431 61.474 94.559 62.293 95.523 62.124 C 95.85 62.066 96.429 61.964 96.812 61.897 C 99.18 61.484 102.099 62.338 105.636 64.479 C 106.49 64.997 107.418 65.495 107.648 65.667 C 108.298 66.152 108.992 66.15 108.754 65.532 C 108.659 65.284 107.295 64.228 106.089 63.553 C 103.51 61.994 101.113 60.653 98.362 60.628 Z  M 132.82 61.4 L 134.809 61.704 C 138.55 78.895 146.761 89.576 139.737 95.955 L 137.98 95.955 C 139.902 93.992 140.77 90.919 140.133 87.286 C 139.483 83.578 137.566 77.692 135.977 72.516 C 134.135 66.516 132.651 61.442 132.82 61.4 L 132.82 61.4 Z  M 135.673 61.882 L 137.358 62.196 C 139.331 69.184 142.682 77.846 144.699 85.061 C 145.94 89.498 145.441 94.963 142.672 95.97 L 141.248 95.994 C 143.599 92.853 143.934 89.581 142.86 85.351 C 140.656 76.667 137.32 69.088 135.673 61.882 Z  M 146.07 61.892 C 147.772 69.136 151.857 80.188 153.325 84.004 C 155.278 87.901 154.692 93.671 151.756 95.955 L 150.366 95.984 C 152.045 94.414 152.622 91.77 152.354 89.029 C 151.599 81.282 146.115 70.539 144.13 62.288 L 146.07 61.892 Z  M 138.68 62.235 L 140.418 62.394 C 142.158 69.971 145.543 77.337 147.74 84.916 C 148.149 86.627 148.506 88.716 148.363 90.255 C 148.062 93.479 146.726 96.023 145.553 96.023 L 144.356 96.023 C 146.801 93.109 146.682 89.137 145.636 84.868 C 143.906 77.812 139.722 69.304 138.68 62.235 L 138.68 62.235 Z  M 93.438 62.273 C 92.714 62.277 92.701 62.94 93.858 63.953 C 94.566 64.573 94.511 64.366 94.471 64.759 C 94.299 66.438 94.563 67.974 95.253 66.246 C 95.437 65.785 95.707 65.264 95.977 65.329 C 96.487 65.486 96.228 66.423 96.474 66.898 C 96.89 67.734 96.448 67.938 95.437 67.68 C 94.709 67.493 94.667 67.887 94.215 68.389 C 93.424 69.267 93.553 69.791 94.77 69.519 C 94.971 69.474 95.141 69.531 95.297 69.567 C 95.676 69.654 96.023 69.895 96.928 70.585 C 98.09 71.472 99.736 72.654 100.804 72.835 C 102.514 73.124 102.133 72.305 100.732 71.768 C 99.531 71.308 98.043 70.031 98.048 69.678 C 98.051 69.406 98.429 69.567 100.592 68.973 C 101.53 68.715 102.85 68.138 103.406 67.882 C 104.324 67.459 104.367 67.463 105.805 67.506 C 108.253 67.579 108.626 67.495 106.91 66.222 C 103.441 63.648 98.813 61.973 96.359 63.041 C 95.614 63.365 95.632 63.166 95.094 62.858 C 94.391 62.454 93.818 62.272 93.438 62.273 Z  M 143.087 62.505 C 145.491 71.767 150.142 80.065 151.273 88.85 C 151.529 91.363 151.108 93.818 149.019 95.941 L 147.61 95.965 C 147.403 95.968 149.577 92.606 149.391 89.728 C 149.447 88.193 149.278 86.547 148.841 84.921 C 146.109 77.11 143.419 70.032 141.33 62.587 L 143.087 62.505 Z  M 99.67 65.546 C 99.683 65.544 99.696 65.544 99.708 65.546 C 100.364 65.649 100.387 65.91 100.196 66.251 C 99.913 66.756 99.414 67.728 99.414 67.728 C 99.414 67.728 98.749 67.858 98.613 67.689 C 98.373 67.341 99.25 65.597 99.67 65.546 Z  M 101.335 65.845 C 101.408 65.844 101.498 65.881 101.639 65.937 C 102.269 66.186 103.361 66.696 102.889 67.091 C 102.33 67.558 100.163 67.768 100.268 67.573 L 100.992 66.236 C 101.146 65.952 101.214 65.847 101.335 65.845 Z  M 94.698 73.94 C 94.642 73.943 94.595 73.957 94.558 73.979 C 94.432 74.054 94.717 74.557 95.132 75.127 C 97.05 77.714 94.396 78.481 92.516 77.097 C 90.732 75.709 87.977 75.84 88.375 77.295 C 88.515 77.807 88.378 78.057 89.374 78.072 C 90.259 78.085 90.488 78.134 91.286 78.68 C 94.337 80.767 98.28 77.973 96.354 74.978 C 95.99 74.412 95.09 73.918 94.698 73.94 L 94.698 73.94 Z  M 102.228 77.98 C 101.12 77.98 100.42 78.806 101.808 79.054 C 106.765 79.944 103.441 85.083 99.945 82.435 C 96.795 79.592 92.581 79.611 92.531 81.629 C 92.523 82.137 92.547 82.154 93.293 82.295 C 95.049 82.627 97.671 83.425 98.675 83.931 C 99.266 84.229 99.887 84.507 100.056 84.549 C 102.155 85.312 104.848 84.321 105.381 82.553 C 105.868 80.934 105.474 77.98 102.228 77.98 L 102.228 77.98 Z  M 40.054 94.517 C 40.717 94.525 41.423 95.105 41.926 95.955 C 43.09 97.919 44.504 101.221 45.407 103.041 C 45.634 103.5 45.643 103.909 45.629 104.127 C 45.699 105.194 46.057 105.597 46.69 105.116 C 47.313 104.644 48.177 103.853 47.164 103.726 C 46.144 102.958 45.577 101.831 46.208 101.144 C 46.672 100.638 46.491 100.31 46.116 100.29 C 44.688 100.269 42.56 96.021 43.563 95.106 C 44.916 93.871 46.414 95.4 49.601 101.723 C 51.005 104.515 51.071 107.571 49.867 106.058 C 49.457 105.676 49.54 105.874 49.06 107.076 C 48.7 107.98 48.404 108.409 47.028 109.731 C 45.354 111.341 44.339 112.613 44.301 112.892 C 44.229 113.426 45.206 112.928 45.918 111.999 C 47.509 110.445 47.569 110.031 47.555 112.091 C 47.542 113.955 47.446 114.295 47.781 114.282 C 48.305 114.263 48.584 112.789 48.829 111.01 C 49.121 109.408 49.953 108.6 51.339 107.708 C 51.719 107.464 51.726 107.295 51.652 106.589 C 51.397 104.325 52.684 100.105 53.269 101.149 C 53.352 101.384 53.607 101.932 53.742 102.317 C 53.852 102.912 54.227 103.585 54.8 103.63 C 55.511 104.162 55.509 104.45 55.755 106.4 C 55.836 107.037 56.117 107.992 56.315 108.5 C 56.683 109.445 57.012 109.999 56.808 110.281 C 56.678 110.42 56.402 110.682 56.402 110.682 L 44.798 117.56 C 44.798 117.56 43.887 118.064 43.558 118.202 C 42.638 118.617 42.079 118.31 41.627 117.623 C 39.168 113.961 37.48 109.847 35.753 106.053 C 34.716 103.801 35.731 102.311 37.071 104.127 C 37.591 104.833 37.325 105.283 37.066 106.646 C 37.019 106.893 37.248 106.799 37.679 106.868 C 38.357 106.796 38.684 107.401 38.659 108.428 C 38.231 109.899 38.823 109.104 39.103 109.031 C 39.639 109.039 39.758 109.361 40.058 109.972 C 40.246 110.834 40.625 110.584 41.178 110.016 C 41.635 109.546 41.637 109.557 40.715 108.457 C 39.122 106.731 36.914 102.835 36.342 100.463 C 36.184 99.809 36.242 99.286 36.361 98.938 C 37.081 97.318 38.083 97.312 39.175 99.575 C 39.361 99.96 39.727 100.581 39.986 100.956 C 40.406 101.563 40.666 102.084 40.652 103.05 C 40.329 103.86 40.277 103.876 40.556 103.987 C 41.248 104.261 42.479 105.512 42.535 106.632 C 42.591 107.77 42.783 108.374 43.679 107.699 C 44.699 106.929 44.265 106.62 43.259 105.633 C 42.204 104.378 42.141 103.29 42.766 102.384 C 42.869 102.08 42.825 101.995 42.438 102.032 C 41.214 102.151 40.023 100.6 40.874 99.421 C 41.266 98.73 41.22 98.552 40.667 98.533 C 40.378 98.523 39.902 98.578 39.668 98.446 C 39.306 97.767 38.55 96.818 38.557 96.042 C 38.914 94.95 39.468 94.51 40.054 94.517 L 40.054 94.517 Z  M 112.779 94.575 C 114.791 95.808 116.784 97.093 119.045 97.678 C 113.806 107.113 105.382 112.168 98.333 114.143 C 98.573 115.35 98.743 116.553 99.911 117.294 C 99.871 117.112 99.354 114.969 99.467 114.529 C 109.178 112.049 117.727 102.535 119.913 97.63 L 162.592 97.167 C 130.953 127.517 129.692 170.232 155.506 206.036 L 152.538 207.768 C 132.646 177.973 132.849 149.266 138.815 130.042 C 143.045 116.412 150.636 105.999 156.404 100.048 C 156.404 100.048 133.265 99.73 121.748 100.154 C 120.074 102.714 118.518 104.805 116.269 107.221 C 116.269 107.221 122.121 101.57 121.97 100.589 C 132.643 100.583 143.65 99.966 154.309 100.709 C 141.836 115.637 135.687 131.048 134.621 145.546 C 134.581 147.432 134.467 146.378 133.844 147.071 L 131.874 150.126 L 130.296 146.95 C 129.223 146.604 127.113 147.163 126.217 146.839 C 121.829 166.417 126.264 190.046 132.038 205.466 C 132.038 205.466 130.588 206.278 128.804 206.142 C 126.852 205.708 126.374 206.247 124.682 206.591 C 122.737 206.961 122.058 206.958 121.627 207.45 C 121.387 207.723 120.954 208.105 120.464 208.372 C 115.724 210.093 110.163 216.549 110.163 216.457 L 104.945 214.116 C 109.753 204.674 115.396 201.277 125.315 197.087 L 124.393 192.868 C 113.828 196.803 107.105 201.515 101.803 210.669 C 95.37 210.578 69.312 210.395 69.285 210.476 C 79.914 198.389 88.294 180.158 89.21 165.944 C 89.435 163.175 89.047 164.506 90.272 163.68 L 92.198 161.387 L 93.709 163.646 C 93.709 163.646 94.803 165.039 95.495 163.878 C 97.433 144.057 95.382 121.455 85.831 105.7 C 87.526 105.589 89.214 105.542 90.837 106.502 C 94.572 114.961 96.774 125.413 97.729 133.247 C 98.939 143.163 98.768 154.347 97.536 163.844 L 98.173 163.931 C 100.035 151.588 99.404 138.461 97.696 126.987 C 96.819 121.001 93.994 111.639 92.053 107.317 C 91.517 106.123 91.1 105.815 91.609 105.638 C 103.248 104.658 108.598 100.775 112.779 94.575 L 112.779 94.575 Z  M 80.507 95.617 C 81.398 95.617 82.119 96.339 82.119 97.229 C 82.119 98.12 81.398 98.841 80.507 98.841 C 79.617 98.841 78.895 98.12 78.895 97.229 C 78.895 96.339 79.617 95.617 80.507 95.617 Z  M 167.989 96.438 C 164.581 99.522 161.843 102.719 158.967 106.125 C 167.479 117.83 176.938 130.519 184.892 140.656 C 184.892 140.656 187.645 139.025 187.634 138.822 C 187.628 138.715 187.414 138.176 187.363 138.296 C 187.245 138.578 185.133 139.758 185.133 139.758 L 159.962 106.724 C 159.962 106.724 161.326 105.09 161.747 104.576 C 163.703 103.933 169.146 97.192 169.412 97.331 C 173.677 100.597 186.537 114.444 191.49 118.689 L 191.553 157.125 C 191.041 158.663 177.33 164.589 167.646 186.699 C 162.776 189.428 157.381 190.896 152.364 193.269 C 152.364 193.269 153.641 195.277 154.266 195.827 C 153.499 194.171 153.364 193.854 155.101 193.148 L 191.336 178.378 L 191.268 181.361 L 190.679 186.511 C 180.818 192.592 172.496 195.14 158.924 204.312 C 157.954 204.538 157.174 205.469 156.153 205.519 C 121.482 154.459 143.646 115.988 163.852 96.66 L 167.989 96.438 Z  M 55.084 99.049 C 56.03 99.065 55.791 101.259 55.442 102.018 C 54.743 102.566 54.046 102.079 54.061 101.052 C 54.065 100.717 54 100.401 53.916 100.347 C 53.392 100.013 54.269 99.037 55.084 99.049 Z  M 76.26 100.42 C 77.056 101.024 77.351 101.83 77.645 102.635 C 76.57 102.467 73.694 101.642 75.043 100.999 L 76.26 100.42 Z  M 71.023 103.273 C 96.028 141.09 94.91 181.256 67.002 211.702 L 102.31 211.649 C 106.804 202.781 114.291 197.375 123.871 194.046 L 124.706 196.831 C 113.696 200.365 108.126 206.224 103.695 214.343 L 61.586 214.343 C 77.765 196.935 85.176 182.23 86.343 162.338 C 87.454 143.394 82.634 126.093 67.996 105.276 L 71.023 103.273 Z  M 78.07 103.707 L 83.968 106.492 L 83.094 112.545 L 76.916 109.697 L 78.07 103.707 Z  M 67.436 105.406 C 98.974 153.113 85.447 186.671 60.268 214.598 L 55.63 214.676 L 44.818 204.631 L 45.016 265.666 C 45.016 265.666 34.474 275.993 33.262 277.231 C 32.066 278.383 31.167 276.613 31.167 276.613 L 31.196 195.701 L 31.665 192.53 L 31.809 175.096 L 38.528 171.553 L 63.724 204.578 C 63.724 204.578 62.712 206.07 62.243 206.335 C 61.937 206.507 62.161 206.803 62.416 206.769 C 63.124 206.676 65.143 204.419 64.719 204.057 C 55.579 192.734 38.586 170.563 38.586 170.563 L 31.51 174.256 C 31.51 174.256 31.715 159.781 31.587 154.224 C 31.859 152.914 32.842 153.265 33.504 152.68 C 41.652 147.443 47.394 141.05 50.938 134.85 C 51.199 134.386 52.767 131.603 52.922 131.35 C 53.475 130.449 54.846 127.632 55.644 125.833 C 56.091 124.827 56.565 123.609 56.745 123.463 C 61.648 121.867 66.794 119.601 71.718 117.565 L 64.627 106.922 L 67.436 105.406 Z  M 48.11 106.014 C 47.844 106.01 47.167 106.318 46.251 107.148 C 44.561 108.682 42.334 111.201 42.327 111.681 C 42.78 111.844 43.182 111.584 43.543 111.217 C 44.957 109.131 47.143 108.315 48.423 106.487 C 48.622 106.149 48.413 106.01 48.11 106.014 Z  M 63.995 108.23 C 63.995 108.23 68.887 115.358 70.139 117.251 C 57.246 122.356 43.755 129.099 31.805 133.459 L 31.805 130.602 L 33.692 125.471 L 63.995 108.23 Z  M 83.176 112.941 L 87.998 115.431 L 86.637 120.871 L 81.772 118.149 L 83.176 112.941 Z  M 87.154 121.991 L 91.117 124.877 L 89.307 129.492 L 85.315 126.745 L 87.154 121.991 Z  M 54.819 125.375 C 54.819 125.375 54.208 127.514 53.183 129.429 C 48.279 137.949 43.48 145.521 33.566 152.096 C 33.189 151.76 32.109 149.871 32.109 149.871 L 32.012 147.346 C 37.268 143.124 41.804 140.025 48.766 127.633 L 50.784 126.813 L 52.502 127.556 L 53.665 125.481 L 54.819 125.375 Z  M 75.444 125.394 C 70.875 135.086 66.379 145.084 59.1 152.636 L 79.021 180.444 C 85.575 160.81 83.142 142.409 75.444 125.394 Z  M 50.378 127.508 L 49.422 129.164 L 51.078 130.119 L 52.034 128.464 L 50.378 127.508 Z  M 47.675 127.687 C 44.066 135.756 38.649 141.964 31.539 146.429 L 31.264 134.589 L 47.675 127.687 Z  M 48.945 130.095 L 47.989 131.751 L 49.645 132.706 L 50.6 131.051 L 48.945 130.095 Z  M 89.659 130.443 L 93.25 133.85 L 91.117 137.611 L 87.434 134.565 L 89.659 130.443 Z  M 144.675 132.118 C 144.671 132.119 144.668 132.123 144.665 132.127 C 138.354 151.744 140.249 170.481 148.908 186.791 C 153.156 176.219 156.644 169.144 164.938 157.888 C 159.831 151.201 145.188 131.906 144.675 132.118 Z  M 47.535 132.431 L 46.531 134.058 L 48.158 135.062 L 49.162 133.435 L 47.535 132.431 Z  M 75.072 134.719 C 80.762 148.32 80.26 160.583 77.235 171.21 L 63.024 153.259 C 68.231 146.797 71.688 140.678 75.072 134.719 Z  M 46.068 134.768 L 44.991 136.346 L 46.57 137.427 L 47.646 135.844 L 46.068 134.768 Z  M 44.48 137.026 L 43.302 138.537 L 44.808 139.715 L 45.986 138.204 L 44.48 137.026 Z  M 91.295 138.634 L 94.515 141.689 L 92.483 145.652 L 89.215 142.664 L 91.295 138.634 Z  M 42.621 139.377 L 41.386 140.83 L 42.839 142.066 L 44.074 140.613 L 42.621 139.377 Z  M 146.417 139.807 L 160.753 158.303 C 155.958 164.01 151.973 170.734 148.411 177.982 C 144.417 165.467 142.614 153.169 146.417 139.807 L 146.417 139.807 Z  M 40.609 141.68 L 39.286 143.06 L 40.667 144.383 L 41.989 143.002 L 40.609 141.68 Z  M 74.097 143.528 L 67.538 153.013 L 75.058 162.613 C 75.867 157.416 76.049 151.384 74.097 143.528 L 74.097 143.528 Z  M 38.47 143.837 L 37.061 145.131 L 38.355 146.54 L 39.764 145.247 L 38.47 143.837 Z  M 36.4 145.686 L 34.913 146.893 L 36.12 148.379 L 37.602 147.172 L 36.4 145.686 Z  M 92.425 146.666 L 95.118 149.813 L 92.386 153.052 L 89.828 150.175 L 92.425 146.666 Z  M 126.666 147.23 L 128.496 147.298 C 125.495 176.892 131.392 191.865 136.609 204.887 C 136.609 204.887 136.597 205.409 136.421 205.563 C 135.571 205.855 133.852 206.171 132.473 204.959 C 125.454 186.918 123.923 164.695 126.666 147.23 L 126.666 147.23 Z  M 33.991 147.612 L 32.442 148.732 L 33.562 150.281 L 35.111 149.161 L 33.991 147.612 Z  M 148.647 148.664 C 148.182 148.664 147.778 160.839 149.531 166.784 L 156.129 157.845 L 148.647 148.664 Z  M 131.589 150.672 L 133.795 153.636 L 131.454 156.826 L 129.06 153.805 L 131.589 150.672 Z  M 32.2 151.478 C 32.311 151.461 32.493 151.769 32.847 152.014 C 33.177 152.358 33.129 152.333 32.76 152.627 C 32.183 153.087 32.011 153.013 32.022 152.294 C 32.071 151.702 32.114 151.492 32.2 151.478 Z  M 92.555 153.703 L 94.993 157.193 L 92.294 160.663 L 89.987 157.01 L 92.555 153.703 Z  M 131.396 158.125 L 133.964 161.252 L 131.758 164.684 L 128.954 161.407 L 131.396 158.125 Z  M 190.853 158.786 L 191.08 162.391 L 190.192 161.074 L 188.56 162.324 L 189.7 163.835 L 191.124 162.724 L 191.21 164.177 C 182.167 170.713 178.266 178.22 174.597 183.852 L 172.965 184.542 L 171.107 183.953 L 170.199 185.56 L 168.621 185.932 C 168.573 185.922 171.79 179.031 177.295 172.016 C 182.197 165.77 190.828 158.728 190.853 158.786 L 190.853 158.786 Z  M 191.901 164.428 L 191.978 177.248 L 175.793 183.5 C 179.994 176.343 184.947 169.701 191.901 164.428 L 191.901 164.428 Z  M 187.88 162.869 L 186.403 164.081 L 187.677 165.543 L 189.149 164.332 L 187.88 162.869 Z  M 185.606 164.8 L 184.183 166.069 L 185.51 167.484 L 186.934 166.205 L 185.606 164.8 Z  M 131.561 165.51 L 134.611 168.758 L 132.376 172.595 L 129.2 169.55 L 131.561 165.51 Z  M 183.309 166.876 L 181.972 168.242 L 183.434 169.646 L 184.771 168.28 L 183.309 166.876 Z  M 181.204 169.033 L 179.92 170.452 L 181.475 171.799 L 182.759 170.38 L 181.204 169.033 Z  M 179.09 171.451 L 177.898 172.948 L 179.515 174.198 L 180.707 172.697 L 179.09 171.451 Z  M 132.608 173.749 L 136.421 176.225 L 134.558 180.762 L 130.75 177.861 L 132.608 173.749 Z  M 177.246 173.768 L 176.127 175.322 L 177.85 176.5 L 178.984 174.893 L 177.246 173.768 Z  M 175.523 176.22 L 174.485 177.828 L 176.228 178.947 L 177.261 177.287 L 175.523 176.22 Z  M 173.983 178.648 L 173.028 180.304 L 174.833 181.332 L 175.789 179.657 L 173.983 178.648 Z  M 172.593 181.158 L 171.638 182.814 L 173.636 183.678 L 174.428 182.099 L 172.593 181.158 Z  M 134.674 182.181 L 138.579 184.827 L 136.851 189.581 L 132.729 186.666 L 134.674 182.181 Z  M 191.297 186.859 L 191.49 284.689 L 148.498 284.838 C 148.498 284.838 146.488 281.301 142.281 273.128 C 140.5 269.668 138.994 268.199 138.839 265.459 C 139 263.849 138.257 262.024 136.938 261.288 C 136.495 261.041 135.754 261.34 136.001 260.651 C 136.274 259.893 135.438 258.727 135.21 258.479 C 134.949 258.041 135.112 257.934 135.084 256.302 C 135.057 254.725 134.973 254.066 134.635 252.875 C 133.781 249.867 133.591 248.363 134.08 246.803 C 135.35 242.846 136.674 239.811 138.386 236.121 C 139.381 233.962 139.229 233.118 136.175 231.55 C 133.888 230.376 133.584 230.388 133.873 228.673 C 134.008 227.87 134.133 227.363 133.964 226.974 C 133.861 226.738 133.482 226.406 133.26 226.217 C 132.961 225.961 133.051 225.435 133.356 225.044 C 133.656 224.659 133.658 224.111 133.361 223.195 C 132.736 221.269 134.15 218.717 136.822 216.954 C 138.003 216.175 137.97 216.336 139.201 217.63 C 142.801 221.41 148.15 219.035 148.16 213.705 C 148.163 212.044 147.597 212.143 149.169 211.36 C 154.494 207.971 165.425 201.808 165.353 201.976 C 166.065 203.427 166.303 204.666 166.753 206.229 C 167.142 207.568 167.091 207.671 166.946 210.278 C 166.815 212.635 166.744 213.183 167.298 213.334 C 170.453 213.681 171.173 212.565 171.778 210.529 C 172.039 209.63 172.542 209.813 172.854 210.191 C 174.054 212.376 175.573 214.648 176.571 216.201 C 177.817 218.184 179.917 219.17 181.016 218.233 C 181.247 217.462 181.438 217.438 182.831 217.755 C 184.52 218.139 185.483 217.193 185.645 215.95 C 185.71 215.454 185.349 215.474 186.253 214.985 C 188.497 213.324 187.642 211.055 187.305 209.689 C 187.335 209.762 188.265 209.124 188.285 207.846 C 188.393 201.207 182.639 191.646 182.768 191.893 L 191.297 186.859 Z  M 137.015 190.681 L 141.581 192.887 L 140.505 198.342 L 135.813 196.232 L 137.015 190.681 Z  M 181.446 192.709 C 184.075 195.758 185.977 200.842 186.958 204.153 C 187.442 205.803 187.501 207.685 187.069 207.947 C 186.642 208.205 186.443 207.929 186.524 206.943 C 186.591 206.122 186.615 205.486 186.263 205.495 C 185.243 205.758 185.203 204.212 185.307 203.849 C 185.377 203.606 185.503 203.436 185.558 203.304 C 185.81 202.705 185.153 202.786 184.472 202.777 C 183.87 202.792 183.715 202.426 183.743 201.856 C 183.726 201.223 182.888 201.346 182.411 201.827 C 181.975 202.266 182.067 202.783 182.657 203.144 C 183.505 203.664 184.307 204.94 186.282 209.342 C 187.429 211.897 187.089 213.711 185.722 213.691 C 184.775 213.663 183.67 211.067 182.778 209.154 C 182.547 208.66 183.125 208.107 183.328 207.841 C 183.853 207.153 183.773 206.935 182.995 206.924 C 182.267 206.913 181.957 206.978 181.518 206.079 C 181.353 205.741 181.233 205.225 181.291 204.896 C 181.667 203.905 180.896 203.666 180.147 204.047 C 179.204 204.44 179.211 205.281 180.649 206.658 C 181.576 208.178 181.334 208.072 180.456 209.096 C 180.273 209.457 180.383 209.679 180.77 209.685 C 181.883 209.345 183.094 211.349 182.763 212.035 C 182.423 212.33 181.491 213.399 182.392 213.194 C 184.224 212.696 185.339 215.378 184.26 216.288 C 182.65 217.095 182.269 216.843 179.79 211.891 C 179.02 210.353 178.094 208.7 177.98 208.531 C 177.866 208.362 177.816 207.908 177.821 207.542 C 177.929 206.646 177.547 206.442 176.769 206.798 C 176.184 206.938 175.657 207.419 176.397 207.875 C 177.261 209.366 177.567 209.606 177.092 209.984 C 176.011 210.845 176.48 210.81 177.69 211.051 C 178.283 211.229 178.584 211.534 178.748 211.9 C 179.373 213.305 180.482 215.286 180.591 215.689 C 180.958 216.719 180.296 217.182 179.39 217.137 C 178.441 217.16 178.007 216.411 177.546 215.771 C 175.821 213.375 174.58 211.001 172.82 208.28 L 173.057 205.736 C 173.057 205.736 173.518 205.836 173.776 205.712 C 174.282 205.469 174.583 204.674 174.872 203.617 C 175.334 202.699 178.065 200.609 179.11 199.486 C 179.303 199.359 179.465 199.149 179.467 199.022 C 179.46 198.611 178.282 198.886 177.507 199.775 C 176.368 200.786 175.883 200.439 175.919 199.148 C 175.807 197.553 174.834 198.352 174.785 199.91 C 174.66 201.141 174.232 201.891 173.37 202.58 C 171.745 203.879 172.016 203.55 172.091 205.355 C 172.223 208.503 171.008 211.091 170.214 209.376 C 169.932 208.766 169.601 208.074 168.891 208.044 C 168.388 208.022 168.14 207.529 167.863 206.311 C 167.452 204.34 166.877 203.072 166.352 201.257 L 181.446 192.709 Z  M 140.973 199.49 L 146.234 201.585 L 145.249 207.088 L 140.036 205.094 L 140.973 199.49 Z  M 181.089 199.997 C 181.053 200 181.012 200.008 180.968 200.026 C 179.486 201.146 178.118 202.403 176.503 203.366 C 175.897 203.724 175.19 204.649 175.185 204.896 C 175.181 205.137 175.904 205.132 176.609 204.824 C 177.278 204.532 181.094 200.949 181.098 200.62 C 181.361 200.33 181.336 199.981 181.089 199.997 L 181.089 199.997 Z  M 132.777 206.678 C 134.021 206.675 133.295 207.044 130.581 208.927 C 127.931 210.765 123.563 216.578 123.056 218.735 C 122.825 219.714 123.447 219.79 124.147 218.445 C 127.364 212.261 133.451 206.61 139.023 206.861 C 141.753 206.984 143.227 207.72 140.968 208.044 C 134.774 208.804 130.144 212.336 126.092 219.377 C 126.089 219.535 126.459 219.527 126.883 219.256 C 130.592 214.722 134.771 208.716 142.112 209.202 C 147.407 209.521 148.912 215.818 144.516 217.967 C 140.684 219.841 137.15 215.278 140.326 212.571 C 141.357 211.692 142.002 212.078 141.011 212.977 C 138.886 214.905 141.492 218.34 144.081 217.036 C 145.657 216.376 146.296 214.12 144.907 212.417 C 141.817 208.628 135.161 211.509 130.523 217.63 C 130.037 218.274 129.615 219.672 130.026 219.522 C 130.746 219.225 131.18 218.661 131.604 218.025 C 133.26 215.73 134.532 214.578 136.774 213.343 C 138.505 212.39 138.612 212.569 137.966 214.222 C 137.693 214.918 137.475 215.15 136.802 215.583 C 133.978 217.512 132.224 220.096 132.154 221.742 C 132.103 222.944 132.983 224.514 132.029 224.836 C 130.411 225.6 125.999 224.977 124.808 223.456 C 123.951 222.361 123.619 222.995 124.262 224.773 C 124.687 225.948 124.669 226.611 125.31 226.492 C 126.12 226.063 126.677 226.163 128.249 227.023 C 129.007 227.437 130.351 227.823 131.17 228.012 C 132.662 228.356 132.974 228.211 132.941 228.857 C 132.931 229.055 132.999 229.612 132.956 229.962 C 132.713 231.907 134.337 232.569 136.551 233.848 C 137.845 234.595 137.335 235.364 135.837 239.066 C 135.059 240.74 134.394 242.993 133.433 244.694 C 132.536 246.604 132.459 248.696 133.038 251.08 C 134.111 255.504 134.885 257.752 132.97 258.151 C 128.043 258.896 117.161 258.866 111.22 256.582 C 109.701 245.179 101.649 228.26 102.682 223.885 C 104.742 226.992 113.383 226.17 110.781 217.485 C 110.781 217.485 111.489 216.426 112.895 214.999 C 116.522 211.32 117.417 210.712 115.695 213.952 C 114.371 216.443 112.682 219.693 112.644 220.323 C 112.614 220.825 113.005 220.941 113.31 220.54 C 113.536 220.243 113.805 219.52 114.039 218.971 C 116.201 213.911 119.896 209.349 122.443 208.251 C 123.099 207.968 123.065 208.27 122.612 208.825 C 119.615 212.554 117.327 216.001 115.7 220.502 C 115.627 220.966 116.286 221.159 116.496 220.719 C 119.307 214.828 120.147 213.492 123.601 209.342 C 124.959 207.711 126.222 206.888 127.231 206.977 C 128.104 207.054 127.845 207.197 127.038 208.058 C 126.421 208.715 125.51 209.63 124.036 211.485 C 121.436 214.757 118.82 220.08 119.783 219.802 C 119.949 220.245 120.769 218.83 121.463 217.48 C 123.363 214.29 125.381 210.074 129.894 207.302 C 130.837 206.912 131.867 206.688 132.777 206.678 L 132.777 206.678 Z  M 45.498 207.706 L 53.535 215.738 L 69.7 215.53 C 67.034 219.672 68.458 226.094 69.927 229.846 C 72.807 237.203 77.028 249.348 76.718 249.525 C 76.718 249.525 74.368 250.13 74.155 251.62 C 73.84 253.83 74.798 253.665 73.417 255.66 C 73.106 256.109 73.306 256.956 73.639 257.629 C 73.858 258.123 74.067 258.866 73.658 259.444 L 59.4 284.882 L 32.34 285.012 L 32.34 279.925 L 45.889 266.207 L 45.725 256.114 C 53.115 258.311 55.653 265.935 56.286 271.584 C 69.635 259.402 69.305 241.062 56.692 229.557 C 54.233 241.717 45.426 244.244 45.619 244.003 L 45.498 207.706 Z  M 146.027 209.149 C 146.891 209.211 148.058 209.35 148.85 209.776 C 148.314 210.097 147.933 210.479 147.576 210.872 C 147.143 210.104 146.559 209.684 146.027 209.149 L 146.027 209.149 Z  M 168.433 209.236 C 169.152 209.233 170.036 211.34 169.528 211.833 C 169.242 212.11 168.315 212.215 167.984 212.006 C 167.559 211.692 167.776 209.238 168.433 209.236 Z  M 142.937 212.89 C 143.865 212.89 144.617 213.642 144.617 214.569 C 144.617 215.497 143.865 216.249 142.937 216.249 C 142.01 216.249 141.258 215.497 141.258 214.569 C 141.258 213.642 142.01 212.89 142.937 212.89 Z  M 71.843 215.284 L 73.055 215.313 C 70.852 218.257 70.555 220.792 71.336 224.464 C 72.214 228.597 78.911 244.132 79.344 248.41 C 79.364 248.604 79.383 249.149 79.383 249.149 L 77.737 249.26 C 77.737 249.26 77.614 248.817 77.563 248.647 C 75.259 240.901 72.967 234.994 71.365 230.479 C 69.769 225.61 67.325 218.39 71.843 215.284 Z  M 80.695 215.313 C 80.707 215.311 80.716 215.314 80.724 215.318 L 81.888 215.327 C 81.845 215.353 80.151 218.984 80.029 221.187 C 79.891 223.684 80.495 226.404 81.323 229.088 C 83.278 234.896 86.138 241.364 87.728 248.695 C 87.747 248.78 87.921 249.491 87.921 249.491 L 86.198 249.26 C 86.198 249.26 86.029 248.509 86.01 248.405 C 84.82 241.958 81.502 235.261 79.523 228.915 C 78.508 226.03 77.804 222.484 78.166 219.773 C 78.422 217.86 80.341 215.35 80.695 215.313 L 80.695 215.313 Z  M 94.766 215.327 C 93.534 217.235 92.412 219.626 92.333 221.501 C 92.262 224.989 93.278 227.933 94.293 231.014 C 97.417 240.502 98.932 245.507 100.495 253.116 L 98.835 252.407 C 98.835 252.407 98.77 251.98 98.733 251.857 C 97.846 247.092 97.79 247.508 92.579 231.483 C 91.358 227.636 90.194 224.264 90.422 221.062 C 90.473 219.237 92.065 215.625 93.742 215.337 L 94.766 215.327 Z  M 96.759 215.327 L 98.309 215.327 C 98.309 215.327 97.455 216.231 97.208 216.568 C 94.502 220.322 95.285 224.35 96.629 229.151 C 98.478 235.758 101.897 243.147 103.686 253.218 C 103.719 253.404 103.686 254.376 103.686 254.376 L 101.842 253.633 C 100.167 244.399 96.033 234.825 94.042 226.521 C 92.87 221.644 93.204 218.562 95.91 215.906 C 96.588 215.383 96.759 215.327 96.759 215.327 Z  M 77.852 215.38 L 79.011 215.38 C 79.011 215.38 77.074 218.561 77.075 220.434 C 76.752 223.786 77.965 227.49 79.358 231.372 C 81.5 237.337 84.33 244.551 85.199 248.348 C 85.233 248.497 85.349 249.178 85.349 249.178 L 83.326 249.072 C 83.326 249.072 83.22 248.152 83.099 247.73 C 80.765 239.565 78.492 234.284 75.811 226.83 C 75.405 225.701 74.757 221.24 75.521 218.349 C 76.121 216.079 77.852 215.38 77.852 215.38 L 77.852 215.38 Z  M 74.749 215.385 L 75.999 215.419 C 75.999 215.419 75.811 215.758 75.333 216.577 C 73.052 220.707 74.074 224.477 75.487 228.678 C 77.373 234.283 80.334 241.127 82.182 247.604 C 82.286 247.969 82.428 249.072 82.428 249.072 L 80.623 249.047 C 80.623 249.047 80.256 247.728 80.232 247.585 C 79.217 241.581 73.729 231.574 72.302 223.958 C 71.519 219.872 72.191 217.342 74.749 215.385 Z  M 91.493 215.385 C 91.493 215.385 89.521 218.805 89.34 220.709 C 88.987 224.444 90.172 227.536 91.527 231.748 C 93.865 239.016 97.165 247.543 97.459 251.441 C 97.469 251.57 97.517 252.045 97.517 252.045 L 95.485 251.321 C 95.485 251.321 95.394 250.914 95.355 250.771 C 93.583 243.717 91.489 236.693 88.674 228.775 C 87.98 226.103 87.069 223.416 87.149 221.119 C 87.561 218.053 88.083 217.226 89.91 215.409 L 91.493 215.385 Z  M 100.432 215.39 L 102.069 215.424 C 102.069 215.424 101.58 215.686 100.413 216.93 C 93.958 222.828 104.431 239.483 106.847 254.646 C 106.874 254.809 106.949 255.38 106.949 255.38 L 105.148 254.733 C 104.978 253.978 104.85 253.059 104.641 252.233 C 102.684 244.481 100.073 236.511 97.676 229.281 C 96.332 224.014 95.84 219.374 98.255 216.78 C 99.012 215.884 100.432 215.39 100.432 215.39 Z  M 83.601 215.399 L 85.344 215.448 C 84.084 217.027 83.346 219.486 83.278 221.674 C 83.211 224.262 83.903 226.778 84.755 229.441 C 86.502 234.901 88.998 240.835 90.711 248.203 C 90.808 248.69 90.889 249.003 90.933 249.216 C 91.004 249.554 91.199 250.09 91.199 250.09 L 89.36 249.723 C 89.36 249.723 89.17 249.246 89.046 248.994 C 88.86 248.617 88.69 248.136 88.539 247.561 C 87.649 243.717 84.371 234.997 82.375 228.881 C 80.793 225.027 80.361 218.291 83.601 215.399 L 83.601 215.399 Z  M 105.356 215.467 C 107.584 215.385 109.6 217.276 110.076 219.053 C 110.539 220.94 109.947 223.07 107.87 224.122 C 104.504 225.827 100.879 221.29 103.536 218.793 C 105.55 216.9 108.529 218.301 107.88 220.723 C 107.462 222.301 105.07 222.402 104.675 220.81 C 104.567 220.281 104.301 219.751 104.11 220.043 C 102.872 222.951 107.035 224.312 108.763 221.607 C 109.789 219.438 107.837 216.645 104.965 217.176 C 101.027 217.904 100.573 222.902 102.209 228.731 C 104.49 237.945 109.931 250.338 109.922 256.027 C 109.922 256.102 109.941 256.336 109.941 256.336 L 108.213 255.819 C 108.213 255.819 108.201 255.724 108.189 255.641 C 107.153 247.696 101.251 234.542 99.559 224.43 C 98.825 219.82 100.621 216.474 104.661 215.559 C 104.894 215.506 105.125 215.476 105.356 215.467 L 105.356 215.467 Z  M 88.269 215.539 C 87.057 217.159 86.264 219.594 86.227 221.332 C 86.19 223.877 87.104 226.356 87.858 229.006 C 89.768 235.552 94.229 247.638 94.066 249.902 C 94.112 250.145 94.235 250.896 94.235 250.896 L 92.512 250.384 C 92.512 250.384 92.443 250.275 92.314 249.964 C 91.739 247.718 89.007 238.091 85.947 229.769 C 84.77 226.423 84.197 223.816 84.277 221.597 C 84.526 218.536 85.402 217.258 86.743 215.554 L 88.269 215.539 Z  M 121.082 226.39 C 116.615 226.645 117.045 232.09 119.812 233.013 C 120.802 233.285 121.383 233.05 121.54 232.834 C 121.719 232.589 121.519 232.214 120.869 232.12 C 118.991 231.503 118.32 229.293 120.016 228.365 C 120.942 227.88 122.421 228.192 124.204 229.513 C 127.391 231.873 131.298 232.022 130.788 229.634 C 130.665 229.054 130.415 228.977 128.08 228.659 C 126.185 228.401 125.33 227.801 124.504 227.356 C 123.201 226.653 122.053 226.361 121.082 226.39 L 121.082 226.39 Z  M 57.136 231.453 C 68.675 242.723 66.965 260.385 57.107 269.228 C 56.904 268.514 56.473 266.765 56.426 266.815 C 63.84 259.101 67.331 246.456 56.6 233.495 C 56.656 233.545 56.839 232.56 57.136 231.453 Z  M 129.456 231.753 C 129.347 231.755 129.251 231.767 129.166 231.796 C 126.178 232.614 125.559 235.567 127.496 236.782 C 128.684 237.528 129.597 237.071 128.119 236.169 C 126.852 235.397 127.477 233.366 129.012 233.389 C 129.683 233.399 130.14 233.691 131.845 234.948 C 133.249 235.983 134.572 236.066 134.872 234.663 C 135.051 233.827 134.771 233.455 133.877 233.674 C 133.482 233.771 133.25 233.539 132.714 233.167 C 131.522 232.339 130.219 231.736 129.456 231.753 Z  M 55.944 233.964 C 66.345 246.036 63.006 258.627 55.992 266.004 C 54.066 260.321 49.345 256.775 49.345 256.775 C 51.124 252.828 52.185 248.707 48.858 243.501 C 51.953 240.705 54.518 237.631 55.944 233.964 L 55.944 233.964 Z  M 123.524 238.37 C 123.036 238.362 123.194 238.832 124.344 239.635 C 127.086 241.5 127.32 241.836 124.663 241.793 C 123.99 241.753 122.934 242.23 122.336 242.43 C 118.868 243.587 118.701 243.495 117.041 243.106 C 116.488 242.977 115.928 242.745 115.685 242.966 C 115.31 243.307 114.89 243.533 115.362 244.042 C 115.706 244.413 116.345 244.697 117.124 245.143 C 121.151 247.449 121.516 248.002 126.251 248.125 C 126.793 248.14 127.072 247.859 127.39 247.855 C 128.163 247.846 128.568 248.035 129.35 248.748 C 130.781 250.054 130.848 249.105 129.997 247.392 C 129.55 246.493 129.16 246.279 129.379 245.596 C 129.878 244.038 129.167 243.729 128.235 245.109 C 127.536 246.189 127.457 246.164 126.796 244.776 C 125.92 243.042 126.332 242.241 127.66 243.371 C 128.667 244.227 128.924 243.591 129.316 242.913 C 129.831 242.021 129.753 241.221 128.833 241.291 C 128.304 241.331 127.81 241.087 127.395 240.634 C 126.581 239.746 125.02 238.632 123.524 238.37 L 123.524 238.37 Z  M 124.663 243.062 C 124.772 243.068 124.848 243.113 124.885 243.226 C 124.894 243.797 124.502 244.964 124.18 245.577 C 124.077 245.85 123.901 245.884 123.654 245.934 C 122.824 246.087 122.766 245.831 122.916 245.316 C 123.22 244.522 123.472 243.393 124.542 243.067 C 124.587 243.062 124.627 243.06 124.663 243.062 L 124.663 243.062 Z  M 122.554 243.458 C 122.89 243.433 122.901 243.573 122.766 243.878 C 122.526 244.392 122.105 244.879 121.791 245.282 C 121.126 245.713 120.043 244.397 120.522 244.056 C 121.19 243.792 121.693 243.52 122.39 243.477 C 122.451 243.467 122.506 243.461 122.554 243.458 L 122.554 243.458 Z  M 48.042 244.317 C 48.221 244.317 48.404 244.353 48.592 244.433 C 51.109 247.831 50.938 253.002 48.983 255.863 C 48.838 256.077 48.689 256.115 48.443 256.032 C 47.601 255.534 46.533 255.349 45.735 255.062 L 45.735 245.114 C 46.557 244.939 47.266 244.315 48.042 244.317 Z  M 114.372 245.128 C 114.18 245.137 114.1 245.268 114.343 245.519 C 118.014 248.175 123.064 251.253 127.723 250.061 C 128.151 249.968 128.496 249.734 128.413 249.294 C 128.362 249.019 127.889 248.782 127.376 248.917 C 126.307 249.199 124.259 249.235 123.418 249.101 C 120.214 248.575 117.384 246.526 114.922 245.326 C 114.74 245.187 114.522 245.121 114.372 245.128 Z  M 113.301 247.662 C 113.137 247.655 113.149 247.818 113.252 248.125 C 113.769 249.664 118.963 253.249 123.065 254.434 C 126.587 255.452 131.647 254.451 131.353 252.779 C 131.199 251.906 130.559 251.698 128.312 251.982 C 123.363 252.944 118.6 250.92 114.985 248.671 C 114.011 248.057 113.512 247.672 113.301 247.662 L 113.301 247.662 Z  M 80.893 249.767 C 83.055 249.741 85.198 249.916 87.516 250.302 C 92.025 251.072 97.251 252.468 101.673 254.516 C 109.187 257.337 118.634 259.512 126.652 259.218 C 128.609 259.272 132.145 259.105 132.83 258.88 C 134.617 258.479 135.111 258.859 135.538 261.076 C 135.613 261.558 135.762 261.698 136.383 262.118 C 137.332 262.761 137.174 263.397 137.058 264.817 C 136.961 266.011 137.683 266.682 140.577 272.023 C 143.871 278.102 147.084 285.167 147.084 285.167 C 118.211 285.147 90.665 284.075 61.123 284.993 C 63.78 278.693 71.024 267.333 75.564 258.215 C 74.466 255.409 75.821 254.932 75.253 254.267 C 74.333 252.707 74.997 250.52 76.94 250.027 C 78.294 249.872 79.597 249.782 80.893 249.767 L 80.893 249.767 Z " fill="rgb(19,31,103)"/><path d=" M 61.46 285.189 C 61.46 285.189 70.921 266.061 74.908 260.331 C 80.644 253.06 106.532 263.491 119.407 266.097 C 124.64 267.106 136.77 266.633 136.77 266.633 L 146.909 284.908 L 61.46 285.189 Z  M 41.813 263.456 L 41.412 203.909 L 44.374 205.757 L 45.053 265.57 L 32.249 277.83 L 32.179 274.239 L 41.813 263.456 Z  M 49.562 256.661 C 52.612 250.523 49.208 243.027 49.208 243.03 C 50.977 243.466 55.906 234.112 56.344 234.382 C 63.889 243.634 65.196 257.419 55.979 265.963 C 53.652 260.024 49.592 256.661 49.562 256.661 Z  M 55.194 214.546 C 60.926 208.688 65.471 204.125 70.015 197.57 C 70.387 197.037 45.83 165.845 46.212 165.299 C 50 161.112 55.078 158.036 59.029 152.981 C 59.029 152.981 79.168 179.343 79.631 179.111 C 81.672 170.861 83.166 163.392 82.776 154.769 C 81.534 132.706 72.105 119.199 72.032 119.465 C 68.844 139.736 37.511 170.439 31.342 168.251 L 31.307 154.086 C 31.68 154.795 51.157 141.554 56.293 124.055 C 56.662 122.798 71.775 117.962 71.67 117.777 C 71.03 116.134 64.419 106.781 64.419 106.781 C 64.419 106.781 67.089 105.537 67.386 105.541 C 75.956 116.198 82.423 130.236 84.624 143.604 C 87.294 158.003 89.02 185.071 60.148 214.633 L 55.194 214.546 Z  M 141.749 177.297 C 137.231 163.274 137.355 148.756 139.432 138.62 C 142.602 120.252 154.21 107.1 163.521 97.072 L 167.56 97.073 C 167.56 97.073 162.731 102.071 160.974 103.889 C 157.958 107.348 153.59 114.565 153.59 114.565 L 177.685 146.059 L 191.419 143.091 C 191.419 143.091 191.005 157.18 191.431 157.18 C 180.757 166.015 173.086 174.011 167.579 186.883 C 164.204 188.131 153.015 192.955 153.015 192.955 C 147.696 191.655 168.842 158.501 164.821 157.939 C 163.164 156.573 144.822 131.829 144.464 131.88 C 136.009 157.768 144.257 184.953 159.133 203.941 C 157.444 205.035 155.916 205.886 156.056 205.63 C 149.684 196.79 144.101 186.236 141.749 177.297 L 141.749 177.297 Z  M 97.731 164.317 C 98.685 165.793 102.971 132.724 91.705 106.254 C 92.777 105.441 102.071 103.663 102.071 103.663 L 104.573 111.589 L 98.232 114.274 L 99.403 117.989 C 104.325 115.601 114.985 112.077 121.542 101.185 C 121.542 101.185 153.402 100.912 154.08 100.968 C 154.741 101.024 147.582 107.884 140.792 121.773 C 137.691 128.116 135.224 136.324 134.71 145.954 C 134.608 147.857 127.42 137.008 127.42 137.008 C 129.212 127.841 134.003 118.817 138.778 109.792 C 138.778 109.792 131.452 109.375 126.333 109.525 C 118.374 118.223 113.383 122.808 101.381 126.962 C 105.758 140.981 132.53 147.72 126.576 146.439 C 125.36 146.152 123.818 159.327 125.107 174.172 C 125.355 186.043 131.742 205.83 131.967 205.671 C 131.967 205.671 127.71 206.63 127.368 205.947 C 128.086 205.775 121.034 207.56 121.034 207.56 L 118.512 200.185 L 125.337 197.045 L 124.233 192.882 C 124.206 192.885 109.174 197.431 101.811 210.544 L 68.883 210.582 C 81.582 196.803 86.761 183.175 89.519 165.157 C 92.214 165.64 97.731 164.317 97.731 164.317 L 97.731 164.317 Z  M 178.712 45.356 C 182.853 41.891 191.162 32.87 191.162 32.87 L 191.27 37.492 L 181.84 47.299 L 181.935 107.851 L 178.745 104.794 L 178.712 45.356 Z  M 174.354 67.518 C 172.655 68.327 169.27 72.307 167.656 76.779 C 156.731 67.018 161.23 49.079 167.211 45.345 C 168.947 49.262 173.972 54.455 173.856 54.346 C 172.701 58.447 171.816 62.608 174.354 67.518 L 174.354 67.518 Z  M 77.619 26.869 L 161.882 27.017 C 157.076 36.48 152.666 44.13 147.557 53.447 C 144.899 56.654 87.356 43.092 87.086 44.443 L 77.619 26.869 Z " fill="rgb(226,207,0)"/><path d=" M 196.38 301.624 L 196.38 298.844 L 199.148 298.844 L 205.758 288.811 L 198.909 272.979 L 196.24 272.979 L 196.24 269.866 L 206.172 269.866 L 206.172 272.979 L 202.672 272.979 L 207.889 285.324 L 211.365 280.374 L 211.287 272.979 L 208.848 272.979 L 208.848 269.866 L 217.913 269.866 L 217.913 272.979 L 214.674 272.979 L 214.833 298.844 L 217.579 298.844 L 217.579 301.624 L 208.968 301.624 L 208.968 298.844 L 211.338 298.844 L 211.107 286.681 L 203.194 298.844 L 205.995 298.844 L 205.995 301.624 L 196.38 301.624 Z  M 164.836 283.583 C 159.315 272.828 152.225 263.079 144.093 254.658 C 152.19 245.816 158.941 236.657 164.709 226.652 C 170.653 236.611 177.182 246.013 186.302 255.106 C 177.263 264.004 170.474 273.711 164.836 283.583 L 164.836 283.583 Z  M 32.07 273.135 L 31.508 193.628 L 41.086 202.932 L 41.655 263.99 L 32.07 273.135 Z  M 197.994 251.028 C 201.482 247.332 204.651 243.233 207.266 238.81 C 210.556 243.682 214.045 248.666 216.931 251.151 C 213.656 254.878 210.559 259.2 207.575 263.653 C 204.976 259.501 202.151 255.316 197.994 251.028 Z  M 76.02 257.728 C 74.037 258.031 75.159 256.196 75.522 254.451 C 75.723 253.479 74.783 252.565 74.787 252.268 C 74.813 250.542 76.106 249.814 81.965 249.882 C 95.778 250.84 102.919 255.262 110.843 257.318 C 118.431 259.286 125.952 259.247 134.325 259.054 C 134.938 259.407 137.183 265.188 136.766 265.767 C 117.825 269.499 93.654 255.593 76.02 257.728 L 76.02 257.728 Z  M 110.158 216.558 C 108.162 215.112 106.289 214.845 104.438 214.531 C 107.687 208.817 111.62 203.61 118.191 200.352 L 121.248 207.915 C 117.384 209.902 113.59 212.267 110.158 216.558 L 110.158 216.558 Z  M 70.255 196.915 C 70.255 196.915 67.42 201.55 64.744 203.804 C 56.789 193.138 39.002 170.429 39.002 170.429 L 31.454 174.251 C 31.454 174.251 31.425 169.855 31.595 169.547 C 51.982 159.042 65.97 139.187 72.13 120.595 C 72.13 120.595 75.412 123.944 74.98 125.361 C 69.468 140.027 60.042 154.734 46.181 165.764 L 70.255 196.915 Z  M 95.681 175.279 L 121.417 175.315 L 122.557 184.262 C 112.702 187.564 104.569 194.31 96.964 202.113 L 84.757 201.9 C 88.759 193.132 94.319 184.236 95.681 175.279 L 95.681 175.279 Z  M 190.966 137.586 C 191.799 140.108 190.96 142.829 191.28 142.715 C 160.452 157.961 151.643 191.423 151.643 191.423 C 151.643 191.423 148.716 186.79 148.85 186.073 C 164.806 150.609 175.481 149.553 177.532 145.701 L 153.264 114.294 L 158.753 106.828 L 184.783 140.7 C 187.371 139.508 188.845 138.51 190.966 137.586 L 190.966 137.586 Z  M 175.766 183.466 C 180.994 174.065 186.387 168.6 191.759 164.84 L 191.498 177.247 L 175.766 183.466 Z  M 31.64 146.567 L 31.774 134.53 L 47.654 127.696 C 43.263 137.266 37.303 142.395 31.64 146.567 Z  M 102.384 135.744 L 101.445 127.278 C 111.085 123.073 119.601 117.45 126.476 109.753 C 133.862 109.398 138.907 109.899 138.867 109.798 C 138.88 109.783 131.841 120.107 127.18 136.36 L 102.384 135.744 Z  M 182.251 46.811 L 191.025 37.945 L 191.302 117.064 L 182.488 108.678 L 182.251 46.811 Z  M 105.136 111.235 L 102.352 103.391 C 106.731 101.75 110.047 98.175 113.135 94.635 C 115.229 96.509 117.931 97.169 118.869 97.529 C 120.153 97.829 109.991 110.03 105.136 111.235 Z  M 37.266 57.061 C 46.663 47.89 52.769 38.218 58.671 28.603 C 63.847 39.183 71.34 48.439 79.372 57.387 C 71.093 66.387 64.802 76.024 58.762 85.726 C 52.825 75.5 46.575 65.913 37.266 57.061 L 37.266 57.061 Z  M 15.604 72.864 C 12.896 68.539 10.167 64.375 6.234 60.198 C 10.063 56.101 13.315 52.039 15.499 48.045 C 18.513 52.431 21.375 57.013 25.075 60.518 C 21.472 64.485 18.576 68.687 15.604 72.864 L 15.604 72.864 Z  M 88.686 51.828 C 88.686 51.828 87.591 51.194 87.711 50.301 C 88.074 49.145 86.541 46.526 86.541 46.527 C 105.227 40.858 132.436 56.81 148.585 53.455 C 148.45 54.582 148.636 55.927 148.178 56.99 C 148.687 59.25 149.046 59.323 146.84 60.702 C 135.494 63.913 123.537 57.068 112.455 53.795 C 103.414 50.948 96.071 51.673 88.686 51.828 L 88.686 51.828 Z  M 5.315 41.902 L 5.315 38.523 L 8.487 38.523 L 8.487 13.121 L 5.315 13.121 L 5.315 10.187 L 14.112 10.187 L 14.112 13.121 L 11.818 13.121 L 12.03 25.334 L 20.011 13.121 L 16.899 13.121 L 16.935 10.187 L 26.89 10.187 L 26.89 13.121 L 24.05 13.121 L 17.697 23.17 L 24.05 38.523 L 26.89 38.523 L 26.89 41.902 L 16.938 41.902 L 16.938 38.736 L 20.671 38.677 L 15.38 26.719 L 11.818 31.626 L 11.818 38.581 L 14.412 38.581 L 14.412 41.902 L 5.315 41.902 Z " fill="rgb(212,0,0)"/><path d=" M 76.655 25.753 L 80.068 32.181 L 79.478 32.581 C 80.407 34.129 81.197 35.871 82.147 37.407 L 82.833 37.328 C 83.954 39.476 84.408 40.271 85.875 42.816 L 85.213 42.813 C 85.554 43.944 86.428 44.696 86.446 45.507 C 86.455 46.518 86.195 47.543 86.816 48.227 C 87.551 49.037 87.639 49.261 87.488 49.736 C 87.087 50.996 88.229 52.392 89.388 52.267 C 97.557 51.175 105.881 52.101 114.202 54.616 C 120.186 56.503 125.498 58.617 130.527 60.103 C 132.113 60.576 135.318 61.323 138.077 61.525 C 145.729 62.085 150.023 60.526 148.734 57.344 C 148.632 57.089 148.402 56.902 148.382 56.771 C 148.344 56.529 148.382 56.267 148.816 55.911 C 150.072 54.629 149.371 53.696 148.605 52.276 C 148.605 52.276 158.432 34.722 163.34 25.975 L 76.655 25.753 Z  M 161.737 27.331 L 154.565 39.712 C 150.731 39.018 149.83 42.242 149.772 42.695 C 144.793 41.419 145.558 47.875 148.055 48.311 C 148.217 49.248 143.963 50.411 141.721 48.217 C 145.166 48.679 146.386 44.121 142.178 43.108 C 147.726 38.983 137.317 32.809 137.193 41.34 C 132.299 40.478 132.935 46.946 136.04 47.449 C 134.451 49.199 129.782 49.248 127.342 45.558 C 131.493 47.714 133.74 42.149 129.427 40.591 C 134.75 35.923 124.327 31.62 124.571 39.162 C 120.643 36.834 117.941 42.769 123.186 43.68 C 122.887 44.748 116.019 44.756 114.276 41.995 C 119.145 43.107 119.369 37.178 115.072 36.696 C 119.385 31.221 108.436 28.453 110.274 35.923 C 106.044 34.25 104.446 39.524 108.565 41.218 C 108.794 42.058 101.894 42.772 99.478 39.744 C 104.782 38.948 102.926 33.808 99.491 34.219 C 99.491 34.219 99.54 34.072 99.734 33.571 C 101.356 28.412 92.636 27.981 93.844 33.452 C 94.037 33.956 94.251 34.626 94.251 34.626 C 91.847 34.137 90.378 35.116 90.552 37.371 C 91.15 40.366 92.732 40.145 94.756 39.548 C 95.605 40.435 89.874 43.4 86.275 40.753 C 90.682 39.487 88.45 34.322 84.762 35.02 C 84.61 33.371 82.819 31.06 80.483 32.187 L 78.012 27.327 L 161.737 27.331 Z  M 168.944 96.118 L 163.767 96.194 C 160.131 99.907 133.8 124.161 138.234 160.798 C 140.131 176.468 144.507 190.025 156.206 206.04 L 159.332 204.205 L 159.811 204.526 L 192.232 185.875 L 192.249 180.212 L 154.615 195.999 C 153.869 195.205 153.43 194.319 152.801 193.341 L 167.882 186.931 C 167.882 186.931 168.244 186.015 168.36 185.593 C 173.318 173.049 183.39 163.968 192.159 156.952 C 192.113 144.602 192.055 118.745 192.055 118.745 L 169.38 96.164 C 166.473 98.822 163.894 101.557 161.315 104.523 L 187.348 138.79 L 185.04 140.292 L 159.282 106.203 C 162.332 102.535 165.643 99.336 168.944 96.118 L 168.944 96.118 Z  M 192.073 118.398 C 192.073 118.398 191.947 59.565 191.776 31.156 L 191.776 31.156 L 178.265 45.017 L 178.318 104.651 L 192.073 118.398 Z  M 190.924 36.757 L 181.378 46.606 L 181.485 107.222 L 179.032 104.804 L 179.032 45.82 L 190.958 33.325 L 190.924 36.757 Z  M 98.026 35.298 C 98.311 35.801 98.188 36.498 97.729 37.067 C 95.777 39.489 101.909 43.697 106.321 42.966 C 109.679 42.409 112.542 40.392 111.307 38.858 C 110.301 37.608 110.958 36.344 112.166 36.353 C 113.409 36.362 114.406 37.35 113.329 38.704 C 110.934 41.715 114.587 45.248 120.174 45.321 C 124.124 45.373 125.441 44.4 125.228 41.585 C 125.128 40.267 125.387 39.903 126.304 39.703 C 127.769 39.383 128.508 41.062 127.293 42.343 C 124.67 45.109 127.651 49.176 132.613 49.438 C 134.428 49.534 134.786 49.438 136.812 48.294 C 138.395 47.401 138.954 46.051 138.178 45.003 C 137.18 43.653 138.526 42.041 140.08 42.705 C 141.191 43.18 141.738 44.032 140.509 45.476 C 138.895 47.373 139.659 48.938 142.768 49.993 C 145.19 50.816 146.867 50.714 148.001 49.68 C 148.353 49.358 149.138 48.686 149.127 48.891 C 148.365 50.207 147.69 51.429 147.69 51.429 C 142.617 53.691 138.658 49.457 138.788 49.299 C 133.563 52.314 128.929 51.678 125.014 46.612 C 123.996 47.177 116.707 48.505 111.446 42.73 C 106.136 45.394 101.201 44.277 96.815 41.298 C 93.574 44.357 90.157 44.841 86.607 43.372 L 85.556 41.257 C 85.821 41.157 86.965 43.378 92.521 42.343 C 94.386 41.996 97.596 38.861 95.798 37.333 C 94.975 36.169 94.951 35.644 95.678 34.939 C 96.393 34.243 97.614 34.601 98.026 35.298 L 98.026 35.298 Z  M 84.417 38.071 C 84.727 38.672 84.768 39.669 84.426 39.07 C 84.246 38.754 83.306 37.342 83.35 37.299 C 83.788 37.262 84.222 37.714 84.417 38.071 Z  M 190.928 38.553 L 190.99 116.777 L 182.861 108.712 L 182.471 47.432 L 190.928 38.553 Z  M 96.787 42.341 L 99.347 43.951 L 94.763 43.923 L 96.787 42.341 Z  M 111.177 43.687 L 113.326 45.775 L 108.808 44.828 L 111.177 43.687 Z  M 151.442 44.771 L 150.482 46.74 C 149.928 46.121 149.766 44.806 151.442 44.771 Z  M 167.686 77.29 C 169.317 73.627 171.5 68.963 175.033 67.479 C 172.403 62.253 172.745 57.028 174.611 54.164 C 171.942 51.68 169.203 48.704 167.503 44.425 C 159.071 51.87 157.716 67.161 167.686 77.29 Z  M 167.433 45.855 L 168.014 47.285 C 160.504 56.475 162.823 68.539 168.262 74.977 L 167.48 76.598 C 160.833 69.588 157.923 54.769 167.433 45.855 L 167.433 45.855 Z  M 122.542 51.054 C 131.243 53.607 138.212 57.587 148.272 54.041 L 148.319 55.999 C 141.916 60.11 129.16 55.767 120.543 52.587 C 106.692 47.474 95.912 47.772 88.211 48.356 C 87.533 48.224 86.994 46.453 88.08 46.441 C 102.482 46.282 100.155 44.485 122.542 51.054 L 122.542 51.054 Z  M 124.508 47.59 L 127.366 50.621 C 125.22 49.948 123.133 49.2 121.192 48.27 L 124.508 47.59 Z  M 168.122 48.338 L 168.682 49.11 C 168.924 49.444 167.101 49.618 167.407 49.226 L 168.122 48.338 Z  M 119.025 53.885 C 129.412 57.785 140.849 61.678 148.354 58.187 C 148.354 58.187 148.401 59.673 147.543 60.094 C 147.543 60.094 146.752 60.734 144.103 61.098 C 131.959 62.095 124.076 57.068 114.274 54.096 C 110.556 52.969 104.582 51.604 98.448 51.35 C 94.806 51.184 89.234 51.707 89.234 51.707 C 88.02 51.606 88.038 50.889 88.027 50.187 C 98.586 48.779 108.295 49.829 119.025 53.885 L 119.025 53.885 Z  M 169.251 50.146 C 169.385 50.14 169.522 50.15 169.657 50.17 L 170.719 51.527 L 169.459 53.53 C 169.459 53.53 168.348 52.507 167.784 51.502 C 167.473 50.852 168.314 50.19 169.251 50.146 L 169.251 50.146 Z  M 138.649 50.528 L 141.938 53.01 C 139.466 53.132 136.682 53.224 133.928 52.13 L 138.649 50.528 Z  M 166.508 51.792 C 166.767 51.786 167.039 52.059 167.357 52.603 C 167.97 53.648 167.889 53.848 166.701 54.229 C 165.141 54.731 165.018 54.621 165.523 53.221 C 165.867 52.267 166.175 51.8 166.508 51.792 L 166.508 51.792 Z  M 171.504 52.432 L 173.727 54.299 C 172.499 57.494 171.696 61.549 174.162 67.37 C 173.888 67.388 172.29 68.965 171.789 69.234 C 170.38 68.644 167.279 57.109 171.504 52.432 Z  M 168.974 54.876 L 168.41 58.41 C 168.363 58.699 165.95 56.737 166.175 55.755 C 166.605 54.589 168.074 54.837 168.974 54.876 Z  M 164.984 56.117 C 165.276 56.119 165.734 56.825 166.297 57.748 C 166.736 58.468 166.646 58.74 165.674 59.616 C 164.244 61.063 163.962 60.59 164.279 58.129 C 164.436 56.913 164.653 56.114 164.984 56.117 Z  M 167.943 59.318 C 168.137 59.323 168.307 59.369 168.431 59.468 L 168.595 62.91 C 168.609 63.22 165.909 62.787 165.554 61.476 C 165.105 60.637 166.895 59.297 167.943 59.318 L 167.943 59.318 Z  M 164.378 62.227 C 164.571 62.2 165.177 62.602 165.749 62.942 C 166.743 63.532 166.765 63.791 165.908 64.892 C 164.902 66.185 164.402 65.977 164.247 63.729 C 164.191 62.903 164.129 62.263 164.378 62.227 Z  M 168.342 63.544 C 168.429 63.544 168.507 63.569 168.574 63.626 C 169.052 64.035 169.784 67.484 169.476 67.844 C 169.038 68.357 166.733 67.675 166.218 66.864 C 165.729 66.093 167.501 63.544 168.342 63.544 L 168.342 63.544 Z  M 165.52 67.605 C 165.785 67.587 166.262 67.769 166.983 68.116 C 167.416 68.325 168.14 68.718 168.3 69.054 C 168.581 69.644 168.113 70.518 167.509 71.244 C 167.109 71.724 166.734 71.367 165.959 69.757 C 165.336 68.463 165.079 67.635 165.52 67.605 L 165.52 67.605 Z  M 170.175 69.147 C 170.228 69.146 170.276 69.157 170.319 69.181 C 171.104 69.616 170.973 70.909 170.044 71.865 C 168.93 73.012 167.961 72.148 168.731 70.692 C 169.219 69.77 169.803 69.156 170.175 69.147 L 170.175 69.147 Z  M 105.399 101.24 C 104.72 101.27 103.661 101.885 103.198 102.48 C 102.614 103.232 102.104 103.134 101.456 103.079 C 100.684 103.068 99.511 103.238 97.922 103.962 C 97.022 104.373 96.611 104.465 95.292 104.532 C 94.43 104.575 93.567 104.692 93.375 104.792 C 93.184 104.893 92.564 105.11 92 105.275 C 90.847 105.613 91.257 105.94 91.918 107.426 C 95.283 116.052 97.694 126.104 98.573 134.29 C 99.559 143.683 99.261 155.072 97.947 163.77 C 94.726 163.792 92.703 163.627 89.311 163.684 C 86.998 182.494 80.72 197.43 68.173 210.863 L 102.091 210.949 C 105.977 200.585 123.71 192.68 124.293 193.263 L 125.228 197.045 C 125.228 197.045 112.471 198.868 103.879 215.056 C 104.758 214.524 107.958 214.893 110.07 217.086 C 114.289 211.736 121.21 208.241 121.255 208.323 L 121.487 207.678 C 121.487 207.678 122.756 207.247 123.871 207.034 C 124.229 206.966 124.963 206.828 125.45 206.658 C 126.202 206.394 126.576 206.114 127.738 206.214 C 130.156 206.445 132.583 205.743 132.531 205.73 C 125.332 185.874 123.63 167.949 126.443 147.127 C 129.095 147.148 134.912 147.248 134.912 147.248 C 135.497 141.397 136.238 135.544 138.035 130.02 C 140.342 122.928 143.124 116.336 147.604 110.308 C 150.134 106.522 152.343 103.828 154.958 100.279 L 121.756 100.356 C 117.362 107.741 108.897 113.909 102.093 116.478 C 99.777 117.348 99.45 117.22 99.066 116.131 C 98.381 114.185 98.413 114.268 100.225 113.751 C 100.83 113.579 102.765 112.559 105.785 111.145 C 112.195 107.891 116.602 101.935 119.194 97.914 C 120.225 96.326 119.533 96.685 117.77 96.669 C 116.155 96.543 115.418 96.043 113.967 94.69 C 113.432 94.191 113.202 93.836 112.958 93.865 C 111.063 96.586 107.881 100.176 105.399 101.24 L 105.399 101.24 Z  M 113.191 94.953 C 114.683 96.551 116.454 97.485 118.785 97.79 C 115.06 103.634 110.51 108.205 105.281 110.983 L 102.623 103.506 C 109.14 100.472 110.882 97.432 113.191 94.953 Z  M 167.309 97.332 C 132.195 129.795 134.26 170.722 158.85 203.965 L 156.274 205.514 C 133.179 174.567 129.001 128.786 164.287 97.193 L 167.309 97.332 Z  M 145.172 101.291 L 153.78 101.274 L 147.92 108.869 L 140.057 108.84 L 145.172 101.291 Z  M 143.823 101.354 L 139.036 108.902 L 126.123 109.068 C 118.396 118.594 110.096 123.241 101.647 126.412 L 99.998 118.278 C 99.998 118.278 113.375 115.052 122.04 101.251 L 143.823 101.354 Z  M 130.701 101.978 L 127.709 105.29 L 130.817 108.451 L 133.655 105.241 L 130.701 101.978 Z  M 137.478 101.901 L 134.447 105.053 L 136.812 108.224 L 139.954 105.145 L 137.478 101.901 Z  M 122.529 102.476 L 122.013 107.433 L 125.913 108.712 L 126.483 104.474 L 122.529 102.476 Z  M 146.255 102.66 L 143.425 107.085 L 147.687 107.153 L 150.667 102.747 L 146.255 102.66 Z  M 101.699 103.791 L 104.461 111.448 L 102.036 112.617 L 99.575 104.621 L 101.699 103.791 Z  M 98.429 105.019 L 101.277 112.94 L 98.892 113.727 L 96.276 105.483 L 98.429 105.019 Z  M 101.842 136.292 C 102.159 147.308 102.317 153.949 100.476 163.631 C 100.379 164.137 98.401 163.689 98.401 163.689 C 98.651 163.773 99.516 152.747 99.447 145.822 C 99.316 132.633 97.08 119.586 91.904 106.516 C 92.891 105.912 95.324 105.604 95.324 105.604 C 98.591 115.516 101.486 126.178 101.842 136.292 L 101.842 136.292 Z  M 67.366 105.75 C 78.702 120.789 86.804 141.194 85.449 161.325 C 84.151 184.735 75.275 198.227 59.688 214.438 L 55.666 214.532 C 74.118 196.84 82.282 181.699 82.925 161.723 C 83.666 138.749 76.649 123.469 64.831 107.185 L 67.366 105.75 Z  M 31.108 126.424 L 31.147 131.903 L 69.767 115.339 L 64.197 107.133 L 31.108 126.424 Z  M 121.622 108.48 L 117.418 108.692 L 117.558 112.935 L 121.941 112.829 L 121.622 108.48 Z  M 159.097 107.674 L 184.125 140.492 L 177.932 145.092 L 154.073 114.253 L 159.097 107.674 Z  M 139.482 109.915 L 146.973 110.031 L 144.076 114.837 L 136.836 114.779 L 139.482 109.915 Z  M 138.098 110.034 C 134.654 116.439 129.903 123.743 127.235 135.547 L 102.575 135.568 C 102.529 132.873 102.18 130.178 101.778 127.483 C 112.405 123.594 120.636 117.781 126.69 110.097 L 138.098 110.034 Z  M 142.659 110.372 L 139.444 112.226 L 141.408 114.485 L 144.951 113.128 L 142.659 110.372 Z  M 113.305 112.733 L 112.243 116.913 L 116.24 118.452 L 116.979 113.486 L 113.305 112.733 Z  M 136.3 115.855 L 143.487 115.899 L 140.461 121.942 L 133.341 121.836 L 136.3 115.855 Z  M 153.412 115.064 L 177.095 145.763 L 174.875 147.52 L 151.73 117.512 L 153.412 115.064 Z  M 139.028 116.343 L 135.789 119.041 L 138.226 121.855 L 141.214 119.471 C 141.277 119.42 139.028 116.343 139.028 116.343 L 139.028 116.343 Z  M 107.595 116.565 L 106.601 120.629 L 110.757 121.735 L 111.5 117.376 L 107.595 116.565 Z  M 101.846 119.268 L 101.002 123.269 L 104.916 124.327 L 105.742 120.47 L 101.846 119.268 Z  M 69.526 118.867 C 69.727 118.826 68.872 123.629 67.613 124.495 C 67.011 124.908 66.7 124.817 66.178 124.254 C 65.819 123.866 64.19 121.21 64.19 121.21 L 65.581 120.511 C 67.269 123.21 67.268 121.904 67.907 119.604 L 69.526 118.867 Z  M 63.035 121.633 C 63.587 121.629 64.255 122.314 65.01 123.641 C 66.101 125.56 66.065 125.685 64.271 126.238 C 61.042 127.092 59.841 127.297 60.834 125.166 C 61.904 122.872 62.327 121.638 63.035 121.633 L 63.035 121.633 Z  M 72.648 121.252 L 74.858 125.035 C 65.997 147.597 51.704 163.782 32.031 173.575 L 31.986 169.827 C 55.181 156.624 64.692 141.028 72.648 121.252 L 72.648 121.252 Z  M 132.897 122.883 L 139.872 123.009 L 138.009 128.342 L 130.595 128.289 L 132.897 122.883 Z  M 60.94 122.65 C 55.263 136.179 47.506 147.983 31.996 157.948 L 31.934 154.354 C 49.352 143.857 56.881 124.196 56.879 124.19 L 60.94 122.65 Z  M 149.096 122.628 C 153.226 122.741 157.569 127.243 157.128 130.954 C 156.818 133.569 157.319 135.509 158.031 134.439 C 159.604 132.073 164.239 133.646 164.197 136.487 C 164.175 137.999 163.165 138.247 162.585 136.882 C 161.729 134.866 159.322 134.816 158.967 136.929 C 158.634 138.91 160.314 140.366 164.803 141.988 C 170.063 143.222 173.229 147.937 171.358 150.647 C 170.709 151.363 170.318 151.54 170.195 151.168 C 170.16 151.062 170.031 150.503 169.91 149.928 C 169.314 147.087 167.953 145.894 166.298 146.869 C 165.469 147.358 165.575 148.006 166.058 148.859 C 166.702 149.996 166.299 150.437 165.146 149.858 C 163.326 148.944 162.724 146.777 164.489 145.777 C 166.588 144.938 165.877 144.757 163.195 143.851 C 157.488 141.901 155.038 138.324 154.739 131.509 C 154.848 128.402 154.423 127.295 152.963 126.87 C 151.625 126.482 150.11 128.181 151.07 129.076 C 151.592 129.562 152.018 130.005 151.741 130.273 C 150.854 131.135 148.635 129.736 148.657 128.236 C 148.671 127.256 149.043 127.053 150.511 125.9 C 150.918 125.58 150.571 124.977 149.975 124.969 C 147.731 125.691 147.889 122.724 149.096 122.628 L 149.096 122.628 Z  M 136.167 123.414 L 132.68 125.418 L 134.496 127.955 L 138.356 126.142 L 136.167 123.414 Z  M 68.326 125.383 C 68.726 125.383 69.054 125.707 69.054 126.107 C 69.054 126.508 68.726 126.836 68.326 126.836 C 67.925 126.836 67.602 126.508 67.602 126.107 C 67.601 125.707 67.925 125.383 68.326 125.383 Z  M 75.473 125.697 C 82.832 141.758 84.582 160.124 79.461 178.477 L 59.588 152.621 C 67.212 144.037 72.338 134.21 75.473 125.697 L 75.473 125.697 Z  M 48.596 126.877 L 30.863 134.327 L 30.765 147.623 C 40.672 140.862 44.874 133.94 48.596 126.877 Z  M 65.641 126.766 C 67.388 126.712 66.526 131.429 64.257 133.038 C 63.425 133.677 62.864 133.599 62.59 132.32 C 62.447 131.658 61.75 130.256 60.871 129.127 C 59.848 127.814 59.86 127.782 61.354 127.689 C 63.002 127.713 64.354 126.922 65.641 126.766 L 65.641 126.766 Z  M 63.914 128.77 C 62.625 128.751 62.239 129.355 63.006 130.18 C 63.653 130.875 64.166 130.726 64.599 129.721 C 64.863 129.109 64.627 128.781 63.914 128.77 Z  M 31.93 146.018 L 31.973 134.733 L 47.138 128.348 C 44.096 134.942 38.465 141.479 31.93 146.018 Z  M 166.649 155.135 L 164.628 157.166 L 145.051 131.645 L 146.278 128.424 L 166.649 155.135 Z  M 59.357 129.321 C 60.014 129.33 61.503 131.606 61.92 133.24 C 62.23 134.452 61.902 134.708 59.603 135.05 C 58.651 135.311 56.079 135.059 56.287 134.374 C 56.661 133.386 59.126 129.317 59.357 129.321 Z  M 130.281 129.581 L 137.425 129.658 L 135.788 135.518 L 128.307 135.407 L 130.281 129.581 Z  M 133.438 129.938 L 130.112 132.241 L 132.743 134.833 L 136.266 132.656 L 133.438 129.938 Z  M 144.644 132.459 L 164.449 158.162 C 158.54 165.678 152.647 174.311 148.773 185.723 C 141.722 169.23 139.14 153.177 144.644 132.459 Z  M 64.21 134.646 C 64.61 134.646 64.939 134.97 64.939 135.37 C 64.939 135.771 64.61 136.099 64.21 136.099 C 63.809 136.099 63.486 135.771 63.486 135.37 C 63.486 134.97 63.809 134.646 64.21 134.646 Z  M 61.932 135.626 C 63.168 135.714 62.001 139.651 60.14 141.087 C 58.673 142.219 58.042 141.694 57.703 139.623 C 57.581 138.874 56.794 137.602 56.101 136.598 C 55.327 135.476 55.646 135.298 57.607 135.748 C 58.976 136.014 60.666 135.689 61.932 135.626 L 61.932 135.626 Z  M 128.119 136.588 L 135.61 136.633 L 134.456 145.532 L 128.119 136.588 Z  M 55.14 137 C 56.321 138.101 57.812 141.961 57.047 142.239 C 56.157 142.562 52.13 142.095 51.679 141.631 C 51.369 141.311 51.368 141.309 52.027 140.429 C 52.389 139.944 53.079 138.978 53.562 138.281 C 53.997 137.771 54.479 136.39 55.14 137 L 55.14 137 Z  M 59.311 137.132 C 58.17 137.17 58.094 137.327 58.635 138.556 C 59.076 139.559 59.382 139.648 60.141 138.99 C 61.196 138.075 60.753 137.084 59.311 137.132 Z  M 190.781 137.904 L 191.051 142.292 C 162.259 156.573 151.476 190.291 151.321 190.29 L 149.231 186.4 C 162.443 153.843 180.014 144.417 190.781 137.904 L 190.781 137.904 Z  M 55.108 143.093 C 56.823 143.057 57.324 142.941 57.314 143.576 C 57.334 145.284 55.737 147.71 53.786 148.625 C 52.472 149.241 52.443 149.255 52.294 147.708 C 52.18 146.517 51.792 144.985 51.174 143.764 C 50.981 143.312 50.236 142.274 51.172 142.569 C 52.107 142.864 54.039 143.116 55.108 143.093 L 55.108 143.093 Z  M 58.954 142.696 C 59.355 142.696 59.678 143.02 59.678 143.421 C 59.678 143.821 59.355 144.145 58.954 144.145 C 58.554 144.145 58.23 143.821 58.23 143.421 C 58.23 143.02 58.554 142.696 58.954 142.696 L 58.954 142.696 Z  M 49.78 143.697 C 50.091 143.687 50.386 144.326 50.74 145.265 C 51.509 147.307 51.745 148.415 51.517 148.895 C 51.167 149.635 46.441 149.157 45.638 148.33 C 45.485 148.445 49.114 144.107 49.78 143.697 L 49.78 143.697 Z  M 53.182 144.203 C 52.505 144.25 52.864 144.658 53.366 145.84 C 53.714 146.658 54.184 146.79 54.722 146.216 C 55.442 145.449 55.539 144.839 55.085 144.512 C 54.418 144.244 53.925 144.207 53.182 144.203 Z  M 190.982 148.642 L 191.007 150.111 C 189.886 149.777 189.191 149.302 187.913 148.877 C 187.129 148.614 186.666 148.426 187.358 147.601 C 188.443 146.308 189.606 145.5 190.928 144.699 L 190.935 146.364 C 188.822 147.3 189.027 148.164 190.982 148.642 L 190.982 148.642 Z  M 107.754 147.148 L 115.709 147.148 L 115.709 152.399 L 121.931 152.399 L 121.448 158.385 L 115.709 158.385 L 115.709 163.636 L 107.754 163.636 L 107.754 158.385 L 102.073 158.385 L 102.532 152.399 L 107.755 152.399 L 107.754 147.148 Z  M 125.72 147.166 C 121.692 167.125 125.387 188.314 131.601 205.578 L 128.465 205.923 C 123.621 192.118 119.771 172.463 123.687 147.177 C 123.687 147.177 125.091 147.152 125.72 147.166 Z  M 184.762 147.553 C 185.162 147.553 185.486 147.877 185.486 148.277 C 185.486 148.678 185.162 149.001 184.762 149.001 C 184.361 149.001 184.038 148.678 184.038 148.277 C 184.038 147.877 184.361 147.553 184.762 147.553 Z  M 44.827 149.228 C 45.091 149.22 45.9 149.569 46.618 149.769 C 47.698 150.069 48.549 150.199 49.533 150.218 C 51.511 150.256 51.77 150.238 50.919 151.864 C 50.306 153.035 48.925 154.582 47.96 155.054 C 46.592 155.784 46.068 155.685 46.15 154.34 C 46.16 153.427 45.763 151.841 45.247 150.71 C 44.846 149.831 44.388 149.241 44.827 149.228 L 44.827 149.228 Z  M 53.193 149.869 C 53.593 149.869 53.921 150.193 53.921 150.593 C 53.922 150.994 53.593 151.322 53.193 151.322 C 52.792 151.322 52.469 150.994 52.469 150.593 C 52.469 150.193 52.792 149.869 53.193 149.869 L 53.193 149.869 Z  M 187.035 149.774 C 187.596 149.762 188.557 150.105 189.434 150.531 C 191.759 151.661 191.697 151.921 188.546 154.156 C 186.258 155.892 185.717 156.087 185.635 153.35 C 185.553 151.044 185.802 149.8 187.035 149.774 Z  M 43.635 150.435 C 44.558 150.448 45.579 155.253 44.75 155.682 C 43.458 156.349 39.458 155.049 39.474 153.954 C 39.479 153.597 43.228 150.429 43.635 150.435 Z  M 184.255 150.237 C 184.806 150.213 184.88 150.645 184.829 152.177 C 184.803 152.989 184.942 154.312 184.998 154.929 C 185.115 156.209 185.005 156.298 183.994 155.725 C 183.346 155.358 182.03 154.758 180.606 154.634 C 179.439 154.533 179.353 154.053 179.715 153.284 C 180.746 151.579 182.612 150.382 184.255 150.237 L 184.255 150.237 Z  M 47.062 150.961 C 46.257 150.955 46.456 151.383 46.956 152.588 C 47.31 153.441 47.923 153.522 48.554 152.795 C 49.436 151.777 49.263 151.238 47.979 151.043 C 47.708 151.002 47.248 150.962 47.062 150.961 L 47.062 150.961 Z  M 183.188 152.105 C 182.853 152.136 182.395 152.401 182.174 152.544 C 181.418 153.019 181.11 153.36 182.208 153.736 C 183.186 154.071 183.705 154.217 183.627 153.374 C 183.581 152.867 183.62 152.131 183.188 152.105 L 183.188 152.105 Z  M 108.527 152.728 L 108.527 157.96 L 114.86 157.96 L 114.86 152.728 L 108.527 152.728 Z  M 177.531 153.181 C 177.932 153.181 178.255 153.505 178.255 153.905 C 178.255 154.306 177.932 154.629 177.531 154.629 C 177.13 154.629 176.807 154.306 176.807 153.905 C 176.807 153.505 177.13 153.181 177.531 153.181 Z  M 58.984 153.997 L 78.962 179.639 L 77.635 182.982 L 57.058 155.913 L 58.984 153.997 Z  M 191.109 153.876 L 191.153 157.227 C 188.895 158.879 174.563 169.265 167.147 186.747 L 163.266 188.4 C 168.73 173.354 180.418 160.467 191.109 153.876 L 191.109 153.876 Z  M 39.132 155.296 C 40.432 155.691 41.674 156.595 42.901 156.758 C 44.312 156.93 44.799 156.84 44.417 157.569 C 43.561 159.201 41.946 160.911 40.242 161.469 C 39.023 161.868 38.448 161.719 38.639 160.962 C 38.998 159.545 39.059 158.382 39.011 157.091 C 39.204 156.387 38.603 155.402 39.132 155.296 L 39.132 155.296 Z  M 37.606 155.595 C 38.435 156.304 38.271 160.784 37.346 161.749 C 36.862 162.253 35.458 161.793 33.354 160.6 C 31.978 159.821 31.721 159.345 32.408 158.867 C 33.571 158.161 36.98 155.427 37.606 155.595 L 37.606 155.595 Z  M 180.335 155.691 C 180.767 155.682 181.3 155.757 181.943 155.904 C 184.433 156.463 184.987 157.031 182.865 158.718 C 182.08 159.341 181.248 160.115 181.006 160.412 C 179.864 161.812 179.07 160.797 178.82 158.254 C 178.645 156.475 178.913 155.461 180.335 155.691 Z  M 177.217 155.933 C 177.622 155.933 177.881 156.144 177.874 156.647 C 177.864 157.29 178.326 160.071 178.583 160.837 C 179.032 162.139 178.707 162.433 177.628 161.865 C 176.842 161.441 174.761 161.12 173.636 161.208 C 172.355 161.309 172.392 160.966 172.767 159.891 C 173.431 157.985 176.004 155.934 177.217 155.933 Z  M 40.348 156.859 C 39.861 156.858 39.841 157.514 40.174 159.017 C 40.28 159.495 40.691 159.466 41.468 158.92 C 42.386 158.275 42.349 157.87 41.313 157.25 C 40.887 156.995 40.569 156.86 40.348 156.859 L 40.348 156.859 Z  M 46.01 157.023 C 46.41 157.023 46.734 157.347 46.734 157.747 C 46.734 158.148 46.41 158.472 46.01 158.472 C 45.609 158.472 45.286 158.148 45.286 157.747 C 45.286 157.347 45.609 157.023 46.01 157.023 Z  M 174.852 159.837 C 175.2 160.176 176.484 160.162 176.706 159.958 C 177.045 159.645 176.887 158.192 176.604 158.018 C 175.881 157.772 174.419 159.301 174.852 159.837 Z  M 54.944 162.603 C 55.381 164.675 58.294 164.561 57.966 162.401 C 57.774 161.139 57.729 161.166 58.362 161.194 C 61.37 161.341 60.848 166.083 57.382 165.717 C 56.658 165.803 56.562 166.099 57.174 166.354 C 57.782 166.607 60.112 167.204 60.471 167.203 C 64.243 167.19 69.684 172.989 69.55 178.136 C 69.463 181.502 70.604 183.924 71.771 184.198 C 72.698 184.417 74.045 183.573 73.928 182.543 C 73.767 181.121 74.923 181.565 75.589 182.586 C 76.604 183.997 75.294 186.033 72.876 185.873 C 71.847 186.074 73.632 186.727 74.955 187.109 C 76.155 187.178 75.141 188.656 74.918 188.919 C 74.239 189.707 72.017 189.105 70.274 187.698 C 68.134 185.97 67.216 183.655 66.963 179.106 C 66.801 176.182 66.583 175.588 65.732 176.794 C 64.203 179.484 60.542 178.168 60.085 175.327 C 59.829 173.823 61.153 172.737 61.581 174.101 C 62.716 176.934 65.494 176.253 65.042 173.439 C 64.744 171.583 62.886 170.558 59.216 169.525 C 54.804 168.282 53.492 166.772 52.632 163.153 C 52.252 161.552 52.312 160.714 53.158 159.876 C 53.577 159.462 54.109 159.041 54.109 159.041 C 54.109 159.041 54.698 161.476 54.944 162.603 L 54.944 162.603 Z  M 170.356 160.307 C 170.756 160.307 171.08 160.63 171.08 161.031 C 171.08 161.431 170.756 161.755 170.356 161.755 C 169.955 161.755 169.632 161.431 169.632 161.031 C 169.632 160.63 169.955 160.307 170.356 160.307 L 170.356 160.307 Z  M 31.872 160.995 C 33.186 161.47 34.315 162.175 35.669 162.636 C 36.548 162.935 36.308 163.638 35.398 164.637 C 34.383 165.836 33.385 166.425 31.978 167.093 L 31.993 165.067 C 33.703 164.47 34.791 163.046 31.919 162.589 L 31.872 160.995 Z  M 173.774 162.125 C 174.272 162.13 174.976 162.148 175.803 162.318 C 177.897 162.751 178.142 162.937 176.884 164.408 C 176.418 164.954 175.724 165.776 175.345 166.238 C 174.107 167.962 173.44 167.371 172.864 165.142 C 172.148 162.815 171.985 161.923 173.774 162.125 L 173.774 162.125 Z  M 38.437 162.955 C 38.837 162.955 39.161 163.279 39.161 163.68 C 39.161 164.08 38.837 164.404 38.437 164.404 C 38.036 164.404 37.713 164.08 37.713 163.68 C 37.713 163.279 38.036 162.955 38.437 162.955 L 38.437 162.955 Z  M 171.664 164.532 C 171.864 165.267 172.167 166.203 172.398 166.867 C 173.534 169.372 172.815 168.403 170.78 168.182 C 169.411 168.034 167.233 168.262 166.694 167.884 C 166.459 167.579 166.676 166.774 167.115 165.866 C 167.733 164.588 168.856 163.499 169.694 163.005 C 171.816 162.025 171.321 163.271 171.664 164.532 Z  M 49.348 163.641 L 72.168 193.812 L 70.378 196.363 L 46.907 165.341 L 49.348 163.641 Z  M 192.36 163.754 C 180.498 172.326 175.943 182.729 175.017 184.089 L 192.408 177.38 L 192.36 163.754 Z  M 169.712 164.737 C 169.061 164.915 168.128 166.122 168.529 166.595 C 168.769 166.842 169.726 166.874 170.185 166.706 C 170.891 166.447 170.408 164.733 169.712 164.737 L 169.712 164.737 Z  M 69.709 197.366 L 64.849 203.491 L 39.523 170.732 L 45.913 166.117 L 69.709 197.366 Z  M 191.095 165.526 L 191.275 176.786 L 176.4 182.987 C 181.38 174.573 186.259 169.371 191.095 165.526 L 191.095 165.526 Z  M 89.385 166.481 L 95.343 174.237 L 88.063 174.072 L 89.385 166.481 Z  M 164.718 167.116 C 165.119 167.116 165.442 167.439 165.442 167.84 C 165.442 168.24 165.119 168.564 164.718 168.564 C 164.317 168.564 163.994 168.24 163.994 167.84 C 163.994 167.439 164.317 167.116 164.718 167.116 Z  M 169.084 168.951 C 171.809 168.988 172.718 169.135 171.926 170.475 C 170.869 171.782 170.244 173.023 169.091 174.232 C 168.425 174.91 167.593 173.513 166.898 171.277 C 166.336 169.472 166.62 169.017 167.687 169.002 C 168.754 168.987 168.936 168.949 169.084 168.951 L 169.084 168.951 Z  M 165.937 171.393 C 166.16 172.106 166.681 173.279 167.095 173.995 C 167.51 174.71 167.974 175.506 167.946 175.644 C 167.876 175.98 167.558 176.006 166.84 175.736 C 165.288 175.036 161.638 175.776 161.542 175.431 C 161 174.659 161.813 172.552 163.345 171.094 C 164.094 170.381 164.779 169.918 165.175 169.911 C 165.571 169.904 165.643 170.452 165.937 171.393 L 165.937 171.393 Z  M 38.648 170.839 L 64.419 204.305 L 62.635 206.476 L 36.576 172.363 C 36.576 172.363 32.46 174.379 31.25 175.051 L 31.413 192.361 L 30.709 192.327 L 30.814 279.999 L 45.194 265.661 L 45.007 206.172 C 48.058 209.043 50.669 212.104 54.161 214.917 L 60.142 214.87 C 75.754 198.992 84.304 185.402 86.181 161.067 C 87.436 144.787 82.027 124.315 67.681 104.475 L 64.178 106.602 L 71.1 117.033 L 56.438 123.531 C 50.598 135.842 43.676 147.204 31.014 153.711 L 30.943 169.645 L 30.722 169.974 L 30.889 174.977 L 38.648 170.839 Z  M 164.645 171.981 C 163.961 172.033 162.89 173.509 163.38 174.013 C 163.958 174.287 164.849 174.268 165.222 173.774 C 165.477 173.29 165.412 172.265 164.645 171.981 Z  M 87.77 175.428 L 95.338 175.472 L 93.359 181.964 L 85.989 181.824 L 87.77 175.428 Z  M 159.663 175.399 C 160.063 175.399 160.387 175.723 160.387 176.123 C 160.387 176.524 160.063 176.847 159.663 176.847 C 159.262 176.847 158.939 176.524 158.939 176.123 C 158.939 175.723 159.262 175.399 159.663 175.399 Z  M 121.105 175.597 L 122.084 184.028 C 113.829 187.03 104.928 192.122 97.144 201.484 C 95.814 201.397 85.199 201.576 85.199 201.576 C 85.464 201.614 95.034 183.556 96.136 175.718 L 121.105 175.597 Z  M 91.131 176.382 L 87.66 178.767 L 90.373 181.658 L 93.964 179.225 L 91.131 176.382 Z  M 163.36 176.418 C 164.097 176.414 165.087 176.504 165.88 176.644 C 167.159 176.892 167.347 176.916 166.916 177.972 C 166.34 179.373 165.043 181.899 164.715 182.1 C 163.543 182.826 160.938 177.616 161.826 176.715 C 162.061 176.531 162.559 176.422 163.36 176.418 L 163.36 176.418 Z  M 160.041 178.02 C 160.376 177.991 160.823 178.642 160.956 179.204 C 161.116 179.886 162.298 181.606 163.042 182.43 C 163.978 183.467 163.929 183.612 162.588 183.719 C 160.992 183.847 159.432 184.161 158.533 184.487 C 157.139 184.994 156.949 184.882 157.128 183.252 C 157.397 180.8 159.035 178.107 160.041 178.02 L 160.041 178.02 Z  M 158.817 183.093 C 158.992 183.568 161.154 182.696 161.274 182.126 C 161.253 181.87 160.405 180.391 159.895 180.324 C 159.03 180.459 158.667 182.421 158.817 183.093 Z  M 85.788 182.76 L 92.941 182.828 L 90.595 188.721 L 83.524 188.702 L 85.788 182.76 Z  M 88.99 183.55 L 85.563 185.717 L 88.232 188.3 L 91.514 186.036 L 88.99 183.55 Z  M 161.733 184.618 C 162.34 184.613 162.983 184.671 163.118 184.894 C 163.498 185.519 161.95 189.016 161.95 189.016 L 159.429 190.016 C 158.887 188.9 157.96 187.741 157.735 186.532 C 157.646 186.004 157.913 185.811 158.496 185.483 C 159.366 184.995 160.721 184.628 161.733 184.618 L 161.733 184.618 Z  M 154.979 184.904 C 155.38 184.904 155.703 185.228 155.703 185.628 C 155.703 186.029 155.38 186.352 154.979 186.352 C 154.579 186.352 154.255 186.029 154.255 185.628 C 154.255 185.228 154.579 184.904 154.979 184.904 L 154.979 184.904 Z  M 122.359 185.005 C 122.359 185.005 123.905 193.738 123.988 192.776 C 112.058 197.269 105.081 203.899 101.774 210.366 L 79.392 210.35 L 84.388 202.598 L 97.638 202.531 C 104.043 194.76 111.944 188.561 122.359 185.005 Z  M 119.493 187.061 L 118.388 190.589 L 121.733 192.723 L 122.993 188.934 L 119.493 187.061 Z  M 156.158 187.129 C 156.441 187.103 156.722 187.581 157.297 188.601 C 157.722 189.356 158.281 190.452 158.281 190.452 L 157.28 190.824 C 156.473 188.066 155.733 189.092 155.646 191.526 L 154.275 192.073 C 154.275 192.073 154.424 189.726 155.207 188.355 C 155.657 187.567 155.907 187.152 156.158 187.129 L 156.158 187.129 Z  M 83.2 189.542 L 90.137 189.629 L 87.236 195.638 L 80.184 195.445 L 83.2 189.542 Z  M 113.455 190.024 L 112.905 194.484 L 116.641 195.276 L 117.152 191.038 L 113.455 190.024 Z  M 86.15 190.078 L 82.723 192.293 L 84.972 195.252 L 88.269 193.036 L 86.15 190.078 Z  M 108.097 193.982 L 107.388 198.09 L 110.892 198.887 L 111.688 194.755 L 108.097 193.982 Z  M 31.94 194.224 L 40.71 202.917 L 41.193 263.566 L 32.471 272.312 L 31.94 194.224 Z  M 79.656 196.444 C 79.624 196.493 86.652 196.645 86.652 196.645 L 83.839 201.721 L 81.437 201.614 L 84.598 199.456 L 82.571 196.864 L 79.323 198.983 L 81.133 201.604 L 76.388 201.503 L 79.656 196.444 Z  M 124.897 197.946 L 127.278 205.815 L 124.415 206.312 L 122.264 198.908 C 123.142 198.454 124.019 198.23 124.897 197.946 Z  M 102.397 198.438 L 102.445 203.158 L 106.268 203.482 L 106.417 199.055 L 102.397 198.438 Z  M 121.4 199.191 L 123.579 206.667 L 121.762 207.185 L 119.159 200.088 C 119.871 199.666 120.615 199.358 121.4 199.191 L 121.4 199.191 Z  M 118.083 200.734 L 120.883 208.054 C 117.015 209.622 113.005 212.979 109.986 216.33 C 107.748 214.685 106.431 214.513 105.05 214.141 C 108.858 207.047 113.354 203.323 118.083 200.734 L 118.083 200.734 Z  M 75.826 202.569 L 83.182 202.791 L 78.066 210.432 L 69.744 210.423 L 75.826 202.569 Z  M 97.724 202.854 L 97.247 207.324 L 101.185 209.65 L 101.784 205.06 L 97.724 202.854 Z  M 92.98 203.482 L 90.18 206.44 L 93.153 209.834 L 95.881 206.291 L 92.98 203.482 Z  M 86.719 203.636 L 83.394 206.687 L 86.039 210.138 L 89.08 206.667 L 86.719 203.636 Z  M 44.347 206.482 L 44.673 265.731 L 32.454 277.574 L 32.362 274.387 L 42.077 264.243 C 42.088 244.201 42.024 224.16 41.957 204.119 L 44.347 206.482 Z  M 76.858 204.568 L 73.484 209.168 L 77.485 209.177 L 80.386 204.722 L 76.858 204.568 Z  M 56.05 233.239 C 54.719 238.026 48.585 243.219 48.476 243.131 C 51.512 247.483 51.41 253.688 48.732 256.746 C 48.745 256.677 53.614 260.719 54.297 262.818 C 54.683 263.654 54.837 264.672 55.326 265.501 C 55.455 265.721 55.866 266.267 55.866 266.267 C 67.76 254.206 62.096 240.072 56.05 233.239 L 56.05 233.239 Z  M 56.228 234.49 C 67.777 248.818 60.163 261.933 56.134 265.591 L 55.364 264.32 C 63.946 254.347 60.309 242.095 55.308 236.294 L 56.228 234.49 Z  M 54.978 237.279 C 55.055 237.512 55.505 238.187 55.171 238.143 L 54.592 238.027 L 54.978 237.279 Z  M 54.891 238.877 C 55.142 238.877 55.352 238.955 55.466 239.128 C 55.701 239.519 54.507 242.813 53.77 242.045 C 53.548 241.611 53.286 241.233 53.081 240.783 C 52.841 240.245 52.999 239.986 53.549 239.451 C 53.929 239.083 54.473 238.877 54.891 238.877 L 54.891 238.877 Z  M 56.552 239.77 C 57.136 239.815 57.966 241.652 58.043 242.965 C 58.079 243.101 56.072 242.656 55.538 242.043 C 55.602 241.505 56.106 240.138 56.552 239.77 L 56.552 239.77 Z  M 52.034 241.269 C 55.511 248.26 55.294 253.721 52.232 258.742 L 49.834 256.69 C 51.446 252.873 52.245 248.797 49.529 243.609 L 52.034 241.269 Z  M 54.379 243.018 C 54.62 242.997 55.363 243.107 56.021 243.317 C 58.348 244.061 58.435 245.584 56.194 246.701 C 55.266 247.164 54.977 246.959 54.442 244.63 C 54.178 243.479 53.978 243.053 54.379 243.018 L 54.379 243.018 Z  M 58.873 245.697 C 59.322 245.695 59.528 246.543 59.583 248.004 C 59.635 249.392 59.34 249.501 58.222 248.511 C 57.013 247.44 56.805 247.186 57.913 246.305 C 58.237 246.047 58.669 245.698 58.873 245.697 Z  M 55.702 247.99 C 55.923 247.971 56.566 248.38 57.194 248.859 C 58.785 250.071 58.432 250.903 56.624 251.489 C 55.372 251.895 55.434 251.947 55.466 249.781 C 55.481 248.709 55.418 248.014 55.702 247.99 Z  M 76.766 249.962 C 74.824 250.455 74.009 252.187 74.653 253.747 C 74.946 254.455 75.391 254.461 74.869 254.894 C 74.286 255.567 73.976 257.125 74.618 257.692 C 75.374 258.126 75.569 257.378 74.772 258.842 L 60.142 285.715 L 147.957 285.552 L 137.403 265.785 C 137.427 265.756 138.247 262.523 136.558 262.133 C 136.016 262.008 135.706 261.505 135.596 261.022 C 135.733 259.647 135.109 259.062 134.583 258.352 C 126.235 259.531 118.984 258.943 112.994 257.596 C 104.366 255.655 98.199 252.295 94.189 251.24 C 88.659 249.784 81.985 249.152 76.766 249.962 L 76.766 249.962 Z  M 81.497 250.147 C 88.301 250.107 95.917 252.189 101.248 254.496 C 106.778 256.781 112.638 258.483 118.557 259.357 C 123.443 259.971 128.316 259.663 132.988 259.292 C 133.498 259.215 134.028 259.285 134.408 259.69 C 135.376 260.766 134.717 261.44 132.294 261.664 C 128.404 261.985 123.58 261.848 119.3 261.206 C 112.524 260.427 105.341 258.378 99.143 255.809 C 91.398 252.903 84.284 251.93 78.663 252.788 C 75.576 253.258 75.123 253.332 75.135 252.503 C 75.159 250.885 76.497 250.146 81.497 250.147 L 81.497 250.147 Z  M 59.201 254.838 C 58.903 255.524 56.786 253.28 56.808 252.647 C 56.852 252.368 58.566 251.251 59.245 250.796 C 59.574 250.544 59.553 250.675 59.557 250.971 C 59.569 251.817 59.502 254 59.201 254.838 L 59.201 254.838 Z  M 55.943 253.183 C 56.92 253.315 58.526 255.951 57.111 256.359 C 55.86 256.721 54.721 256.954 54.568 256.114 C 55.213 254.052 55.455 253.235 55.828 253.188 C 55.865 253.183 55.906 253.183 55.943 253.184 L 55.943 253.183 Z  M 112.729 262.187 C 118.963 263.264 127.144 263.91 132.492 263.492 C 135.558 263.183 136.203 263.282 136.184 264.56 C 136.173 265.361 136.26 265.341 132.304 265.337 C 129.016 265.557 126.055 265.204 122.872 265.039 C 116.286 264.712 110.302 263.584 104.772 261.664 C 98.637 260.073 93.321 257.015 87.318 256.384 C 81.812 255.844 76.859 256.818 75.821 257.395 C 75.474 257.391 75.293 256.877 75.313 256.403 C 75.334 255.939 75.506 255.568 75.893 255.272 C 91.674 251.291 100.123 259.818 112.729 262.187 L 112.729 262.187 Z  M 58.004 256.915 C 58.53 256.92 58.363 257.698 57.502 259.347 C 56.771 260.749 56.483 260.742 56.069 259.304 C 55.627 257.768 55.669 257.598 56.547 257.373 C 57.063 257.249 57.5 256.979 58.004 256.915 Z  M 54.322 257.697 C 54.938 257.706 55.813 260.497 55.364 261.022 C 55.009 261.437 53.726 261.156 53.352 260.665 C 52.75 259.877 53.52 257.685 54.322 257.697 Z  M 81.91 258.451 C 84.358 258.426 86.798 258.688 89.041 259.074 C 87.749 259.551 86.464 259.991 85.123 260.766 C 84.197 259.97 83.145 259.195 81.91 258.451 L 81.91 258.451 Z  M 85.091 261.839 C 93.742 257.015 97.395 263.674 98.645 264.748 C 106.208 263.074 107.689 263.899 111.908 268.457 C 119.481 264.755 123.153 267.902 126.314 269.894 C 130.022 266.428 134.724 266.333 137.175 268.072 C 137.634 268.839 138.27 269.811 138.322 270.102 C 138.363 270.328 138.017 270.065 137.164 269.455 C 132.717 266.272 125.336 270.235 127.308 274.431 C 127.839 275.561 127.754 276.048 126.96 276.502 C 125.832 277.265 124.447 275.999 125.232 274.706 C 126.544 272.548 125.557 270.742 122.365 269.073 C 117.867 266.722 110.519 269.356 112.031 272.824 C 112.999 273.931 112.101 274.712 110.824 274.672 C 109.379 274.627 108.888 273.66 109.816 272.626 C 110.972 271.305 110.669 269.967 109.321 268.442 C 105.282 262.689 97.11 264.97 98.192 270.011 C 98.667 271.263 97.316 271.769 95.914 271.212 C 95.022 270.857 95.155 269.478 96.132 268.991 C 97.255 268.878 97.414 267.251 97.28 266.206 C 97.085 264.687 94.844 263.189 92.627 262.395 C 91.022 261.82 89.532 261.697 88.355 261.804 C 85.872 262.031 84.486 263.718 84.895 266.245 C 85.136 267.736 84.719 269.281 82.969 268.462 C 82.011 268.013 82.252 266.93 83.229 265.931 C 86.668 262.573 79.744 258.487 75.564 261.302 C 74.856 261.885 74.339 261.986 74.339 261.986 C 76.96 255.461 85.167 261.572 85.091 261.839 Z  M 96.485 260.96 L 101.708 262.927 C 100.504 263.165 99.655 263.504 98.802 263.843 L 96.485 260.96 Z  M 82.842 263.082 C 78.021 262.168 77.759 267.555 80.9 268.434 C 76.579 274.371 87.896 276.676 85.82 269.349 C 91.555 270.382 90.517 263.857 86.253 263.916 C 87.25 261.485 95.122 263.328 94.783 265.134 C 89.461 265.698 91.588 270.547 93.89 270.552 C 88.325 275.821 99.462 280.678 99.166 272.736 C 103.634 273.675 104.16 267.744 99.865 267.354 C 101.438 265.141 107.055 266.536 108.613 269.067 C 104.179 269.655 104.456 273.549 107.926 274.178 C 103.529 279.777 114.351 281.847 113.227 275.338 C 117.105 276.671 119.233 271.497 114.209 270.018 C 119.355 266.952 124.944 271.522 124.339 271.615 C 118.465 271.268 119.634 277.153 123.885 276.834 C 121.181 282.945 131.896 283.285 129.179 276.947 C 133.998 277.036 133.576 271.451 128.958 271.078 C 131.866 268.958 135.144 268.772 137.254 270.755 C 132.859 271.911 134.685 277.019 139.106 275.605 C 139.515 279.879 142.99 278.972 143.068 278.843 L 146.177 284.645 L 61.919 284.78 L 69.11 271.507 C 73.361 271.725 73.209 267.634 73.023 267.533 C 75.849 269.551 78.889 264.535 74.754 263.098 C 78.132 259.563 83.142 262.828 82.842 263.082 L 82.842 263.082 Z  M 55.412 262.712 C 55.236 262.892 55.191 262.999 54.901 262.731 C 54.166 261.89 56.164 261.82 55.412 262.712 Z  M 72.835 264.935 C 73.206 265.239 72.951 266.071 72.65 266.355 C 71.89 267.168 71.634 267.104 72.303 265.7 C 72.5 265.275 72.687 264.93 72.835 264.935 Z  M 109.75 265.311 L 114.131 266.37 L 112.05 267.543 C 111.282 266.709 110.542 265.988 109.75 265.311 Z  M 123.442 267.075 L 128.206 267.379 C 127.576 267.808 126.959 268.206 126.188 268.987 C 125.588 268.349 124.452 267.712 123.442 267.075 Z  M 139.314 271.934 C 139.579 272.486 140.631 274.408 140.532 274.458 C 138.991 274.727 138.578 272.434 139.314 271.934 Z " fill="rgb(16,15,8)"/></g></g></g></g></g></g></svg>