<svg width="224" height="312" xmlns="http://www.w3.org/2000/svg">

 <metadata id="metadata4428">image/svg+xml</metadata>
 <g>
  <title>background</title>
  <rect fill="none" id="canvas_background" height="314" width="226" y="-1" x="-1"/>
 </g>
 <g>
  <title>Layer 1</title>
  <g id="layer1">
   <g display="inline" id="g8889">
    <g id="g8763">
     <g id="g8869">
      <rect fill="#ffffff" stroke="#000000" stroke-width="0.996733" stroke-miterlimit="4" ry="10.629921" rx="10.629921" id="rect3232" width="223.22835" height="311.81104" x="-0.000014" y="0.000005"/>
      <g transform="matrix(0.30106207,0,0,0.30106207,5730.6419,-1948.1116) " id="g8567">
       <path fill="#d40000" id="path7183" d="m-19010.720116,6623.807828l0,-9.0914l8.8389,0l18.8141,-97.2272l10.705,0l20.736,97.2272l7.1342,0l0,9.0914l-24.3068,0l0,-9.0914l6.566,0l-2.6161,-14.8997l-24.5318,0l-1.894,14.8997l6.566,0l0,9.0914l-26.0115,0zm43.7721,-34.5977l-10.6574,-52.0501l-9.9871,52.0501l20.6445,0z"/>
       <path fill="#d40000" d="m-18317.315216,7353.489228l0,9.0914l-8.8389,0l-18.8141,97.2272l-10.705,0l-20.736,-97.2272l-7.1342,0l0,-9.0914l24.3068,0l0,9.0914l-6.566,0l2.6161,14.8997l24.5318,0l1.894,-14.8997l-6.566,0l0,-9.0914l26.0115,0zm-43.7721,34.5977l10.6574,52.0501l9.9871,-52.0501l-20.6445,0z" id="path7186"/>
      </g>
     </g>
    </g>
    <path fill="#d40000" id="path8626" d="m8.281374,60.754277c-1.583,-3.47229 -1.7567,-9.4054 2.9711,-10.20801c3.5621,-0.45844 5.0117,1.1983 5.2999,3.74186c0.1422,0.74302 0.5617,0.7885 0.6948,-0.0583c0.2044,-2.60939 2.7872,-4.1326 4.8064,-3.74997c5.5266,0.9454 5.2039,7.02845 3.3985,11.15554c-2.7309,5.47946 -5.6006,8.93761 -8.245,14.45186c-3.0382,-5.74101 -6.5073,-10.4051 -8.9257,-15.33294l0,-0.00004z"/>
    <path fill="#d40000" d="m99.564574,127.158847c7.144,-0.4744 10.8684,5.62741 11.5952,10.43645c0.4334,0.76389 0.6707,0.54864 0.8369,-0.0423c0.3493,-6.17414 5.8749,-11.22017 10.9926,-10.53018c8.328,0.10829 13.3895,9.3754 11.9664,17.21876c-1.7385,9.58159 -6.8997,15.35109 -10.8078,21.29311c-4.4213,6.15238 -10.3727,15.0395 -12.2901,19.31683c0,0 -6.0483,-9.20452 -13.9172,-20.02959c-5.2618,-7.23851 -9.4731,-15.08233 -9.8651,-21.83538c-0.4479,-7.71548 2.7193,-14.63175 11.4891,-15.82765l0,-0.00005z" id="path8512"/>
    <path fill="#d40000" d="m196.661274,251.441447c-1.583,3.47229 -1.7567,9.4054 2.9711,10.20801c3.5621,0.45844 5.0117,-1.1983 5.2999,-3.74186c0.1422,-0.74302 0.5617,-0.7885 0.6948,0.0583c0.2044,2.60939 2.7872,4.1326 4.8064,3.74997c5.5266,-0.9454 5.2039,-7.02845 3.3985,-11.15554c-2.7309,-5.47946 -5.6006,-8.93761 -8.245,-14.45186c-3.0382,5.74101 -6.5073,10.4051 -8.9257,15.33294l0,0.00004z" id="path8648"/>
   </g>
  </g>
 </g>
</svg>