<svg width="224" height="312" xmlns="http://www.w3.org/2000/svg">

 <metadata id="metadata4428">image/svg+xml</metadata>
 <g>
  <title>background</title>
  <rect fill="none" id="canvas_background" height="314" width="226" y="-1" x="-1"/>
 </g>
 <g>
  <title>Layer 1</title>
  <g id="layer1">
   <g display="inline" id="g8900">
    <g id="g8879">
     <rect fill="#ffffff" stroke="#000000" stroke-width="0.996733" stroke-miterlimit="4" ry="10.629921" rx="10.629921" id="rect6347" width="223.22835" height="311.81104" x="0.000001" y="0.000005"/>
    </g>
    <g id="g6564">
     <path fill="#d40000" d="m9.079967,60.231542c-1.583,-3.47229 -1.7567,-9.4054 2.9711,-10.20801c3.5621,-0.45844 5.0117,1.1983 5.2999,3.74186c0.1422,0.74302 0.5617,0.7885 0.6948,-0.0583c0.2044,-2.60939 2.7872,-4.1326 4.8064,-3.74997c5.5266,0.9454 5.2039,7.02845 3.3985,11.15554c-2.7309,5.47946 -5.6006,8.93761 -8.245,14.45186c-3.0382,-5.74101 -6.5073,-10.4051 -8.9257,-15.33294l0,-0.00004z" id="path8628"/>
     <g id="g6555">
      <path fill="#d40000" d="m196.803767,251.503182c-1.583,3.47229 -1.7567,9.4054 2.9711,10.20801c3.5621,0.45844 5.0117,-1.1983 5.2999,-3.74186c0.1422,-0.74302 0.5617,-0.7885 0.6948,0.0583c0.2044,2.60939 2.7872,4.1326 4.8064,3.74997c5.5266,-0.9454 5.2039,-7.02845 3.3985,-11.15554c-2.7309,-5.47946 -5.6006,-8.93761 -8.245,-14.45186c-3.0382,5.74101 -6.5073,10.4051 -8.9257,15.33294l0,0.00004z" id="path8650"/>
      <g id="g6548">
       <g display="inline" transform="matrix(0.30106207,0,0,0.30106207,995.9849,969.13578) " id="g8574">
        <path fill="#d40000" id="path7100" d="m-3281.087194,-3064.148565l0.5475,-6.7053c1.6921,-20.7232 6.2259,-27.7229 31.9598,-49.3427c12.4881,-10.4917 16.588,-15.6693 17.1653,-21.6774c1.6305,-14.1496 -11.1311,-18.5702 -19.4476,-18.6469c-10.7689,-0.099 -22.9509,6.3494 -17.1429,21.3044l-12.079,3.547c-2.4391,-13.9512 0.056,-27.0442 11.3776,-32.8584c15.1008,-7.5722 34.4781,-4.6012 44.2548,7.33c6.5707,8.0186 8.0644,19.0862 4.5432,27.754c-10.299,22.16 -45.2435,31.9083 -48.132,57.5277l38.6337,0l0,-14.2665l11.3788,0l0,26.2639l-63.0592,-0.2298z"/>
        <path fill="#d40000" d="m-2594.822294,-2338.260765l-0.5475,6.7053c-1.6921,20.7232 -6.2259,27.7229 -31.9598,49.3427c-12.4881,10.4917 -16.588,15.6693 -17.1653,21.6774c-1.6305,14.1496 11.1311,18.5702 19.4476,18.6469c10.7689,0.099 22.9509,-6.3494 17.1429,-21.3044l12.079,-3.547c2.4391,13.9512 -0.056,27.0442 -11.3776,32.8584c-15.1008,7.5722 -34.4781,4.6012 -44.2548,-7.33c-6.5707,-8.0186 -8.0644,-19.0862 -4.5432,-27.754c10.299,-22.16 45.2435,-31.9083 48.132,-57.5277l-38.6337,0l0,14.2665l-11.3788,0l0,-26.2639l63.0592,0.2298z" id="path7116"/>
       </g>
       <path fill="#d40000" id="path8514" d="m99.529367,27.965682c7.144,-0.4744 10.8684,5.62741 11.5952,10.43645c0.4334,0.76389 0.6707,0.54864 0.8369,-0.0423c0.3493,-6.17414 5.8749,-11.22017 10.9926,-10.53018c8.328,0.10829 13.3895,9.3754 11.9664,17.21876c-1.7385,9.58159 -6.8997,15.35109 -10.8078,21.29311c-4.4213,6.15238 -10.3727,15.0395 -12.2901,19.31683c0,0 -6.0483,-9.20452 -13.9172,-20.02959c-5.2618,-7.23851 -9.4731,-15.08233 -9.8651,-21.83538c-0.4479,-7.71548 2.7193,-14.63175 11.4891,-15.82765l0,-0.00005z"/>
       <path fill="#d40000" id="path8580" d="m99.529367,284.267032c7.144,0.4744 10.8684,-5.62741 11.5952,-10.43645c0.4334,-0.76389 0.6707,-0.54864 0.8369,0.0423c0.3493,6.17414 5.8749,11.22017 10.9926,10.53018c8.328,-0.10829 13.3895,-9.3754 11.9664,-17.21876c-1.7385,-9.58159 -6.8997,-15.35109 -10.8078,-21.29311c-4.4213,-6.15238 -10.3727,-15.0395 -12.2901,-19.31683c0,0 -6.0483,9.20452 -13.9172,20.02959c-5.2618,7.23851 -9.4731,15.08233 -9.8651,21.83538c-0.4479,7.71548 2.7193,14.63175 11.4891,15.82765l0,0.00005z"/>
      </g>
     </g>
    </g>
   </g>
  </g>
 </g>
</svg>