<svg width="224" height="312" xmlns="http://www.w3.org/2000/svg">

 <metadata id="metadata4428">image/svg+xml</metadata>
 <g>
  <title>background</title>
  <rect fill="none" id="canvas_background" height="314" width="226" y="-1" x="-1"/>
 </g>
 <g>
  <title>Layer 1</title>
  <g id="layer1">
   <g display="inline" id="g8912">
    <g id="g8784">
     <g id="g8890">
      <rect fill="#ffffff" stroke="#000000" stroke-width="0.996733" stroke-miterlimit="4" y="0.000005" x="-0.000015" height="311.81104" width="223.22835" id="rect6351" rx="10.629921" ry="10.629921"/>
      <g transform="matrix(0.30106207,0,0,0.30106207,5635.595,-1948.9541) " id="g8582">
       <path fill="#d40000" id="path7102" d="m-18690.982418,6603.845728l8.4607,-6.1116c7.3538,11.7376 15.5625,19.4745 28.1181,18.1437c18.8453,-1.2674 26.6487,-20.6606 22.7039,-35.2849c-3.8092,-13.103 -19.417,-19.4954 -31.8153,-12.4982c-2.9236,1.65 -6.3052,3.6875 -6.3052,3.6875l-4.4137,-7.1942l29.1094,-33.8631l-31.5895,0l0,14.0158l-12.1218,0l0,-25.1275l61.7456,0l0,8.5286c0,0 -16.5384,16.8366 -22.0128,26.0657c13.4691,0.4898 24.3232,8.8645 28.2078,22.1159c2.2798,6.97 1.255,22.9224 -1.7164,29.7878c-4.9614,11.4634 -18.5478,20.7594 -30.9625,21.2965c-20.8281,1.3757 -31.8931,-12.9608 -37.4083,-23.562z"/>
       <path fill="#d40000" d="m-18005.641418,7379.048128l-8.4607,6.1116c-7.3538,-11.7376 -15.5625,-19.4745 -28.1181,-18.1437c-18.8453,1.2674 -26.6487,20.6606 -22.7039,35.2849c3.8092,13.103 19.417,19.4954 31.8153,12.4982c2.9236,-1.65 6.3052,-3.375 6.3052,-3.375l5.2262,6.7567l-29.9219,33.9881l31.5895,0l0,-14.0158l12.1218,0l0,25.1275l-61.7456,0l0,-8.5286c0,0 16.5384,-16.8366 22.0128,-26.0657c-13.4691,-0.4898 -24.3232,-8.8645 -28.2078,-22.1159c-2.2798,-6.97 -1.255,-22.9224 1.7164,-29.7878c4.9614,-11.4634 18.5478,-20.7594 30.9625,-21.2965c20.8281,-1.3757 31.8931,12.9608 37.4083,23.562z" id="path7118"/>
      </g>
     </g>
    </g>
    <path fill="#d40000" id="path8630" d="m9.742973,60.664437c-1.583,-3.47229 -1.7567,-9.4054 2.9711,-10.20801c3.5621,-0.45844 5.0117,1.1983 5.2999,3.74186c0.1422,0.74302 0.5617,0.7885 0.6948,-0.0583c0.2044,-2.60939 2.7872,-4.1326 4.8064,-3.74997c5.5266,0.9454 5.2039,7.02845 3.3985,11.15554c-2.7309,5.47946 -5.6006,8.93761 -8.245,14.45186c-3.0382,-5.74101 -6.5073,-10.4051 -8.9257,-15.33294l0,-0.00004z"/>
    <path fill="#d40000" d="m99.501173,28.737007c7.144,-0.4744 10.8684,5.62741 11.5952,10.43645c0.4334,0.76389 0.6707,0.54864 0.8369,-0.0423c0.3493,-6.17414 5.8749,-11.22017 10.9926,-10.53018c8.328,0.10829 13.3895,9.3754 11.9664,17.21876c-1.7385,9.58159 -6.8997,15.35109 -10.8078,21.29311c-4.4213,6.15238 -10.3727,15.0395 -12.2901,19.31683c0,0 -6.0483,-9.20452 -13.9172,-20.02959c-5.2618,-7.23851 -9.4731,-15.08233 -9.8651,-21.83538c-0.4479,-7.71548 2.7193,-14.63175 11.4891,-15.82765l0,-0.00005z" id="path8516"/>
    <path fill="#d40000" d="m99.564573,127.158847c7.144,-0.4744 10.8684,5.62741 11.5952,10.43645c0.4334,0.76389 0.6707,0.54864 0.8369,-0.0423c0.3493,-6.17414 5.8749,-11.22017 10.9926,-10.53018c8.328,0.10829 13.3895,9.3754 11.9664,17.21876c-1.7385,9.58159 -6.8997,15.35109 -10.8078,21.29311c-4.4213,6.15238 -10.3727,15.0395 -12.2901,19.31683c0,0 -6.0483,-9.20452 -13.9172,-20.02959c-5.2618,-7.23851 -9.4731,-15.08233 -9.8651,-21.83538c-0.4479,-7.71548 2.7193,-14.63175 11.4891,-15.82765l0,-0.00005z" id="path8518"/>
    <path fill="#d40000" d="m196.729773,251.876407c-1.583,3.47229 -1.7567,9.4054 2.9711,10.20801c3.5621,0.45844 5.0117,-1.1983 5.2999,-3.74186c0.1422,-0.74302 0.5617,-0.7885 0.6948,0.0583c0.2044,2.60939 2.7872,4.1326 4.8064,3.74997c5.5266,-0.9454 5.2039,-7.02845 3.3985,-11.15554c-2.7309,-5.47946 -5.6006,-8.93761 -8.245,-14.45186c-3.0382,5.74101 -6.5073,10.4051 -8.9257,15.33294l0,0.00004z" id="path8652"/>
    <path fill="#d40000" d="m99.501173,283.333347c7.144,0.4744 10.8684,-5.62741 11.5952,-10.43645c0.4334,-0.76389 0.6707,-0.54864 0.8369,0.0423c0.3493,6.17414 5.8749,11.22017 10.9926,10.53018c8.328,-0.10829 13.3895,-9.3754 11.9664,-17.21876c-1.7385,-9.58159 -6.8997,-15.35109 -10.8078,-21.29311c-4.4213,-6.15238 -10.3727,-15.0395 -12.2901,-19.31683c0,0 -6.0483,9.20452 -13.9172,20.02959c-5.2618,7.23851 -9.4731,15.08233 -9.8651,21.83538c-0.4479,7.71548 2.7193,14.63175 11.4891,15.82765l0,0.00005z" id="path8582"/>
   </g>
  </g>
 </g>
</svg>