<svg width="224" height="312" xmlns="http://www.w3.org/2000/svg">

 <metadata id="metadata4428">image/svg+xml</metadata>
 <g>
  <title>background</title>
  <rect fill="none" id="canvas_background" height="314" width="226" y="-1" x="-1"/>
 </g>
 <g>
  <title>Layer 1</title>
  <g id="layer1">
   <g display="inline" id="g8925">
    <g id="g8796">
     <g id="g8902">
      <rect fill="#ffffff" stroke="#000000" stroke-width="0.996733" stroke-miterlimit="4" y="0.000005" x="-0.000012" height="311.81104" width="223.22835" id="rect6353" rx="10.629921" ry="10.629921"/>
      <g transform="matrix(0.30106207,0,0,0.30106207,5623.2929,-1949.6699) " id="g8591">
       <path fill="#d40000" id="path7104" d="m-18618.94198,6630.006728l0,-9.3439l8.5863,0l0,-15.399l-42.9315,0l0,-10.865l46.4525,-70.0793l7.5907,0.026l0,70.0533l13.1319,0l0,10.865l-13.1319,0l-0.2526,15.399l7.1974,0l0,9.3439l-26.6428,0zm8.5863,-80.04l-29.4929,44.4321l29.4929,0l0,-44.4321z"/>
       <path fill="#d40000" d="m-17995.95728,7357.642728l0,9.3439l-8.5863,0l0,15.399l42.9315,0l0,10.865l-46.4525,70.0793l-7.5907,-0.026l0,-70.0533l-13.1319,0l0,-10.865l13.1319,0l0.2526,-15.399l-7.1974,0l0,-9.3439l26.6428,0zm-8.5863,80.04l29.4929,-44.4321l-29.4929,0l0,44.4321z" id="path7159"/>
      </g>
     </g>
    </g>
    <path fill="#d40000" id="path8638" d="m8.756277,60.994797c-1.583,-3.47229 -1.7567,-9.4054 2.9711,-10.20801c3.5621,-0.45844 5.0117,1.1983 5.2999,3.74186c0.1422,0.74302 0.5617,0.7885 0.6948,-0.0583c0.2044,-2.60939 2.7872,-4.1326 4.8064,-3.74997c5.5266,0.9454 5.2039,7.02845 3.3985,11.15554c-2.7309,5.47946 -5.6006,8.93761 -8.245,14.45186c-3.0382,-5.74101 -6.5073,-10.4051 -8.9257,-15.33294l0,-0.00004z"/>
    <path fill="#d40000" d="m44.997477,26.064297c7.144,-0.4744 10.8684,5.62741 11.5952,10.43645c0.4334,0.76389 0.6707,0.54864 0.8369,-0.0423c0.3493,-6.17414 5.8749,-11.22017 10.9926,-10.53018c8.328,0.10829 13.3895,9.3754 11.9664,17.21876c-1.7385,9.58159 -6.8997,15.35109 -10.8078,21.29311c-4.4213,6.15238 -10.3727,15.0395 -12.2901,19.31683c0,0 -6.0483,-9.20452 -13.9172,-20.02959c-5.2618,-7.23851 -9.4731,-15.08233 -9.8651,-21.83538c-0.4479,-7.71548 2.7193,-14.63175 11.4891,-15.82765l0,-0.00005z" id="path8520"/>
    <path fill="#d40000" d="m154.530277,26.064297c7.144,-0.4744 10.8684,5.62741 11.5952,10.43645c0.4334,0.76389 0.6707,0.54864 0.8369,-0.0423c0.3493,-6.17414 5.8749,-11.22017 10.9926,-10.53018c8.328,0.10829 13.3895,9.3754 11.9664,17.21876c-1.7385,9.58159 -6.8997,15.35109 -10.8078,21.29311c-4.4213,6.15238 -10.3727,15.0395 -12.2901,19.31683c0,0 -6.0483,-9.20452 -13.9172,-20.02959c-5.2618,-7.23851 -9.4731,-15.08233 -9.8651,-21.83538c-0.4479,-7.71548 2.7193,-14.63175 11.4891,-15.82765l0,-0.00005z" id="path8522"/>
    <path fill="#d40000" d="m44.997477,282.404667c7.144,0.4744 10.8684,-5.62741 11.5952,-10.43645c0.4334,-0.76389 0.6707,-0.54864 0.8369,0.0423c0.3493,6.17414 5.8749,11.22017 10.9926,10.53018c8.328,-0.10829 13.3895,-9.3754 11.9664,-17.21876c-1.7385,-9.58159 -6.8997,-15.35109 -10.8078,-21.29311c-4.4213,-6.15238 -10.3727,-15.0395 -12.2901,-19.31683c0,0 -6.0483,9.20452 -13.9172,20.02959c-5.2618,7.23851 -9.4731,15.08233 -9.8651,21.83538c-0.4479,7.71548 2.7193,14.63175 11.4891,15.82765l0,0.00005z" id="path8584"/>
    <path fill="#d40000" d="m154.530277,282.404667c7.144,0.4744 10.8684,-5.62741 11.5952,-10.43645c0.4334,-0.76389 0.6707,-0.54864 0.8369,0.0423c0.3493,6.17414 5.8749,11.22017 10.9926,10.53018c8.328,-0.10829 13.3895,-9.3754 11.9664,-17.21876c-1.7385,-9.58159 -6.8997,-15.35109 -10.8078,-21.29311c-4.4213,-6.15238 -10.3727,-15.0395 -12.2901,-19.31683c0,0 -6.0483,9.20452 -13.9172,20.02959c-5.2618,7.23851 -9.4731,15.08233 -9.8651,21.83538c-0.4479,7.71548 2.7193,14.63175 11.4891,15.82765l0,0.00005z" id="path8586"/>
    <path fill="#d40000" d="m195.974877,251.107387c-1.583,3.47229 -1.7567,9.4054 2.9711,10.20801c3.5621,0.45844 5.0117,-1.1983 5.2999,-3.74186c0.1422,-0.74302 0.5617,-0.7885 0.6948,0.0583c0.2044,2.60939 2.7872,4.1326 4.8064,3.74997c5.5266,-0.9454 5.2039,-7.02845 3.3985,-11.15554c-2.7309,-5.47946 -5.6006,-8.93761 -8.245,-14.45186c-3.0382,5.74101 -6.5073,10.4051 -8.9257,15.33294l0,0.00004z" id="path8654"/>
   </g>
  </g>
 </g>
</svg>