<svg width="224" height="312" xmlns="http://www.w3.org/2000/svg">

 <metadata id="metadata4428">image/svg+xml</metadata>
 <g>
  <title>background</title>
  <rect fill="none" id="canvas_background" height="314" width="226" y="-1" x="-1"/>
 </g>
 <g>
  <title>Layer 1</title>
  <g id="layer1">
   <g display="inline" id="g8939">
    <g id="g8809">
     <g id="g8915">
      <rect fill="#ffffff" stroke="#000000" stroke-width="0.996733" stroke-miterlimit="4" y="0.000005" x="0.000012" height="311.81104" width="223.22835" id="rect6355" rx="10.629921" ry="10.629921"/>
      <g transform="matrix(0.30106207,0,0,0.30106207,5562.5812,-1947.8121) " id="g8601">
       <path fill="#d40000" id="path7106" d="m-18449.358578,6594.486728l10.6958,-0.094c2.034,6.4574 6.5502,13.0412 12.6783,14.8589c17.3116,4.0652 28.4573,-5.6046 32.1281,-16.7626c4.4514,-13.5306 -0.1008,-32.5364 -12.0159,-39.2867c-9.8838,-5.5995 -24.5629,-0.877 -31.296,11.0892l-7.4975,-4.5831l4.0237,-44.5815l48.9286,0l0,10.5356l-39.6521,0l-0.6221,18.5714c8.5208,-5.9858 21.6503,-5.9276 30.1777,-1.7268c16.1588,7.7024 23.663,25.2198 20.5183,45.8727c-4.3527,20.5381 -13.942,32.1745 -35.599,33.8468c-24.0636,0.2079 -32.5637,-16.3356 -32.4679,-27.7394l0,-0.0005z"/>
       <path fill="#d40000" d="m-17762.224478,7380.821128l-10.6958,0.094c-2.034,-6.4574 -6.5502,-13.0412 -12.6783,-14.8589c-17.3116,-4.0652 -28.4573,5.6046 -32.1281,16.7626c-4.4514,13.5306 0.1008,32.5364 12.0159,39.2867c9.8838,5.5995 24.5629,0.877 31.296,-11.0892l7.4975,4.5831l-4.0237,44.5816l-48.9286,0l0,-10.5357l39.6521,0l0.6221,-18.5714c-8.5208,5.9858 -21.6503,5.9276 -30.1777,1.7268c-16.1588,-7.7024 -23.663,-25.2198 -20.5183,-45.8727c4.3527,-20.5381 13.942,-32.1745 35.599,-33.8468c24.0636,-0.2079 32.5637,16.3356 32.4679,27.7394l0,0.0005z" id="path7122"/>
      </g>
     </g>
    </g>
    <path fill="#d40000" id="path8640" d="m9.5118,60.597157c-1.583,-3.47229 -1.7567,-9.4054 2.9711,-10.20801c3.5621,-0.45844 5.0117,1.1983 5.2999,3.74186c0.1422,0.74302 0.5617,0.7885 0.6948,-0.0583c0.2044,-2.60939 2.7872,-4.1326 4.8064,-3.74997c5.5266,0.9454 5.2039,7.02845 3.3985,11.15554c-2.7309,5.47946 -5.6006,8.93761 -8.245,14.45186c-3.0382,-5.74101 -6.5073,-10.4051 -8.9257,-15.33294l0,-0.00004z"/>
    <path fill="#d40000" d="m44.0555,27.922097c7.144,-0.4744 10.8684,5.62741 11.5952,10.43645c0.4334,0.76389 0.6707,0.54864 0.8369,-0.0423c0.3493,-6.17414 5.8749,-11.22017 10.9926,-10.53018c8.328,0.10829 13.3895,9.3754 11.9664,17.21876c-1.7385,9.58159 -6.8997,15.35109 -10.8078,21.29311c-4.4213,6.15238 -10.3727,15.0395 -12.2901,19.31683c0,0 -6.0483,-9.20452 -13.9172,-20.02959c-5.2618,-7.23851 -9.4731,-15.08233 -9.8651,-21.83538c-0.4479,-7.71548 2.7193,-14.63175 11.4891,-15.82765l0,-0.00005z" id="path8524"/>
    <path fill="#d40000" d="m154.7368,27.922097c7.144,-0.4744 10.8684,5.62741 11.5952,10.43645c0.4334,0.76389 0.6707,0.54864 0.8369,-0.0423c0.3493,-6.17414 5.8749,-11.22017 10.9926,-10.53018c8.328,0.10829 13.3895,9.3754 11.9664,17.21876c-1.7385,9.58159 -6.8997,15.35109 -10.8078,21.29311c-4.4213,6.15238 -10.3727,15.0395 -12.2901,19.31683c0,0 -6.0483,-9.20452 -13.9172,-20.02959c-5.2618,-7.23851 -9.4731,-15.08233 -9.8651,-21.83538c-0.4479,-7.71548 2.7193,-14.63175 11.4891,-15.82765l0,-0.00005z" id="path8526"/>
    <path fill="#d40000" d="m99.5646,127.158847c7.144,-0.4744 10.8684,5.62741 11.5952,10.43645c0.4334,0.76389 0.6707,0.54864 0.8369,-0.0423c0.3493,-6.17414 5.8749,-11.22017 10.9926,-10.53018c8.328,0.10829 13.3895,9.3754 11.9664,17.21876c-1.7385,9.58159 -6.8997,15.35109 -10.8078,21.29311c-4.4213,6.15238 -10.3727,15.0395 -12.2901,19.31683c0,0 -6.0483,-9.20452 -13.9172,-20.02959c-5.2618,-7.23851 -9.4731,-15.08233 -9.8651,-21.83538c-0.4479,-7.71548 2.7193,-14.63175 11.4891,-15.82765l0,-0.00005z" id="path8528"/>
    <path fill="#d40000" d="m44.0555,282.066877c7.144,0.4744 10.8684,-5.62741 11.5952,-10.43645c0.4334,-0.76389 0.6707,-0.54864 0.8369,0.0423c0.3493,6.17414 5.8749,11.22017 10.9926,10.53018c8.328,-0.10829 13.3895,-9.3754 11.9664,-17.21876c-1.7385,-9.58159 -6.8997,-15.35109 -10.8078,-21.29311c-4.4213,-6.15238 -10.3727,-15.0395 -12.2901,-19.31683c0,0 -6.0483,9.20452 -13.9172,20.02959c-5.2618,7.23851 -9.4731,15.08233 -9.8651,21.83538c-0.4479,7.71548 2.7193,14.63175 11.4891,15.82765l0,0.00005z" id="path8588"/>
    <path fill="#d40000" d="m154.7368,282.066877c7.144,0.4744 10.8684,-5.62741 11.5952,-10.43645c0.4334,-0.76389 0.6707,-0.54864 0.8369,0.0423c0.3493,6.17414 5.8749,11.22017 10.9926,10.53018c8.328,-0.10829 13.3895,-9.3754 11.9664,-17.21876c-1.7385,-9.58159 -6.8997,-15.35109 -10.8078,-21.29311c-4.4213,-6.15238 -10.3727,-15.0395 -12.2901,-19.31683c0,0 -6.0483,9.20452 -13.9172,20.02959c-5.2618,7.23851 -9.4731,15.08233 -9.8651,21.83538c-0.4479,7.71548 2.7193,14.63175 11.4891,15.82765l0,0.00005z" id="path8590"/>
    <path fill="#d40000" d="m196.2195,251.454847c-1.583,3.47229 -1.7567,9.4054 2.9711,10.20801c3.5621,0.45844 5.0117,-1.1983 5.2999,-3.74186c0.1422,-0.74302 0.5617,-0.7885 0.6948,0.0583c0.2044,2.60939 2.7872,4.1326 4.8064,3.74997c5.5266,-0.9454 5.2039,-7.02845 3.3985,-11.15554c-2.7309,-5.47946 -5.6006,-8.93761 -8.245,-14.45186c-3.0382,5.74101 -6.5073,10.4051 -8.9257,15.33294l0,0.00004z" id="path8656"/>
   </g>
  </g>
 </g>
</svg>