<svg width="224" height="312" xmlns="http://www.w3.org/2000/svg">

 <metadata id="metadata4428">image/svg+xml</metadata>
 <g>
  <title>background</title>
  <rect fill="none" id="canvas_background" height="314" width="226" y="-1" x="-1"/>
 </g>
 <g>
  <title>Layer 1</title>
  <g id="layer1">
   <g display="inline" id="g8954">
    <g id="g8823">
     <g id="g8929">
      <rect fill="#ffffff" stroke="#000000" stroke-width="0.996733" stroke-miterlimit="4" y="0.000005" x="-0.000004" height="311.81104" width="223.22835" id="rect6357" rx="10.629921" ry="10.629921"/>
      <g transform="matrix(0.30106207,0,0,0.30106207,6829.277,-2295.2794) " id="g8673">
       <path fill="#d40000" id="path7108" d="m-22656.581193,7743.518828c-1.3564,-9.1251 -1.3347,-32.7019 -0.2195,-39.6679c3.4183,-21.3528 11.7323,-31.1191 25.6513,-34.3202c13.5143,-3.1079 32.5146,0.3517 36.6838,18.2089l-11.3149,0.209c-6.111,-12.0683 -21.5747,-8.8426 -30.2785,-3.5944c-6.9526,4.1923 -10.0928,21.6555 -8.7492,22.7304c-0.01,0 13.1436,-9.5567 23.5026,-8.8518c22.1491,2.2646 31.2808,21.1115 30.5093,38.9247c-0.6999,21.4228 -7.6228,38.5383 -31.0937,39.6808c-22.3148,-0.842 -32.5505,-12.7884 -34.6912,-33.3195zm55.0399,-5.6632c0.1233,-14.8653 -6.7551,-25.9841 -19.7618,-27.2118c-13.0066,-1.2276 -26.1193,11.2329 -25.2114,26.3816c0.9112,15.2016 6.9042,28.0069 22.6742,27.9359c16.9602,-0.076 22.2113,-16.5294 22.299,-27.1057z"/>
       <path fill="#d40000" d="m-21969.850293,8540.065898c1.3564,9.1251 1.3347,32.7019 0.2195,39.6679c-3.4183,21.3528 -11.7323,31.1191 -25.6513,34.3202c-13.5143,3.1079 -32.5146,-0.3517 -36.6838,-18.2089l11.3149,-0.209c6.111,12.0683 21.5747,8.8426 30.2785,3.5944c6.9526,-4.1923 10.0928,-21.6555 8.7492,-22.7304c0.01,0 -13.1436,9.5567 -23.5026,8.8518c-22.1491,-2.2646 -31.2808,-21.1115 -30.5093,-38.9247c0.6999,-21.4228 7.6228,-38.5383 31.0937,-39.6808c22.3148,0.842 32.5505,12.7884 34.6912,33.3195zm-55.0399,5.6632c-0.1233,14.8653 6.7551,25.9841 19.7618,27.2118c13.0066,1.2276 26.1193,-11.2329 25.2114,-26.3816c-0.9112,-15.2016 -6.9042,-28.0069 -22.6742,-27.9359c-16.9602,0.076 -22.2113,16.5294 -22.299,27.1057z" id="path7161"/>
      </g>
     </g>
    </g>
    <path fill="#d40000" id="path8642" d="m8.650484,59.373907c-1.583,-3.47229 -1.7567,-9.4054 2.9711,-10.20801c3.5621,-0.45844 5.0117,1.1983 5.2999,3.74186c0.1422,0.74302 0.5617,0.7885 0.6948,-0.0583c0.2044,-2.60939 2.7872,-4.1326 4.8064,-3.74997c5.5266,0.9454 5.2039,7.02845 3.3985,11.15554c-2.7309,5.47946 -5.6006,8.93761 -8.245,14.45186c-3.0382,-5.74101 -6.5073,-10.4051 -8.9257,-15.33294l0,-0.00004z"/>
    <path fill="#d40000" d="m43.938484,28.362907c7.144,-0.4744 10.8684,5.62741 11.5952,10.43645c0.4334,0.76389 0.6707,0.54864 0.8369,-0.0423c0.3493,-6.17414 5.8749,-11.22017 10.9926,-10.53018c8.328,0.10829 13.3895,9.3754 11.9664,17.21876c-1.7385,9.58159 -6.8997,15.35109 -10.8078,21.29311c-4.4213,6.15238 -10.3727,15.0395 -12.2901,19.31683c0,0 -6.0483,-9.20452 -13.9172,-20.02959c-5.2618,-7.23851 -9.4731,-15.08233 -9.8651,-21.83538c-0.4479,-7.71548 2.7193,-14.63175 11.4891,-15.82765l0,-0.00005z" id="path8530"/>
    <path fill="#d40000" d="m155.471284,28.362907c7.144,-0.4744 10.8684,5.62741 11.5952,10.43645c0.4334,0.76389 0.6707,0.54864 0.8369,-0.0423c0.3493,-6.17414 5.8749,-11.22017 10.9926,-10.53018c8.328,0.10829 13.3895,9.3754 11.9664,17.21876c-1.7385,9.58159 -6.8997,15.35109 -10.8078,21.29311c-4.4213,6.15238 -10.3727,15.0395 -12.2901,19.31683c0,0 -6.0483,-9.20452 -13.9172,-20.02959c-5.2618,-7.23851 -9.4731,-15.08233 -9.8651,-21.83538c-0.4479,-7.71548 2.7193,-14.63175 11.4891,-15.82765l0,-0.00005z" id="path8532"/>
    <path fill="#d40000" d="m155.471284,127.256557c7.144,-0.4744 10.8684,5.62741 11.5952,10.43645c0.4334,0.76389 0.6707,0.54864 0.8369,-0.0423c0.3493,-6.17414 5.8749,-11.22017 10.9926,-10.53018c8.328,0.10829 13.3895,9.3754 11.9664,17.21876c-1.7385,9.58159 -6.8997,15.35109 -10.8078,21.29311c-4.4213,6.15238 -10.3727,15.0395 -12.2901,19.31683c0,0 -6.0483,-9.20452 -13.9172,-20.02959c-5.2618,-7.23851 -9.4731,-15.08233 -9.8651,-21.83538c-0.4479,-7.71548 2.7193,-14.63175 11.4891,-15.82765l0,-0.00005z" id="path8534"/>
    <path fill="#d40000" d="m43.938484,127.256557c7.144,-0.4744 10.8684,5.62741 11.5952,10.43645c0.4334,0.76389 0.6707,0.54864 0.8369,-0.0423c0.3493,-6.17414 5.8749,-11.22017 10.9926,-10.53018c8.328,0.10829 13.3895,9.3754 11.9664,17.21876c-1.7385,9.58159 -6.8997,15.35109 -10.8078,21.29311c-4.4213,6.15238 -10.3727,15.0395 -12.2901,19.31683c0,0 -6.0483,-9.20452 -13.9172,-20.02959c-5.2618,-7.23851 -9.4731,-15.08233 -9.8651,-21.83538c-0.4479,-7.71548 2.7193,-14.63175 11.4891,-15.82765l0,-0.00005z" id="path8536"/>
    <path fill="#d40000" d="m43.938484,283.348507c7.144,0.4744 10.8684,-5.62741 11.5952,-10.43645c0.4334,-0.76389 0.6707,-0.54864 0.8369,0.0423c0.3493,6.17414 5.8749,11.22017 10.9926,10.53018c8.328,-0.10829 13.3895,-9.3754 11.9664,-17.21876c-1.7385,-9.58159 -6.8997,-15.35109 -10.8078,-21.29311c-4.4213,-6.15238 -10.3727,-15.0395 -12.2901,-19.31683c0,0 -6.0483,9.20452 -13.9172,20.02959c-5.2618,7.23851 -9.4731,15.08233 -9.8651,21.83538c-0.4479,7.71548 2.7193,14.63175 11.4891,15.82765l0,0.00005z" id="path8592"/>
    <path fill="#d40000" d="m155.471284,283.348507c7.144,0.4744 10.8684,-5.62741 11.5952,-10.43645c0.4334,-0.76389 0.6707,-0.54864 0.8369,0.0423c0.3493,6.17414 5.8749,11.22017 10.9926,10.53018c8.328,-0.10829 13.3895,-9.3754 11.9664,-17.21876c-1.7385,-9.58159 -6.8997,-15.35109 -10.8078,-21.29311c-4.4213,-6.15238 -10.3727,-15.0395 -12.2901,-19.31683c0,0 -6.0483,9.20452 -13.9172,20.02959c-5.2618,7.23851 -9.4731,15.08233 -9.8651,21.83538c-0.4479,7.71548 2.7193,14.63175 11.4891,15.82765l0,0.00005z" id="path8594"/>
    <path fill="#d40000" d="m197.465684,250.231587c-1.583,3.47229 -1.7567,9.4054 2.9711,10.20801c3.5621,0.45844 5.0117,-1.1983 5.2999,-3.74186c0.1422,-0.74302 0.5617,-0.7885 0.6948,0.0583c0.2044,2.60939 2.7872,4.1326 4.8064,3.74997c5.5266,-0.9454 5.2039,-7.02845 3.3985,-11.15554c-2.7309,-5.47946 -5.6006,-8.93761 -8.245,-14.45186c-3.0382,5.74101 -6.5073,10.4051 -8.9257,15.33294l0,0.00004z" id="path8658"/>
   </g>
  </g>
 </g>
</svg>