<svg width="224" height="312" xmlns="http://www.w3.org/2000/svg">

 <metadata id="metadata4428">image/svg+xml</metadata>
 <g>
  <title>background</title>
  <rect fill="none" id="canvas_background" height="314" width="226" y="-1" x="-1"/>
 </g>
 <g>
  <title>Layer 1</title>
  <g id="layer1">
   <g display="inline" id="g9031">
    <g id="g8838">
     <g id="g8853">
      <rect fill="#ffffff" stroke="#000000" stroke-width="0.99" stroke-miterlimit="3.8" y="-0.000008" x="-0.000014" height="311.81104" width="223.22835" id="rect6359" rx="10.629921" ry="10.629921"/>
      <g transform="matrix(0.30106207,0,0,0.30106207,5449.5822,-1980.8821) " id="g8660">
       <path fill="#d40000" id="path7110" d="m-18060.195716,6734.134528c7.0822,-36.8355 14.6449,-64.4729 34.4785,-94.4913l-40.3064,0l0,12.9215l-10.7143,0l0,-24.3501l58.9719,0l7.2692,11.4286c-21.0637,22.5765 -40.3507,95.5559 -36.9337,94.4913l-12.7652,0z"/>
       <path fill="#d40000" d="m-17400.718116,7460.862338c-7.0822,36.8355 -14.6449,64.4729 -34.4785,94.4913l40.3064,0l0,-12.9215l10.7143,0l0,24.3501l-58.9719,0l-7.2692,-11.4286c21.0637,-22.5765 40.3507,-95.5559 36.9337,-94.4913l12.7652,0z" id="path7126"/>
      </g>
     </g>
    </g>
    <path fill="#d40000" id="path8632" d="m8.828074,61.960195c-1.583,-3.47229 -1.7567,-9.4054 2.9711,-10.20801c3.5621,-0.45844 5.0117,1.1983 5.2999,3.74186c0.1422,0.74302 0.5617,0.7885 0.6948,-0.0583c0.2044,-2.60939 2.7872,-4.1326 4.8064,-3.74997c5.5266,0.9454 5.2039,7.02845 3.3985,11.15554c-2.7309,5.47946 -5.6006,8.93761 -8.245,14.45186c-3.0382,-5.74101 -6.5073,-10.4051 -8.9257,-15.33294l0,-0.00004z"/>
    <path fill="#d40000" d="m43.187174,29.807295c7.144,-0.4744 10.8684,5.62741 11.5952,10.43645c0.4334,0.76389 0.6707,0.54864 0.8369,-0.0423c0.3493,-6.17414 5.8749,-11.22017 10.9926,-10.53018c8.328,0.10829 13.3895,9.3754 11.9664,17.21876c-1.7385,9.58159 -6.8997,15.35109 -10.8078,21.29311c-4.4213,6.15238 -10.3727,15.0395 -12.2901,19.31683c0,0 -6.0483,-9.20452 -13.9172,-20.02959c-5.2618,-7.23851 -9.4731,-15.08233 -9.8651,-21.83538c-0.4479,-7.71548 2.7193,-14.63175 11.4891,-15.82765l0,-0.00005z" id="path8538"/>
    <path fill="#d40000" d="m154.719974,29.807295c7.144,-0.4744 10.8684,5.62741 11.5952,10.43645c0.4334,0.76389 0.6707,0.54864 0.8369,-0.0423c0.3493,-6.17414 5.8749,-11.22017 10.9926,-10.53018c8.328,0.10829 13.3895,9.3754 11.9664,17.21876c-1.7385,9.58159 -6.8997,15.35109 -10.8078,21.29311c-4.4213,6.15238 -10.3727,15.0395 -12.2901,19.31683c0,0 -6.0483,-9.20452 -13.9172,-20.02959c-5.2618,-7.23851 -9.4731,-15.08233 -9.8651,-21.83538c-0.4479,-7.71548 2.7193,-14.63175 11.4891,-15.82765l0,-0.00005z" id="path8540"/>
    <path fill="#d40000" d="m99.621074,79.931515c7.144,-0.4744 10.8684,5.62741 11.5952,10.43645c0.4334,0.76389 0.6707,0.54864 0.8369,-0.0423c0.3493,-6.17414 5.8749,-11.22017 10.9926,-10.53018c8.328,0.10829 13.3895,9.3754 11.9664,17.21876c-1.7385,9.58159 -6.8997,15.35109 -10.8078,21.29311c-4.4213,6.15238 -10.3727,15.0395 -12.2901,19.31683c0,0 -6.0483,-9.20452 -13.9172,-20.02959c-5.2618,-7.23851 -9.4731,-15.08233 -9.8651,-21.83538c-0.4479,-7.71548 2.7193,-14.63175 11.4891,-15.82765l0,-0.00005z" id="path8542"/>
    <path fill="#d40000" d="m43.187174,130.055735c7.144,-0.4744 10.8684,5.62741 11.5952,10.43645c0.4334,0.76389 0.6707,0.54864 0.8369,-0.0423c0.3493,-6.17414 5.8749,-11.22017 10.9926,-10.53018c8.328,0.10829 13.3895,9.3754 11.9664,17.21876c-1.7385,9.58159 -6.8997,15.35109 -10.8078,21.29311c-4.4213,6.15238 -10.3727,15.0395 -12.2901,19.31683c0,0 -6.0483,-9.20452 -13.9172,-20.02959c-5.2618,-7.23851 -9.4731,-15.08233 -9.8651,-21.83538c-0.4479,-7.71548 2.7193,-14.63175 11.4891,-15.82765l0,-0.00005z" id="path8544"/>
    <path fill="#d40000" d="m154.719974,130.055735c7.144,-0.4744 10.8684,5.62741 11.5952,10.43645c0.4334,0.76389 0.6707,0.54864 0.8369,-0.0423c0.3493,-6.17414 5.8749,-11.22017 10.9926,-10.53018c8.328,0.10829 13.3895,9.3754 11.9664,17.21876c-1.7385,9.58159 -6.8997,15.35109 -10.8078,21.29311c-4.4213,6.15238 -10.3727,15.0395 -12.2901,19.31683c0,0 -6.0483,-9.20452 -13.9172,-20.02959c-5.2618,-7.23851 -9.4731,-15.08233 -9.8651,-21.83538c-0.4479,-7.71548 2.7193,-14.63175 11.4891,-15.82765l0,-0.00005z" id="path8546"/>
    <path fill="#d40000" d="m197.643274,252.817875c-1.583,3.47229 -1.7567,9.4054 2.9711,10.20801c3.5621,0.45844 5.0117,-1.1983 5.2999,-3.74186c0.1422,-0.74302 0.5617,-0.7885 0.6948,0.0583c0.2044,2.60939 2.7872,4.1326 4.8064,3.74997c5.5266,-0.9454 5.2039,-7.02845 3.3985,-11.15554c-2.7309,-5.47946 -5.6006,-8.93761 -8.245,-14.45186c-3.0382,5.74101 -6.5073,10.4051 -8.9257,15.33294l0,0.00004z" id="path8666"/>
    <path fill="#d40000" d="m154.719974,286.147695c7.144,0.4744 10.8684,-5.62741 11.5952,-10.43645c0.4334,-0.76389 0.6707,-0.54864 0.8369,0.0423c0.3493,6.17414 5.8749,11.22017 10.9926,10.53018c8.328,-0.10829 13.3895,-9.3754 11.9664,-17.21876c-1.7385,-9.58159 -6.8997,-15.35109 -10.8078,-21.29311c-4.4213,-6.15238 -10.3727,-15.0395 -12.2901,-19.31683c0,0 -6.0483,9.20452 -13.9172,20.02959c-5.2618,7.23851 -9.4731,15.08233 -9.8651,21.83538c-0.4479,7.71548 2.7193,14.63175 11.4891,15.82765l0,0.00005z" id="path8620"/>
    <path fill="#d40000" d="m43.187174,286.147695c7.144,0.4744 10.8684,-5.62741 11.5952,-10.43645c0.4334,-0.76389 0.6707,-0.54864 0.8369,0.0423c0.3493,6.17414 5.8749,11.22017 10.9926,10.53018c8.328,-0.10829 13.3895,-9.3754 11.9664,-17.21876c-1.7385,-9.58159 -6.8997,-15.35109 -10.8078,-21.29311c-4.4213,-6.15238 -10.3727,-15.0395 -12.2901,-19.31683c0,0 -6.0483,9.20452 -13.9172,20.02959c-5.2618,7.23851 -9.4731,15.08233 -9.8651,21.83538c-0.4479,7.71548 2.7193,14.63175 11.4891,15.82765l0,0.00005z" id="path8622"/>
   </g>
  </g>
 </g>
</svg>