<svg width="224" height="312" xmlns="http://www.w3.org/2000/svg">

 <metadata id="metadata4428">image/svg+xml</metadata>
 <g>
  <title>background</title>
  <rect fill="none" id="canvas_background" height="314" width="226" y="-1" x="-1"/>
 </g>
 <g>
  <title>Layer 1</title>
  <g id="layer1">
   <g display="inline" id="g9013">
    <g id="g8854">
     <g id="g8836">
      <rect fill="#ffffff" stroke="#000000" stroke-width="0.996733" stroke-miterlimit="4" y="-0.000008" x="0.000001" height="311.81104" width="223.22835" id="rect6361" rx="10.629921" ry="10.629921"/>
      <g transform="matrix(0.30106207,0,0,0.30106207,5370.0941,-1979.9322) " id="g8646">
       <path fill="#d40000" id="path7112" d="m-17814.433764,6701.218028c0.5319,-14.5332 5.8816,-19.9909 16.4206,-27.6004c-8.4057,-5.9629 -11.9499,-14.7364 -11.2342,-22.2121c1.7322,-18.0922 15.9763,-27.144 31.5053,-26.7498c15.5289,0.3942 28.9128,12.5011 29.9566,25.6486c0.9079,11.437 -2.5591,16.948 -10.8197,22.9693c9.8084,8.1096 16.0776,13.4522 15.8397,27.7687c-0.2379,14.3165 -12.641,31.3553 -34.2605,31.8784c-21.6196,0.5231 -37.9396,-17.1694 -37.4078,-31.7027zm60.3616,0.048c0.9274,-13.1605 -10.9222,-22.0398 -24.2916,-22.1778c-13.028,-0.1345 -24.6832,10.7839 -24.6854,22.5994c0,12.6917 15.1583,19.586 24.9483,19.6226c11.8988,0.044 23.2299,-8.7095 24.0287,-20.0442zm-4.2782,-47.0779c0.2587,-11.0861 -10.1536,-19.0311 -20.888,-18.7114c-9.5508,0.2844 -19.6672,7.4427 -19.6723,16.7104c-0.01,11.5921 11.4996,17.3796 21.3142,17.598c8.9033,0.1981 19.0506,-7.2235 19.2461,-15.597z"/>
       <path fill="#d40000" d="m-17118.428364,7487.468718c-0.5319,14.5332 -5.8816,19.9909 -16.4206,27.6004c8.4057,5.9629 11.9499,14.7364 11.2342,22.2121c-1.7322,18.0922 -15.9763,27.144 -31.5053,26.7498c-15.5289,-0.3942 -28.9128,-12.5011 -29.9566,-25.6486c-0.9079,-11.437 2.5591,-16.948 10.8197,-22.9693c-9.8084,-8.1096 -16.0776,-13.4522 -15.8397,-27.7687c0.2379,-14.3165 12.641,-31.3553 34.2605,-31.8784c21.6196,-0.5231 37.9396,17.1694 37.4078,31.7027zm-60.3616,-0.048c-0.9274,13.1605 10.9222,22.0398 24.2916,22.1778c13.028,0.1345 24.6832,-10.7839 24.6854,-22.5994c0,-12.6917 -15.1583,-19.586 -24.9483,-19.6226c-11.8988,-0.044 -23.2299,8.7095 -24.0287,20.0442zm4.2782,47.0779c-0.2587,11.0861 10.1536,19.0311 20.888,18.7114c9.5508,-0.2844 19.6672,-7.4427 19.6723,-16.7104c0.01,-11.5921 -11.4996,-17.3796 -21.3142,-17.598c-8.9033,-0.1981 -19.0506,7.2235 -19.2461,15.597z" id="path7128"/>
      </g>
     </g>
    </g>
    <path fill="#d40000" id="path8634" d="m9.582089,62.910095c-1.583,-3.47229 -1.7567,-9.4054 2.9711,-10.20801c3.5621,-0.45844 5.0117,1.1983 5.2999,3.74186c0.1422,0.74302 0.5617,0.7885 0.6948,-0.0583c0.2044,-2.60939 2.7872,-4.1326 4.8064,-3.74997c5.5266,0.9454 5.2039,7.02845 3.3985,11.15554c-2.7309,5.47946 -5.6006,8.93761 -8.245,14.45186c-3.0382,-5.74101 -6.5073,-10.4051 -8.9257,-15.33294l0,-0.00004z"/>
    <path fill="#d40000" d="m44.560489,27.637025c7.144,-0.4744 10.8684,5.62741 11.5952,10.43645c0.4334,0.76389 0.6707,0.54864 0.8369,-0.0423c0.3493,-6.17414 5.8749,-11.22017 10.9926,-10.53018c8.328,0.10829 13.3895,9.3754 11.9664,17.21876c-1.7385,9.58159 -6.8997,15.35109 -10.8078,21.29311c-4.4213,6.15238 -10.3727,15.0395 -12.2901,19.31683c0,0 -6.0483,-9.20452 -13.9172,-20.02959c-5.2618,-7.23851 -9.4731,-15.08233 -9.8651,-21.83538c-0.4479,-7.71548 2.7193,-14.63175 11.4891,-15.82765l0,-0.00005z" id="path8548"/>
    <path fill="#d40000" d="m154.093289,27.637025c7.144,-0.4744 10.8684,5.62741 11.5952,10.43645c0.4334,0.76389 0.6707,0.54864 0.8369,-0.0423c0.3493,-6.17414 5.8749,-11.22017 10.9926,-10.53018c8.328,0.10829 13.3895,9.3754 11.9664,17.21876c-1.7385,9.58159 -6.8997,15.35109 -10.8078,21.29311c-4.4213,6.15238 -10.3727,15.0395 -12.2901,19.31683c0,0 -6.0483,-9.20452 -13.9172,-20.02959c-5.2618,-7.23851 -9.4731,-15.08233 -9.8651,-21.83538c-0.4479,-7.71548 2.7193,-14.63175 11.4891,-15.82765l0,-0.00005z" id="path8550"/>
    <path fill="#d40000" d="m98.743689,77.761245c7.144,-0.4744 10.8684,5.62741 11.5952,10.43645c0.4334,0.76389 0.6707,0.54864 0.8369,-0.0423c0.3493,-6.17414 5.8749,-11.22017 10.9926,-10.53018c8.328,0.10829 13.3895,9.3754 11.9664,17.21876c-1.7385,9.58159 -6.8997,15.35109 -10.8078,21.29311c-4.4213,6.15238 -10.3727,15.0395 -12.2901,19.31683c0,0 -6.0483,-9.20452 -13.9172,-20.02959c-5.2618,-7.23851 -9.4731,-15.08233 -9.8651,-21.83538c-0.4479,-7.71548 2.7193,-14.63175 11.4891,-15.82765l0,-0.00005z" id="path8552"/>
    <path fill="#d40000" d="m44.560489,127.885445c7.144,-0.4744 10.8684,5.62741 11.5952,10.43645c0.4334,0.76389 0.6707,0.54864 0.8369,-0.0423c0.3493,-6.17414 5.8749,-11.22017 10.9926,-10.53018c8.328,0.10829 13.3895,9.3754 11.9664,17.21876c-1.7385,9.58159 -6.8997,15.35109 -10.8078,21.29311c-4.4213,6.15238 -10.3727,15.0395 -12.2901,19.31683c0,0 -6.0483,-9.20452 -13.9172,-20.02959c-5.2618,-7.23851 -9.4731,-15.08233 -9.8651,-21.83538c-0.4479,-7.71548 2.7193,-14.63175 11.4891,-15.82765l0,-0.00005z" id="path8554"/>
    <path fill="#d40000" d="m154.093289,127.885445c7.144,-0.4744 10.8684,5.62741 11.5952,10.43645c0.4334,0.76389 0.6707,0.54864 0.8369,-0.0423c0.3493,-6.17414 5.8749,-11.22017 10.9926,-10.53018c8.328,0.10829 13.3895,9.3754 11.9664,17.21876c-1.7385,9.58159 -6.8997,15.35109 -10.8078,21.29311c-4.4213,6.15238 -10.3727,15.0395 -12.2901,19.31683c0,0 -6.0483,-9.20452 -13.9172,-20.02959c-5.2618,-7.23851 -9.4731,-15.08233 -9.8651,-21.83538c-0.4479,-7.71548 2.7193,-14.63175 11.4891,-15.82765l0,-0.00005z" id="path8556"/>
    <path fill="#d40000" d="m154.093289,283.977385c7.144,0.4744 10.8684,-5.62741 11.5952,-10.43645c0.4334,-0.76389 0.6707,-0.54864 0.8369,0.0423c0.3493,6.17414 5.8749,11.22017 10.9926,10.53018c8.328,-0.10829 13.3895,-9.3754 11.9664,-17.21876c-1.7385,-9.58159 -6.8997,-15.35109 -10.8078,-21.29311c-4.4213,-6.15238 -10.3727,-15.0395 -12.2901,-19.31683c0,0 -6.0483,9.20452 -13.9172,20.02959c-5.2618,7.23851 -9.4731,15.08233 -9.8651,21.83538c-0.4479,7.71548 2.7193,14.63175 11.4891,15.82765l0,0.00005z" id="path8614"/>
    <path fill="#d40000" d="m98.743689,234.678095c7.144,0.4744 10.8684,-5.62741 11.5952,-10.43645c0.4334,-0.76389 0.6707,-0.54864 0.8369,0.0423c0.3493,6.17414 5.8749,11.22017 10.9926,10.53018c8.328,-0.10829 13.3895,-9.3754 11.9664,-17.21876c-1.7385,-9.58159 -6.8997,-15.35109 -10.8078,-21.29311c-4.4213,-6.15238 -10.3727,-15.0395 -12.2901,-19.31683c0,0 -6.0483,9.20452 -13.9172,20.02959c-5.2618,7.23851 -9.4731,15.08233 -9.8651,21.83538c-0.4479,7.71548 2.7193,14.63175 11.4891,15.82765l0,0.00005z" id="path8616"/>
    <path fill="#d40000" d="m44.560489,283.977385c7.144,0.4744 10.8684,-5.62741 11.5952,-10.43645c0.4334,-0.76389 0.6707,-0.54864 0.8369,0.0423c0.3493,6.17414 5.8749,11.22017 10.9926,10.53018c8.328,-0.10829 13.3895,-9.3754 11.9664,-17.21876c-1.7385,-9.58159 -6.8997,-15.35109 -10.8078,-21.29311c-4.4213,-6.15238 -10.3727,-15.0395 -12.2901,-19.31683c0,0 -6.0483,9.20452 -13.9172,20.02959c-5.2618,7.23851 -9.4731,15.08233 -9.8651,21.83538c-0.4479,7.71548 2.7193,14.63175 11.4891,15.82765l0,0.00005z" id="path8618"/>
    <path fill="#d40000" d="m198.397289,253.767775c-1.583,3.47229 -1.7567,9.4054 2.9711,10.20801c3.5621,0.45844 5.0117,-1.1983 5.2999,-3.74186c0.1422,-0.74302 0.5617,-0.7885 0.6948,0.0583c0.2044,2.60939 2.7872,4.1326 4.8064,3.74997c5.5266,-0.9454 5.2039,-7.02845 3.3985,-11.15554c-2.7309,-5.47946 -5.6006,-8.93761 -8.245,-14.45186c-3.0382,5.74101 -6.5073,10.4051 -8.9257,15.33294l0,0.00004z" id="path8664"/>
   </g>
  </g>
 </g>
</svg>