<svg width="224" height="312" xmlns="http://www.w3.org/2000/svg">

 <metadata id="metadata4428">image/svg+xml</metadata>
 <g>
  <title>background</title>
  <rect fill="none" id="canvas_background" height="314" width="226" y="-1" x="-1"/>
 </g>
 <g>
  <title>Layer 1</title>
  <g id="layer1">
   <g display="inline" id="g8993">
    <g id="g8871">
     <g id="g8817">
      <rect fill="#ffffff" stroke="#000000" stroke-width="0.996733" stroke-miterlimit="4" y="-0.000008" x="-0.000015" height="311.81104" width="223.22835" id="rect6363" rx="10.629921" ry="10.629921"/>
      <g transform="matrix(0.30106207,0,0,0.30106207,5727.1309,-1950.5247) " id="g8631">
       <g id="g8685">
        <path fill="#d40000" d="m-18995.60167,6609.518339l10.0533,-3.1289c3.7922,9.9493 11.4591,12.8837 19.5692,12.2531c14.5555,-1.1319 19.3863,-17.1012 20.478,-31.2209c-5.6714,5.8929 -14.1968,8.8873 -21.456,8.5952c-23.1923,-1.2267 -29.1284,-19.4462 -29.3445,-38.5346c-0.6442,-16.0974 6.137,-27.754 17.7651,-33.0942c6.1521,-2.7117 20.2437,-2.7121 26.4377,0.4937c14.2233,7.3614 19.4871,20.0913 18.5323,50.458c0.015,24.9907 -5.396,54.0994 -32.6758,54.7229c-15.7699,2.1396 -27.7434,-9.8975 -29.3593,-20.5443zm39.4845,-27.3822c4.7326,-2.9414 7.4036,-5.7004 9.5251,-9.8386c1.7414,-3.3968 2.3306,-5.159 1.8343,-12.1919c-1.2788,-18.1202 -10.9588,-28.3918 -24.9935,-26.3512c-7.8275,1.1381 -12.101,5.442 -14.5574,13.4454c-4.5359,14.7783 1.214,32.0775 11.9863,36.0621c4.8586,1.7971 12.3384,1.2775 16.2052,-1.1258z" id="path7114"/>
        <path fill="#d40000" id="path7130" d="m-18311.23817,7383.809609l-10.0533,3.1289c-3.7922,-9.9493 -11.4591,-12.8837 -19.5692,-12.2531c-14.5555,1.1319 -19.3863,17.1012 -20.478,31.221c5.6714,-5.893 14.1968,-8.8874 21.456,-8.5953c23.1923,1.2267 29.1284,19.4463 29.3445,38.5347c0.6442,16.0974 -6.137,27.754 -17.7651,33.0942c-6.1521,2.7117 -20.2437,2.7121 -26.4377,-0.4937c-14.2233,-7.3614 -19.4871,-20.0913 -18.5323,-50.458c-0.015,-24.9908 5.396,-54.0995 32.6758,-54.723c15.7699,-2.1396 27.7434,9.8975 29.3593,20.5443zm-39.4845,27.3823c-4.7326,2.9414 -7.4036,5.7004 -9.5251,9.8386c-1.7414,3.3968 -2.3306,5.159 -1.8343,12.1919c1.2788,18.1202 10.9588,28.3918 24.9935,26.3512c7.8275,-1.1381 12.101,-5.442 14.5574,-13.4454c4.5359,-14.7783 -1.214,-32.0775 -11.9863,-36.0621c-4.8586,-1.7971 -12.3384,-1.2775 -16.2052,1.1258z"/>
       </g>
      </g>
     </g>
    </g>
    <path fill="#d40000" id="path8636" d="m8.583573,58.325015c-1.583,-3.47229 -1.7567,-9.4054 2.9711,-10.20801c3.5621,-0.45844 5.0117,1.1983 5.2999,3.74186c0.1422,0.74302 0.5617,0.7885 0.6948,-0.0583c0.2044,-2.60939 2.7872,-4.1326 4.8064,-3.74997c5.5266,0.9454 5.2039,7.02845 3.3985,11.15554c-2.7309,5.47946 -5.6006,8.93761 -8.245,14.45186c-3.0382,-5.74101 -6.5073,-10.4051 -8.9257,-15.33294l0,-0.00004z"/>
    <path fill="#d40000" d="m44.851973,28.675475c7.144,-0.4744 10.8684,5.62741 11.5952,10.43645c0.4334,0.76389 0.6707,0.54864 0.8369,-0.0423c0.3493,-6.17414 5.8749,-11.22017 10.9926,-10.53018c8.328,0.10829 13.3895,9.3754 11.9664,17.21876c-1.7385,9.58159 -6.8997,15.35109 -10.8078,21.29311c-4.4213,6.15238 -10.3727,15.0395 -12.2901,19.31683c0,0 -6.0483,-9.20452 -13.9172,-20.02959c-5.2618,-7.23851 -9.4731,-15.08233 -9.8651,-21.83538c-0.4479,-7.71548 2.7193,-14.63175 11.4891,-15.82765l0,-0.00005z" id="path8558"/>
    <path fill="#d40000" d="m154.384673,28.675475c7.144,-0.4744 10.8684,5.62741 11.5952,10.43645c0.4334,0.76389 0.6707,0.54864 0.8369,-0.0423c0.3493,-6.17414 5.8749,-11.22017 10.9926,-10.53018c8.328,0.10829 13.3895,9.3754 11.9664,17.21876c-1.7385,9.58159 -6.8997,15.35109 -10.8078,21.29311c-4.4213,6.15238 -10.3727,15.0395 -12.2901,19.31683c0,0 -6.0483,-9.20452 -13.9172,-20.02959c-5.2618,-7.23851 -9.4731,-15.08233 -9.8651,-21.83538c-0.4479,-7.71548 2.7193,-14.63175 11.4891,-15.82765l0,-0.00005z" id="path8560"/>
    <path fill="#d40000" d="m154.384673,94.006075c7.144,-0.4744 10.8684,5.62741 11.5952,10.43645c0.4334,0.76389 0.6707,0.54864 0.8369,-0.0423c0.3493,-6.17414 5.8749,-11.22017 10.9926,-10.53018c8.328,0.10829 13.3895,9.3754 11.9664,17.21876c-1.7385,9.58159 -6.8997,15.35109 -10.8078,21.29311c-4.4213,6.15238 -10.3727,15.0395 -12.2901,19.31683c0,0 -6.0483,-9.20452 -13.9172,-20.02959c-5.2618,-7.23851 -9.4731,-15.08233 -9.8651,-21.83538c-0.4479,-7.71548 2.7193,-14.63175 11.4891,-15.82765l0,-0.00005z" id="path8562"/>
    <path fill="#d40000" d="m99.564673,127.158865c7.144,-0.4744 10.8684,5.62741 11.5952,10.43645c0.4334,0.76389 0.6707,0.54864 0.8369,-0.0423c0.3493,-6.17414 5.8749,-11.22017 10.9926,-10.53018c8.328,0.10829 13.3895,9.3754 11.9664,17.21876c-1.7385,9.58159 -6.8997,15.35109 -10.8078,21.29311c-4.4213,6.15238 -10.3727,15.0395 -12.2901,19.31683c0,0 -6.0483,-9.20452 -13.9172,-20.02959c-5.2618,-7.23851 -9.4731,-15.08233 -9.8651,-21.83538c-0.4479,-7.71548 2.7193,-14.63175 11.4891,-15.82765l0,-0.00005z" id="path8564"/>
    <path fill="#d40000" d="m44.851973,94.006075c7.144,-0.4744 10.8684,5.62741 11.5952,10.43645c0.4334,0.76389 0.6707,0.54864 0.8369,-0.0423c0.3493,-6.17414 5.8749,-11.22017 10.9926,-10.53018c8.328,0.10829 13.3895,9.3754 11.9664,17.21876c-1.7385,9.58159 -6.8997,15.35109 -10.8078,21.29311c-4.4213,6.15238 -10.3727,15.0395 -12.2901,19.31683c0,0 -6.0483,-9.20452 -13.9172,-20.02959c-5.2618,-7.23851 -9.4731,-15.08233 -9.8651,-21.83538c-0.4479,-7.71548 2.7193,-14.63175 11.4891,-15.82765l0,-0.00005z" id="path8566"/>
    <path fill="#d40000" d="m154.384673,218.396325c7.144,0.4744 10.8684,-5.62741 11.5952,-10.43645c0.4334,-0.76389 0.6707,-0.54864 0.8369,0.0423c0.3493,6.17414 5.8749,11.22017 10.9926,10.53018c8.328,-0.10829 13.3895,-9.3754 11.9664,-17.21876c-1.7385,-9.58159 -6.8997,-15.35109 -10.8078,-21.29311c-4.4213,-6.15238 -10.3727,-15.0395 -12.2901,-19.31683c0,0 -6.0483,9.20452 -13.9172,20.02959c-5.2618,7.23851 -9.4731,15.08233 -9.8651,21.83538c-0.4479,7.71548 2.7193,14.63175 11.4891,15.82765l0,0.00005z" id="path8606"/>
    <path fill="#d40000" d="m154.384673,283.501765c7.144,0.4744 10.8684,-5.62741 11.5952,-10.43645c0.4334,-0.76389 0.6707,-0.54864 0.8369,0.0423c0.3493,6.17414 5.8749,11.22017 10.9926,10.53018c8.328,-0.10829 13.3895,-9.3754 11.9664,-17.21876c-1.7385,-9.58159 -6.8997,-15.35109 -10.8078,-21.29311c-4.4213,-6.15238 -10.3727,-15.0395 -12.2901,-19.31683c0,0 -6.0483,9.20452 -13.9172,20.02959c-5.2618,7.23851 -9.4731,15.08233 -9.8651,21.83538c-0.4479,7.71548 2.7193,14.63175 11.4891,15.82765l0,0.00005z" id="path8608"/>
    <path fill="#d40000" d="m44.851973,283.501765c7.144,0.4744 10.8684,-5.62741 11.5952,-10.43645c0.4334,-0.76389 0.6707,-0.54864 0.8369,0.0423c0.3493,6.17414 5.8749,11.22017 10.9926,10.53018c8.328,-0.10829 13.3895,-9.3754 11.9664,-17.21876c-1.7385,-9.58159 -6.8997,-15.35109 -10.8078,-21.29311c-4.4213,-6.15238 -10.3727,-15.0395 -12.2901,-19.31683c0,0 -6.0483,9.20452 -13.9172,20.02959c-5.2618,7.23851 -9.4731,15.08233 -9.8651,21.83538c-0.4479,7.71548 2.7193,14.63175 11.4891,15.82765l0,0.00005z" id="path8610"/>
    <path fill="#d40000" d="m44.851973,218.396325c7.144,0.4744 10.8684,-5.62741 11.5952,-10.43645c0.4334,-0.76389 0.6707,-0.54864 0.8369,0.0423c0.3493,6.17414 5.8749,11.22017 10.9926,10.53018c8.328,-0.10829 13.3895,-9.3754 11.9664,-17.21876c-1.7385,-9.58159 -6.8997,-15.35109 -10.8078,-21.29311c-4.4213,-6.15238 -10.3727,-15.0395 -12.2901,-19.31683c0,0 -6.0483,9.20452 -13.9172,20.02959c-5.2618,7.23851 -9.4731,15.08233 -9.8651,21.83538c-0.4479,7.71548 2.7193,14.63175 11.4891,15.82765l0,0.00005z" id="path8612"/>
    <path fill="#d40000" d="m197.398773,249.182695c-1.583,3.47229 -1.7567,9.4054 2.9711,10.20801c3.5621,0.45844 5.0117,-1.1983 5.2999,-3.74186c0.1422,-0.74302 0.5617,-0.7885 0.6948,0.0583c0.2044,2.60939 2.7872,4.1326 4.8064,3.74997c5.5266,-0.9454 5.2039,-7.02845 3.3985,-11.15554c-2.7309,-5.47946 -5.6006,-8.93761 -8.245,-14.45186c-3.0382,5.74101 -6.5073,10.4051 -8.9257,15.33294l0,0.00004z" id="path8662"/>
   </g>
  </g>
 </g>
</svg>